<svg width="24" height="15" viewBox="0 0 24 15" fill="none" xmlns="http://www.w3.org/2000/svg">
<path d="M9.64286 6.64147C10.5 6.85571 11.2143 7.35561 11.6429 7.99833C12.0714 8.64106 12.3571 9.42661 12.3571 10.355C12.3571 11.7833 11.7857 12.8545 10.7143 13.5686C9.78571 14.2827 8.57143 14.5684 7.14286 14.5684H0V0H7C8.42857 0 9.57143 0.214241 10.3571 0.714137C11.2857 1.28545 11.7143 2.28524 11.7143 3.6421C11.7143 4.99896 11 5.99875 9.64286 6.64147ZM3.21429 2.49948V5.92733H6.5C7.14286 5.92733 7.57143 5.78451 7.92857 5.49885C8.28572 5.2132 8.42857 4.78472 8.42857 4.14199C8.42857 3.07079 7.71429 2.49948 6.21429 2.49948H3.21429ZM6.71429 12.1403C8.35714 12.1403 9.14286 11.4976 9.14286 10.2122C9.14286 8.78388 8.35714 8.14116 6.78571 8.14116H3.21429V12.2117H6.71429V12.1403ZM24 9.49802L23.9286 10.0693H16.2143C16.2143 10.9263 16.4286 11.6404 16.9286 12.0689C17.3571 12.5688 18 12.783 18.8571 12.783C19.3571 12.783 19.8571 12.6402 20.2857 12.426C20.7143 12.2117 21.0714 11.8547 21.2143 11.4262H23.7857C23 13.7828 21.3571 14.9969 18.7857 14.9969C17.1429 14.9969 15.7857 14.497 14.7857 13.4972C13.7857 12.4974 13.2857 11.1405 13.2857 9.49802C13.2857 8.42681 13.5 7.49844 14 6.64147C14.5 5.78451 15.0714 5.14178 15.9286 4.64189C16.7857 4.14199 17.7143 3.92775 18.7857 3.92775C20.4286 3.92775 21.7143 4.49906 22.6429 5.64168C23.5714 6.49864 24 7.8555 24 9.49802ZM21.6429 2.21382V0.78555H15.6429V2.21382H21.6429ZM16.2143 8.21257H21C20.9286 7.49844 20.7143 6.92713 20.3571 6.57006C20 6.21299 19.4286 5.99875 18.7143 5.99875C18 5.99875 17.4286 6.21299 17 6.64147C16.5714 6.92713 16.2857 7.49844 16.2143 8.21257Z" fill="white"/>
</svg>
