<svg width="25" height="18" viewBox="0 0 25 18" fill="none" xmlns="http://www.w3.org/2000/svg">
<path d="M19.3483 10.0798C18.199 10.0798 17.1173 9.59302 16.1439 8.80205L16.3805 7.67982L16.3872 7.63926C16.6036 6.44943 17.2728 4.44835 19.3483 4.44835C20.9032 4.44835 22.1674 5.71254 22.1674 7.26744C22.1674 8.82233 20.9032 10.0798 19.3483 10.0798ZM19.3483 1.59546C16.6982 1.59546 14.6498 3.3126 13.8115 6.14521C12.5406 4.23201 11.5738 1.94024 11.0127 0.00675979H8.15981V7.42293C8.15981 8.88993 6.96998 10.0798 5.50297 10.0798C4.03596 10.0798 2.84613 8.88993 2.84613 7.42293V0H0V7.41617C0 10.4516 2.46755 12.9462 5.50297 12.9462C8.53839 12.9462 11.0059 10.4516 11.0059 7.41617V6.17225C11.5603 7.32828 12.2363 8.49783 13.0611 9.52541L11.3169 17.7325H14.2307L15.4949 11.7834C16.6036 12.4932 17.8745 12.9394 19.3348 12.9394C22.4581 12.9394 25 10.384 25 7.25392C25.0067 4.13737 22.4716 1.59546 19.3483 1.59546Z" fill="white"/>
</svg>
