<svg width="21" height="20" viewBox="0 0 21 20" fill="none" xmlns="http://www.w3.org/2000/svg">
<path d="M0.670012 4.19048C0.191432 3.71429 0 3.14286 0 2.47619C0 1.80952 0.191432 1.2381 0.670012 0.761905C1.14859 0.285714 1.72289 0 2.3929 0C3.06291 0 3.63721 0.285714 4.11579 0.761905C4.59437 1.2381 4.88152 1.80952 4.88152 2.47619C4.88152 3.14286 4.59437 3.71429 4.11579 4.19048C3.63721 4.66667 3.06291 4.85714 2.3929 4.85714C1.72289 4.85714 1.14859 4.66667 0.670012 4.19048ZM0.287148 20V6.66667H4.49865V20H0.287148ZM15.8889 20V13.5238C15.8889 12.4762 15.7931 11.7143 15.6017 11.2381C15.3146 10.4762 14.6446 10 13.6874 10C12.7302 10 12.0602 10.381 11.6774 11.0476C11.3902 11.619 11.1988 12.381 11.1988 13.4286V20H7.08299V6.66667H11.1031V8.47619C11.3902 7.90476 11.8688 7.42857 12.5388 7.04762C13.3045 6.57143 14.0703 6.28571 15.0274 6.28571C16.9417 6.28571 18.3775 6.85714 19.1432 8.09524C19.7175 9.04762 20.0047 10.5714 20.0047 12.6667V20H15.8889Z" fill="white"/>
</svg>
