<svg width="20" height="20" viewBox="0 0 20 20" fill="none" xmlns="http://www.w3.org/2000/svg">
<path d="M20 5.87678C20 6.72986 20 8.05687 20 10.0474C20 12.0379 20 13.3649 19.9048 14.218C19.8095 15.0711 19.7143 15.8294 19.5238 16.3981C19.2381 17.1564 18.8571 17.8199 18.2857 18.2938C17.7143 18.7678 17.0476 19.2417 16.381 19.5261C15.7143 19.7156 15.0476 19.9052 14.1905 19.9052C13.3333 19.9052 11.9048 20 10 20C8.09524 20 6.66667 20 5.80952 19.9052C4.95238 19.8104 4.19048 19.7156 3.61905 19.5261C2.85714 19.2417 2.19048 18.8626 1.71429 18.3886C1.2381 17.9147 0.761905 17.1564 0.47619 16.4929C0.285714 15.8294 0.095238 15.1659 0.095238 14.3128C0.095238 13.4597 0 12.0379 0 10.1422C0 8.24644 -9.22453e-08 6.82464 0.095238 5.97156C0.190476 5.11848 0.285714 4.36019 0.47619 3.79147C0.761905 2.93839 1.14286 2.27488 1.71429 1.70616C2.28571 1.13744 2.95238 0.758294 3.61905 0.473934C4.28571 0.28436 5.04762 0.189573 5.90476 0.0947867C6.7619 2.11865e-08 8.19048 0 10.0952 0C12 0 13.4286 2.11865e-08 14.2857 0.0947867C15.1429 0.0947867 15.9048 0.28436 16.4762 0.473934C17.2381 0.758294 17.9048 1.13744 18.381 1.70616C18.8571 2.27488 19.3333 2.93839 19.619 3.6019C19.8095 4.2654 20 5.0237 20 5.87678ZM17.9048 15.9242C18.0952 15.4502 18.1905 14.5972 18.2857 13.5545C18.2857 12.891 18.2857 11.9431 18.2857 10.8057V9.38389C18.2857 8.15166 18.2857 7.20379 18.2857 6.63507C18.1905 5.49763 18.0952 4.73934 17.9048 4.2654C17.5238 3.31754 16.9524 2.74882 16 2.36967C15.5238 2.18009 14.7619 2.08531 13.619 1.99052C12.9524 1.99052 12 1.99052 10.8571 1.99052H9.33333C8.09524 1.99052 7.2381 1.99052 6.57143 1.99052C5.52381 1.89573 4.66667 2.08531 4.19048 2.27488C3.23809 2.65403 2.66667 3.22275 2.28571 4.17062C2.09524 4.64455 2 5.40284 1.90476 6.54028C1.90476 7.20379 1.90476 8.15166 1.90476 9.2891V10.7109C1.90476 11.9431 1.90476 12.7962 1.90476 13.4597C2 14.5972 2.09524 15.3555 2.28571 15.8294C2.66667 16.7773 3.33333 17.346 4.19048 17.7251C4.66667 17.9147 5.52381 18.0095 6.57143 18.1043C7.2381 18.1043 8.19048 18.1043 9.33333 18.1043H10.7619C12 18.1043 12.9524 18.1043 13.5238 18.1043C14.6667 18.0095 15.4286 17.9147 15.9048 17.7251C16.8571 17.4408 17.5238 16.7773 17.9048 15.9242ZM10.0952 4.92891C11.0476 4.92891 11.9048 5.11848 12.6667 5.59242C13.4286 6.06635 14.0952 6.63507 14.5714 7.48815C15.0476 8.24644 15.2381 9.09953 15.2381 10.0474C15.2381 10.9953 15.0476 11.8483 14.5714 12.6066C14.0952 13.3649 13.5238 14.0284 12.6667 14.5024C11.8095 14.9763 11.0476 15.1659 10.0952 15.1659C9.14286 15.1659 8.28572 14.8815 7.52381 14.4076C6.76191 13.9336 6.09524 13.3649 5.61905 12.5118C5.14286 11.6588 4.95238 10.9005 4.95238 9.95261C4.95238 9.00474 5.14286 8.15166 5.61905 7.39336C6.09524 6.63507 6.66667 5.97156 7.52381 5.49763C8.38095 5.0237 9.14286 4.92891 10.0952 4.92891ZM10.0952 13.3649C11.0476 13.3649 11.8095 13.0806 12.4762 12.4171C13.1429 11.7536 13.4286 10.9953 13.4286 10.0474C13.4286 9.09953 13.1429 8.34123 12.4762 7.67772C11.8095 7.01422 11.0476 6.72986 10.0952 6.72986C9.14286 6.72986 8.38095 7.01422 7.71429 7.67772C7.04762 8.34123 6.76191 9.09953 6.76191 10.0474C6.76191 10.9953 7.04762 11.7536 7.71429 12.4171C8.38095 13.0806 9.14286 13.3649 10.0952 13.3649ZM16.6667 4.64455C16.6667 4.36019 16.5714 4.07583 16.2857 3.79147C16 3.50711 15.8095 3.41232 15.4286 3.41232C15.0476 3.41232 14.8571 3.50711 14.5714 3.79147C14.2857 4.07583 14.1905 4.2654 14.1905 4.64455C14.1905 5.0237 14.2857 5.21327 14.5714 5.49763C14.8571 5.78199 15.0476 5.87678 15.4286 5.87678C15.8095 5.87678 16 5.78199 16.2857 5.49763C16.5714 5.21327 16.5714 5.0237 16.6667 4.64455Z" fill="white"/>
</svg>
