<svg width="21" height="155" viewBox="0 0 21 155" fill="none" xmlns="http://www.w3.org/2000/svg">
    <path d="M8.05035 72.9303C8.05035 73.1303 7.99368 73.2903 7.88035 73.4103C7.76035 73.5236 7.60368 73.5803 7.41035 73.5803H2.01035V75.4003C2.01035 75.8003 1.83368 76.0003 1.48035 76.0003C1.12702 76.0003 0.950355 75.8003 0.950355 75.4003L0.950354 70.4703C0.950354 70.0703 1.12702 69.8703 1.48035 69.8703C1.83368 69.8703 2.01035 70.0703 2.01035 70.4703V72.2903H7.41035C7.60368 72.2903 7.76035 72.3503 7.88035 72.4703C7.99368 72.5836 8.05035 72.737 8.05035 72.9303ZM8.09035 65.3874C8.09035 66.0741 7.94368 66.6707 7.65035 67.1774C7.35702 67.6774 6.93702 68.0641 6.39035 68.3374C5.84368 68.6107 5.20368 68.7474 4.47035 68.7474C3.73702 68.7474 3.10035 68.6141 2.56035 68.3474C2.01368 68.0741 1.59368 67.6841 1.30035 67.1774C1.00702 66.6707 0.860354 66.0741 0.860354 65.3874C0.860354 64.7007 1.00702 64.1074 1.30035 63.6074C1.59368 63.1007 2.01368 62.7141 2.56035 62.4474C3.10035 62.1741 3.73702 62.0374 4.47035 62.0374C5.20368 62.0374 5.84368 62.1741 6.39035 62.4474C6.93702 62.7207 7.35702 63.1107 7.65035 63.6174C7.94368 64.1174 8.09035 64.7074 8.09035 65.3874ZM7.06035 65.3874C7.06035 64.7407 6.83702 64.2374 6.39035 63.8774C5.94368 63.5107 5.30368 63.3274 4.47035 63.3274C3.63702 63.3274 3.00035 63.5107 2.56035 63.8774C2.11368 64.2374 1.89035 64.7407 1.89035 65.3874C1.89035 66.0407 2.11368 66.5507 2.56035 66.9174C3.00035 67.2774 3.63702 67.4574 4.47035 67.4574C5.30368 67.4574 5.94368 67.2774 6.39035 66.9174C6.83702 66.5507 7.06035 66.0407 7.06035 65.3874ZM8.06036 59.0944C8.06036 59.2878 8.00368 59.4444 7.89035 59.5644C7.77035 59.6778 7.61035 59.7344 7.41035 59.7344H1.56035C1.36702 59.7344 1.21702 59.6811 1.11035 59.5744C1.00368 59.4611 0.950354 59.3078 0.950354 59.1144V56.6544C0.950354 55.9011 1.14035 55.3144 1.52035 54.8944C1.89368 54.4744 2.42035 54.2644 3.10035 54.2644C3.78035 54.2644 4.31035 54.4744 4.69035 54.8944C5.07035 55.3144 5.26035 55.9011 5.26035 56.6544V58.4444H7.41035C7.61035 58.4444 7.77035 58.5044 7.89035 58.6244C8.00368 58.7378 8.06036 58.8944 8.06036 59.0944ZM4.27035 56.8144C4.27035 55.9278 3.88368 55.4844 3.11035 55.4844C2.33702 55.4844 1.95035 55.9278 1.95035 56.8144V58.4444H4.27035V56.8144ZM8.09035 45.978C8.09035 46.4914 8.02368 46.978 7.89035 47.438C7.75035 47.8914 7.56368 48.2614 7.33035 48.548C7.21702 48.7014 7.05702 48.778 6.85035 48.778C6.71035 48.778 6.59035 48.738 6.49035 48.658C6.38368 48.5714 6.33035 48.4714 6.33035 48.358C6.33035 48.238 6.37702 48.1014 6.47035 47.948C6.67702 47.6614 6.82702 47.3614 6.92035 47.048C7.01368 46.7347 7.06035 46.388 7.06035 46.008C7.06035 45.5214 6.97702 45.148 6.81035 44.888C6.63702 44.628 6.38702 44.498 6.06035 44.498C5.80702 44.498 5.61368 44.6214 5.48035 44.868C5.34035 45.108 5.20702 45.5114 5.08035 46.078C4.95368 46.6647 4.80702 47.1414 4.64035 47.508C4.47368 47.8747 4.26035 48.1514 4.00035 48.338C3.74035 48.5247 3.41035 48.618 3.01035 48.618C2.59702 48.618 2.22702 48.5014 1.90035 48.268C1.57368 48.0347 1.32035 47.7114 1.14035 47.298C0.953687 46.878 0.860353 46.408 0.860353 45.888C0.860353 44.9347 1.11368 44.158 1.62035 43.558C1.69368 43.4714 1.76701 43.4114 1.84035 43.378C1.90702 43.338 1.99368 43.318 2.10035 43.318C2.24035 43.318 2.36368 43.3614 2.47035 43.448C2.57035 43.528 2.62035 43.6247 2.62035 43.738C2.62035 43.8047 2.61035 43.868 2.59035 43.928C2.57035 43.9814 2.53368 44.0547 2.48035 44.148C2.28035 44.4214 2.13368 44.688 2.04035 44.948C1.94035 45.2014 1.89035 45.5147 1.89035 45.888C1.89035 46.3414 1.98368 46.7014 2.17035 46.968C2.35035 47.228 2.60368 47.358 2.93035 47.358C3.20368 47.358 3.41368 47.2414 3.56035 47.008C3.70702 46.7747 3.84368 46.378 3.97035 45.818C4.10368 45.2247 4.25368 44.7447 4.42035 44.378C4.58035 44.0047 4.78702 43.7214 5.04035 43.528C5.29368 43.328 5.61035 43.228 5.99035 43.228C6.40368 43.228 6.77035 43.3447 7.09035 43.578C7.40368 43.8047 7.65035 44.128 7.83035 44.548C8.00368 44.9614 8.09035 45.438 8.09035 45.978ZM0.900353 35.5311C0.900353 35.3377 0.960353 35.1844 1.08035 35.0711C1.19368 34.9577 1.34701 34.9011 1.54035 34.9011H7.41035C7.60368 34.9011 7.76035 34.9611 7.88035 35.0811C8.00035 35.1944 8.06036 35.3444 8.06036 35.5311C8.06036 35.7244 8.00035 35.8777 7.88035 35.9911C7.76035 36.1044 7.60368 36.1611 7.41035 36.1611H4.94035V39.7711H7.41035C7.60368 39.7711 7.76035 39.8311 7.88035 39.9511C8.00035 40.0644 8.06036 40.2177 8.06036 40.4111C8.06036 40.5977 8.00035 40.7511 7.88035 40.8711C7.76035 40.9844 7.60368 41.0411 7.41035 41.0411H1.54035C1.34701 41.0411 1.19368 40.9844 1.08035 40.8711C0.960353 40.7577 0.900353 40.6044 0.900353 40.4111C0.900353 40.2177 0.960353 40.0644 1.08035 39.9511C1.19368 39.8311 1.34701 39.7711 1.54035 39.7711H3.90035V36.1611H1.54035C1.34701 36.1611 1.19368 36.1044 1.08035 35.9911C0.960353 35.8777 0.900353 35.7244 0.900353 35.5311ZM8.09035 29.2448C8.09035 29.9315 7.94368 30.5282 7.65035 31.0348C7.35701 31.5348 6.93701 31.9215 6.39035 32.1948C5.84368 32.4682 5.20368 32.6048 4.47035 32.6048C3.73701 32.6048 3.10035 32.4715 2.56035 32.2048C2.01368 31.9315 1.59368 31.5415 1.30035 31.0348C1.00701 30.5282 0.860353 29.9315 0.860352 29.2448C0.860352 28.5582 1.00701 27.9648 1.30035 27.4648C1.59368 26.9582 2.01368 26.5715 2.56035 26.3048C3.10035 26.0315 3.73701 25.8948 4.47035 25.8948C5.20368 25.8948 5.84368 26.0315 6.39035 26.3048C6.93701 26.5782 7.35701 26.9682 7.65035 27.4748C7.94368 27.9748 8.09035 28.5648 8.09035 29.2448ZM7.06035 29.2448C7.06035 28.5982 6.83701 28.0948 6.39035 27.7348C5.94368 27.3682 5.30368 27.1848 4.47035 27.1848C3.63701 27.1848 3.00035 27.3682 2.56035 27.7348C2.11368 28.0948 1.89035 28.5982 1.89035 29.2448C1.89035 29.8982 2.11368 30.4082 2.56035 30.7748C3.00035 31.1348 3.63701 31.3148 4.47035 31.3148C5.30368 31.3148 5.94368 31.1348 6.39035 30.7748C6.83701 30.4082 7.06035 29.8982 7.06035 29.2448ZM8.06036 22.9519C8.06036 23.1452 8.00368 23.3019 7.89035 23.4219C7.77035 23.5352 7.61035 23.5919 7.41035 23.5919H1.56035C1.36701 23.5919 1.21701 23.5385 1.11035 23.4319C1.00368 23.3185 0.950352 23.1652 0.950352 22.9719V20.5119C0.950352 19.7585 1.14035 19.1719 1.52035 18.7519C1.89368 18.3319 2.42035 18.1219 3.10035 18.1219C3.78035 18.1219 4.31035 18.3319 4.69035 18.7519C5.07035 19.1719 5.26035 19.7585 5.26035 20.5119V22.3019H7.41035C7.61035 22.3019 7.77035 22.3619 7.89035 22.4819C8.00368 22.5952 8.06036 22.7519 8.06036 22.9519ZM4.27035 20.6719C4.27035 19.7852 3.88368 19.3419 3.11035 19.3419C2.33701 19.3419 1.95035 19.7852 1.95035 20.6719V22.3019H4.27035V20.6719ZM8.06036 15.3503C8.06036 15.5436 8.00035 15.7003 7.88035 15.8203C7.76035 15.9336 7.60368 15.9903 7.41035 15.9903H1.54035C1.34701 15.9903 1.19368 15.9336 1.08035 15.8203C0.960352 15.7003 0.900352 15.5436 0.900352 15.3503C0.900352 15.1503 0.960352 14.9936 1.08035 14.8803C1.19368 14.7603 1.34701 14.7003 1.54035 14.7003H7.41035C7.60368 14.7003 7.76035 14.7603 7.88035 14.8803C8.00035 14.9936 8.06036 15.1503 8.06036 15.3503ZM8.06036 11.5378C8.06036 11.7311 8.00035 11.8878 7.88035 12.0078C7.76035 12.1211 7.60368 12.1778 7.41035 12.1778H1.56035C1.36701 12.1778 1.21701 12.1245 1.11035 12.0178C1.00368 11.9045 0.950352 11.7511 0.950352 11.5578V8.04781C0.950352 7.64114 1.12368 7.43781 1.47035 7.43781C1.81035 7.43781 1.98035 7.64114 1.98035 8.04781V10.9078H3.90035V8.24781C3.90035 7.84114 4.07368 7.63781 4.42035 7.63781C4.76035 7.63781 4.93035 7.84114 4.93035 8.24781V10.9078H7.41035C7.60368 10.9078 7.76035 10.9645 7.88035 11.0778C8.00035 11.1911 8.06036 11.3445 8.06036 11.5378ZM1.12035 1.07468C0.973685 0.954688 0.900351 0.811354 0.900351 0.644688C0.900351 0.491354 0.960351 0.354688 1.08035 0.234688C1.19368 0.114688 1.33035 0.0546875 1.49035 0.0546875C1.62368 0.0546875 1.75035 0.104688 1.87035 0.204687L4.64035 2.47468H7.41035C7.61701 2.47468 7.77701 2.53468 7.89035 2.65468C8.00368 2.77468 8.06036 2.92802 8.06036 3.11468C8.06036 3.30802 8.00368 3.46468 7.89035 3.58468C7.77701 3.70468 7.61701 3.76468 7.41035 3.76468H4.64035L1.87035 6.03468C1.75035 6.13468 1.62368 6.18468 1.49035 6.18468C1.33035 6.18468 1.19368 6.12468 1.08035 6.00468C0.960352 5.88468 0.900352 5.74802 0.900352 5.59468C0.900352 5.42802 0.973685 5.28468 1.12035 5.16468L3.66035 3.11468L1.12035 1.07468ZM20.0004 74.6203C20.0004 74.8136 19.9471 74.967 19.8404 75.0803C19.7337 75.187 19.5837 75.2403 19.3904 75.2403H13.5604C13.3671 75.2403 13.2171 75.187 13.1104 75.0803C13.0037 74.967 12.9504 74.8136 12.9504 74.6203V71.0103C12.9504 70.817 12.9937 70.667 13.0804 70.5603C13.1671 70.4536 13.2904 70.4003 13.4504 70.4003C13.6171 70.4003 13.7471 70.4536 13.8404 70.5603C13.9271 70.667 13.9704 70.817 13.9704 71.0103V73.9803H15.9104V71.2103C15.9104 71.017 15.9537 70.867 16.0404 70.7603C16.1271 70.6536 16.2537 70.6003 16.4204 70.6003C16.5804 70.6003 16.7037 70.6536 16.7904 70.7603C16.8771 70.867 16.9204 71.017 16.9204 71.2103V73.9803H18.9804V71.0103C18.9804 70.817 19.0271 70.667 19.1204 70.5603C19.2071 70.4536 19.3337 70.4003 19.5004 70.4003C19.6604 70.4003 19.7837 70.4536 19.8704 70.5603C19.9571 70.667 20.0004 70.817 20.0004 71.0103V74.6203ZM19.0804 62.94C19.2071 62.8333 19.3337 62.78 19.4604 62.78C19.6204 62.78 19.7604 62.8433 19.8804 62.97C20.0004 63.09 20.0604 63.23 20.0604 63.39C20.0604 63.5567 19.9871 63.7033 19.8404 63.83L17.3204 65.86L19.8404 67.9C19.9804 68.02 20.0504 68.1633 20.0504 68.33C20.0504 68.49 19.9937 68.6333 19.8804 68.76C19.7604 68.88 19.6204 68.94 19.4604 68.94C19.3271 68.94 19.2004 68.89 19.0804 68.79L16.4204 66.61L13.8704 68.7C13.7637 68.8 13.6371 68.85 13.4904 68.85C13.3304 68.85 13.1937 68.79 13.0804 68.67C12.9604 68.55 12.9004 68.41 12.9004 68.25C12.9004 68.0833 12.9737 67.9367 13.1204 67.81L15.5304 65.86L13.1204 63.91C12.9737 63.79 12.9004 63.6467 12.9004 63.48C12.9004 63.32 12.9604 63.18 13.0804 63.06C13.1937 62.9333 13.3304 62.87 13.4904 62.87C13.6371 62.87 13.7637 62.92 13.8704 63.02L16.4204 65.11L19.0804 62.94ZM20.0604 60.1394C20.0604 60.3327 20.0037 60.4894 19.8904 60.6094C19.7704 60.7227 19.6104 60.7794 19.4104 60.7794H13.5604C13.3671 60.7794 13.2171 60.726 13.1104 60.6194C13.0037 60.506 12.9504 60.3527 12.9504 60.1594V57.6994C12.9504 56.946 13.1404 56.3594 13.5204 55.9394C13.8937 55.5194 14.4204 55.3094 15.1004 55.3094C15.7804 55.3094 16.3104 55.5194 16.6904 55.9394C17.0704 56.3594 17.2604 56.946 17.2604 57.6994V59.4894H19.4104C19.6104 59.4894 19.7704 59.5494 19.8904 59.6694C20.0037 59.7827 20.0604 59.9394 20.0604 60.1394ZM16.2704 57.8594C16.2704 56.9727 15.8837 56.5294 15.1104 56.5294C14.3371 56.5294 13.9504 56.9727 13.9504 57.8594V59.4894H16.2704V57.8594ZM20.0004 52.5578C20.0004 52.7511 19.9471 52.9045 19.8404 53.0178C19.7337 53.1245 19.5837 53.1778 19.3904 53.1778H13.5604C13.3671 53.1778 13.2171 53.1245 13.1104 53.0178C13.0037 52.9045 12.9504 52.7511 12.9504 52.5578V48.9478C12.9504 48.7545 12.9937 48.6045 13.0804 48.4978C13.1671 48.3911 13.2904 48.3378 13.4504 48.3378C13.6171 48.3378 13.7471 48.3911 13.8404 48.4978C13.9271 48.6045 13.9704 48.7545 13.9704 48.9478V51.9178H15.9104V49.1478C15.9104 48.9545 15.9537 48.8045 16.0404 48.6978C16.1271 48.5911 16.2537 48.5378 16.4204 48.5378C16.5804 48.5378 16.7037 48.5911 16.7904 48.6978C16.8771 48.8045 16.9204 48.9545 16.9204 49.1478V51.9178H18.9804V48.9478C18.9804 48.7545 19.0271 48.6045 19.1204 48.4978C19.2071 48.3911 19.3337 48.3378 19.5004 48.3378C19.6604 48.3378 19.7837 48.3911 19.8704 48.4978C19.9571 48.6045 20.0004 48.7545 20.0004 48.9478V52.5578ZM19.1904 40.6491C19.3104 40.5691 19.4271 40.5291 19.5404 40.5291C19.6937 40.5291 19.8204 40.5925 19.9204 40.7191C20.0204 40.8391 20.0704 40.9825 20.0704 41.1491C20.0704 41.2558 20.0471 41.3591 20.0004 41.4591C19.9471 41.5525 19.8704 41.6325 19.7704 41.6991L17.7504 43.0291C17.5371 43.1625 17.3871 43.3058 17.3004 43.4591C17.2137 43.6058 17.1704 43.7991 17.1704 44.0391V45.0191H19.4104C19.6104 45.0191 19.7704 45.0758 19.8904 45.1891C20.0037 45.3025 20.0604 45.4558 20.0604 45.6491C20.0604 45.8425 20.0037 45.9991 19.8904 46.1191C19.7704 46.2325 19.6104 46.2891 19.4104 46.2891H13.5604C13.3671 46.2891 13.2171 46.2358 13.1104 46.1291C13.0037 46.0158 12.9504 45.8625 12.9504 45.6691V43.1691C12.9504 42.3691 13.1304 41.7625 13.4904 41.3491C13.8437 40.9291 14.3571 40.7191 15.0304 40.7191C15.5771 40.7191 16.0271 40.8758 16.3804 41.1891C16.7271 41.4958 16.9504 41.9325 17.0504 42.4991C17.0971 42.3058 17.1804 42.1358 17.3004 41.9891C17.4204 41.8425 17.5871 41.6991 17.8004 41.5591L19.1904 40.6491ZM16.1804 43.3491C16.1804 42.8625 16.0904 42.5058 15.9104 42.2791C15.7237 42.0525 15.4404 41.9391 15.0604 41.9391C14.6737 41.9391 14.3937 42.0525 14.2204 42.2791C14.0404 42.5058 13.9504 42.8625 13.9504 43.3491V45.0291H16.1804V43.3491ZM20.0504 36.2213C20.0504 36.4213 19.9937 36.5813 19.8804 36.7013C19.7604 36.8146 19.6037 36.8713 19.4104 36.8713H14.0104V38.6913C14.0104 39.0913 13.8337 39.2913 13.4804 39.2913C13.1271 39.2913 12.9504 39.0913 12.9504 38.6913V33.7613C12.9504 33.3613 13.1271 33.1613 13.4804 33.1613C13.8337 33.1613 14.0104 33.3613 14.0104 33.7613V35.5813H19.4104C19.6037 35.5813 19.7604 35.6413 19.8804 35.7613C19.9937 35.8746 20.0504 36.028 20.0504 36.2213ZM20.0904 29.1831C20.0904 29.6964 20.0237 30.1831 19.8904 30.6431C19.7504 31.0964 19.5637 31.4664 19.3304 31.7531C19.2171 31.9064 19.0571 31.9831 18.8504 31.9831C18.7104 31.9831 18.5904 31.9431 18.4904 31.8631C18.3837 31.7764 18.3304 31.6764 18.3304 31.5631C18.3304 31.4431 18.3771 31.3064 18.4704 31.1531C18.6771 30.8664 18.8271 30.5664 18.9204 30.2531C19.0137 29.9398 19.0604 29.5931 19.0604 29.2131C19.0604 28.7264 18.9771 28.3531 18.8104 28.0931C18.6371 27.8331 18.3871 27.7031 18.0604 27.7031C17.8071 27.7031 17.6137 27.8264 17.4804 28.0731C17.3404 28.3131 17.2071 28.7164 17.0804 29.2831C16.9537 29.8698 16.8071 30.3464 16.6404 30.7131C16.4737 31.0798 16.2604 31.3564 16.0004 31.5431C15.7404 31.7298 15.4104 31.8231 15.0104 31.8231C14.5971 31.8231 14.2271 31.7064 13.9004 31.4731C13.5737 31.2398 13.3204 30.9164 13.1404 30.5031C12.9537 30.0831 12.8604 29.6131 12.8604 29.0931C12.8604 28.1398 13.1137 27.3631 13.6204 26.7631C13.6937 26.6764 13.7671 26.6164 13.8404 26.5831C13.9071 26.5431 13.9937 26.5231 14.1004 26.5231C14.2404 26.5231 14.3637 26.5664 14.4704 26.6531C14.5704 26.7331 14.6204 26.8298 14.6204 26.9431C14.6204 27.0098 14.6104 27.0731 14.5904 27.1331C14.5704 27.1864 14.5337 27.2598 14.4804 27.3531C14.2804 27.6264 14.1337 27.8931 14.0404 28.1531C13.9404 28.4064 13.8904 28.7198 13.8904 29.0931C13.8904 29.5464 13.9837 29.9064 14.1704 30.1731C14.3504 30.4331 14.6037 30.5631 14.9304 30.5631C15.2037 30.5631 15.4137 30.4464 15.5604 30.2131C15.7071 29.9798 15.8437 29.5831 15.9704 29.0231C16.1037 28.4298 16.2537 27.9498 16.4204 27.5831C16.5804 27.2098 16.7871 26.9264 17.0404 26.7331C17.2937 26.5331 17.6104 26.4331 17.9904 26.4331C18.4037 26.4331 18.7704 26.5498 19.0904 26.7831C19.4037 27.0098 19.6504 27.3331 19.8304 27.7531C20.0037 28.1664 20.0904 28.6431 20.0904 29.1831Z" fill="white"/>
    <path d="M0.288086 132.805V136.091H20.7203V132.805H0.288086Z" fill="white"/>
    <path d="M14.2188 121.302C17.2907 121.302 17.5765 123.945 17.5765 124.66C17.5765 126.589 15.719 127.017 14.576 127.017H6.86035V130.304H14.6474C16.5763 130.304 18.148 129.661 19.2911 128.661C20.2198 127.732 20.7199 126.303 20.7199 124.731C20.7199 123.588 20.4341 122.088 19.5769 121.373H20.7199V118.087H6.86035V121.373H14.2188V121.302Z" fill="white"/>
    <path d="M1.93139 111.585V114.872H6.86084V117.301H10.1471V114.872H20.7205V111.585H10.1471V109.156H6.86084V111.585H1.93139Z" fill="white"/>
    <path d="M16.5763 98.8681C17.2193 99.5825 17.5765 100.511 17.5765 101.511C17.5765 103.797 15.9334 105.44 13.5758 105.44C11.2183 105.44 9.64655 103.797 9.64655 101.511C9.64655 100.511 9.93228 99.5825 10.6466 98.8681L11.0753 98.368L8.93207 96.2247L8.432 96.7248C7.28899 98.0823 6.57452 99.7254 6.57452 101.511C6.50306 105.583 9.43221 108.584 13.5757 108.584C17.5764 108.584 20.6485 105.512 20.6485 101.511C20.6485 99.654 20.0055 97.9393 18.791 96.582L18.2909 96.0818L16.0048 98.368L16.5763 98.8681Z" fill="white"/>
    <path d="M8.07522 84.4368C7.14647 85.3656 6.6464 86.5084 6.6464 88.0087C6.6464 89.1517 6.93214 90.3663 7.78941 91.2236H0.288086V94.5101H20.7203V91.2236H13.0046C9.9327 91.2236 9.6469 88.9374 9.6469 88.223C9.6469 86.2943 11.5043 86.2943 12.6474 86.2943H20.7203V83.0074H12.576C10.7899 82.9363 9.14683 83.3651 8.07522 84.4368Z" fill="white"/>
    <path d="M16.0055 101.654C16.0055 100.352 14.9499 99.2968 13.6478 99.2968C12.3458 99.2968 11.2902 100.352 11.2902 101.654C11.2902 102.956 12.3458 104.012 13.6478 104.012C14.9499 104.012 16.0055 102.956 16.0055 101.654Z" fill="white"/>
    <path d="M15.5763 140.591C16.7908 141.806 17.5053 143.592 17.5053 145.307C17.5053 149.022 14.6476 151.665 10.7183 151.665C6.78906 151.665 3.93137 149.022 3.93137 145.378C3.93137 143.663 4.64579 142.02 5.86029 140.663L6.36038 140.163L4.21716 138.019L3.71706 138.519C1.85955 140.377 0.859375 142.806 0.859375 145.378C0.930836 150.808 5.14587 154.809 10.7897 154.809C16.4336 154.809 20.6487 150.808 20.6487 145.378C20.6487 142.735 19.6485 140.234 17.791 138.519L17.2909 138.019L15.0048 140.163L15.5763 140.591Z" fill="white"/>
</svg>
