<svg width="106" height="31" viewBox="0 0 106 31" fill="none" xmlns="http://www.w3.org/2000/svg">
<path d="M32.482 0.424805H27.6308V30.5867H32.482V0.424805Z" fill="#2A2829"/>
<path d="M49.4614 20.9895C49.4614 25.5243 45.5594 25.9462 44.5047 25.9462C41.6573 25.9462 41.0245 23.2042 41.0245 21.5168V10.127H36.1732V21.6223C36.1732 24.4697 37.1224 26.7899 38.5988 28.4772C39.9698 29.8482 42.0791 30.5865 44.3992 30.5865C46.0866 30.5865 48.3013 30.1646 49.3559 28.8991V30.5865H54.2072V10.127H49.3559V20.9895H49.4614Z" fill="#2A2829"/>
<path d="M63.8042 2.85059H58.9529V10.1274H55.3672V14.9786H58.9529V30.5869H63.8042V14.9786H67.3899V10.1274H63.8042V2.85059Z" fill="#2A2829"/>
<path d="M82.5762 24.4701C81.5216 25.4193 80.1506 25.9466 78.6741 25.9466C75.2993 25.9466 72.8738 23.521 72.8738 20.0408C72.8738 16.5606 75.2993 14.2404 78.6741 14.2404C80.1506 14.2404 81.5216 14.6622 82.5762 15.7168L83.3144 16.3496L86.4782 13.1857L85.74 12.4475C83.7362 10.7602 81.3107 9.7055 78.6741 9.7055C72.6628 9.60002 68.2334 13.924 68.2334 20.0407C68.2334 25.9465 72.7682 30.4814 78.6741 30.4814C81.4161 30.4814 83.9472 29.5323 85.9509 27.7394L86.6892 27.0011L83.3144 23.6264L82.5762 24.4701Z" fill="#2A2829"/>
<path d="M103.879 11.9201C102.508 10.5491 100.821 9.81089 98.6063 9.81089C96.919 9.81089 95.1261 10.2327 93.8606 11.4982V0.424805H89.0093V30.5867H93.8606V19.1969C93.8606 14.6621 97.2354 14.2402 98.29 14.2402C101.137 14.2402 101.137 16.9822 101.137 18.6696V30.5867H105.989V18.5642C106.094 15.9276 105.461 13.502 103.879 11.9201Z" fill="#2A2829"/>
<path d="M78.4635 23.6265C80.3856 23.6265 81.9437 22.0683 81.9437 20.1462C81.9437 18.2242 80.3856 16.666 78.4635 16.666C76.5414 16.666 74.9833 18.2242 74.9833 20.1462C74.9833 22.0683 76.5414 23.6265 78.4635 23.6265Z" fill="#2A2829"/>
<path d="M20.9868 22.9936C19.194 24.7864 16.5575 25.8411 14.0264 25.8411C8.54237 25.8411 4.64034 21.6226 4.64034 15.8222C4.64034 10.0219 8.54241 5.8034 13.9209 5.8034C16.452 5.8034 18.8777 6.85802 20.8814 8.65086L21.6196 9.38909L24.7835 6.22528L24.0452 5.48705C21.3032 2.74501 17.7175 1.26855 13.9209 1.26855C5.90585 1.37404 0 7.59624 0 15.9277C0 24.2592 5.90585 30.4814 13.9209 30.4814C17.823 30.4814 21.5141 29.0049 24.0452 26.2629L24.7835 25.5247L21.6196 22.1499L20.9868 22.9936Z" fill="#2A2829"/>
</svg>
