<svg width="217" height="30" viewBox="0 0 217 30" fill="none" xmlns="http://www.w3.org/2000/svg">
    <path d="M130.625 9.56055L133.662 17.5105H127.775L130.625 9.56055ZM129.477 6.93555L122.877 24.313H125.367L127.062 19.5655H134.435L136.13 24.313H138.605L132.02 6.93555H129.47H129.477Z" fill="#2A2829"/>
    <path d="M165.23 24.313H167.495V6.93555H165.23V24.313Z" fill="#2A2829"/>
    <path d="M141.965 14.1045C142.745 12.9645 144.23 12.042 145.715 12.042C148.775 12.042 150.26 14.097 150.26 17.142V24.522H147.995V17.502C147.995 15.027 146.645 14.097 144.942 14.097C143.022 14.097 141.74 16.0095 141.74 17.712V24.312H139.475V12.177H141.747L141.972 14.097L141.965 14.1045Z" fill="#2A2829"/>
    <path d="M152.18 20.7722C152.18 18.1472 154.655 16.5872 157.505 16.5872C159.2 16.5872 160.332 16.9397 160.685 17.3672V16.9997C160.685 15.0947 159.2 14.1722 157.64 14.1722C156.29 14.1722 155.165 14.7422 154.79 15.8747L152.75 14.9522C153.102 13.8272 154.662 12.1172 157.64 12.1172C160.475 12.1172 162.965 13.8122 162.965 17.2172V24.3797H160.902V22.6772H160.677C160.122 23.5997 158.772 24.7322 156.717 24.7322C154.227 24.7322 152.172 23.1722 152.172 20.7572L152.18 20.7722ZM160.677 19.2047C160.677 19.2047 159.755 18.4172 157.842 18.4172C155.577 18.4172 154.655 19.7672 154.655 20.6897C154.655 22.0397 156.005 22.6022 157.13 22.6022C158.765 22.6022 160.677 21.1172 160.677 19.2047Z" fill="#2A2829"/>
    <path d="M170.69 29.6373L173.315 23.3898L168.56 12.4023H170.833L174.455 20.6973L178.07 12.4023H180.343L172.963 29.6373H170.698H170.69Z" fill="#2A2829"/>
    <path d="M204.028 16.3702C203.458 14.8852 202.108 13.8952 200.833 13.8952C198.928 13.8952 197.233 15.5902 197.233 18.0727C197.233 20.5477 198.928 22.2577 200.833 22.2577C202.183 22.2577 203.458 21.3427 204.035 20.0077L205.948 21.1327C205.025 23.1877 203.113 24.5377 200.848 24.5377C197.653 24.5377 194.953 21.7027 194.953 18.0877C194.953 14.3227 197.578 11.6377 200.84 11.6377C203.12 11.6377 205.04 12.9727 205.955 15.0352L204.043 16.3852L204.028 16.3702Z" fill="#2A2829"/>
    <path d="M212.18 24.7404C215.232 24.7404 216.717 23.0379 216.717 20.9904C216.717 16.4454 210.117 18.1404 210.117 15.5154C210.117 14.6004 210.897 14.0304 212.172 14.0304C213.447 14.0304 214.797 14.6004 215.367 15.5304L216.717 14.1804C215.93 13.2504 213.867 11.9004 211.962 11.9004C209.127 11.9004 207.635 13.6029 207.635 15.6654C207.635 19.9929 214.437 18.5004 214.437 20.7654C214.437 21.9054 213.657 22.6854 212.165 22.6854C210.672 22.6854 209.9 21.7629 209.12 20.7729L207.417 22.1229C208.557 23.1729 210.267 24.7479 212.172 24.7479L212.18 24.7404Z" fill="#2A2829"/>
    <path d="M190.625 24.313H192.89V12.1855H190.618V24.313H190.625Z" fill="#2A2829"/>
    <path d="M191.54 6.37305C192.462 6.37305 193.04 7.15305 193.04 7.85805C193.04 8.78805 192.252 9.35805 191.54 9.35805C190.76 9.35805 190.055 8.57805 190.055 7.85805C190.055 7.13805 190.76 6.38055 191.54 6.38055V6.37305Z" fill="#2A2829"/>
    <path d="M188.353 22.4752L188.705 24.1702C187.925 24.1702 187.205 24.1702 186.433 24.1702C184.385 24.1702 183.395 22.6852 183.395 20.4202V14.5252H181.123V12.2602H183.395V8.6377H185.66V12.2602H188.285V14.5252H185.66V20.7727C185.66 22.4752 187.01 22.4752 188.36 22.4752H188.353Z" fill="#2A2829"/>
    <path d="M48.905 13.9624V16.7974H55.505C55.28 18.2974 54.725 19.4224 54.005 20.2024C53.09 21.1249 51.53 22.2574 48.905 22.2574C44.93 22.2574 41.7425 19.0774 41.7425 14.8924C41.7425 10.9174 44.93 7.51242 48.8975 7.51242C51.17 7.51242 52.6475 8.43492 53.795 9.42492L55.7075 7.50492C54.005 6.00492 51.9575 4.66992 48.8975 4.66992C43.4375 4.66992 38.6825 9.20742 38.6825 14.6674C38.6825 20.1274 43.4375 24.6649 48.8975 24.6649C51.95 24.6649 54.2225 23.7424 55.9175 21.8149C57.8375 19.9099 58.3925 17.5024 58.3925 15.3649C58.3925 14.8024 58.3925 14.0149 58.19 13.6699H48.89V13.9549L48.905 13.9624Z" fill="#2A2829"/>
    <path d="M65.7124 11.6895C62.0974 11.6895 59.2625 14.3145 59.2625 18.1395C59.2625 21.9045 62.0974 24.5895 65.7124 24.5895C69.3274 24.5895 72.1623 21.762 72.1623 18.1395C72.1623 14.3145 69.3349 11.6895 65.7124 11.6895ZM65.7124 22.0395C63.7999 22.0395 62.0973 20.3445 62.0973 18.0645C62.0973 15.7845 63.7999 14.1045 65.7124 14.1045C67.6249 14.1045 69.3349 15.5895 69.3349 18.0795C69.3349 20.5545 67.6324 22.0545 65.7124 22.0545V22.0395Z" fill="#2A2829"/>
    <path d="M96.785 12.9645C96.005 12.1845 94.8649 11.4795 93.1624 11.4795C89.9749 11.4795 87.1324 14.3145 87.1324 17.9295C87.1324 21.5445 89.9824 24.3795 93.1699 24.3795C94.6699 24.3795 96.02 23.607 96.575 22.8945H96.785V23.817C96.785 26.292 95.4349 27.567 93.3799 27.567C91.6774 27.567 90.5299 26.217 90.1849 25.302L87.7099 26.2245C88.4824 27.9345 90.3349 29.9895 93.3799 29.9895C96.785 29.9895 99.62 28.077 99.62 23.1795V11.4795H96.995V12.9645H96.785ZM93.5224 22.0395C91.6024 22.0395 90.1174 20.3445 90.1174 18.0645C90.1174 15.7845 91.5949 14.1045 93.5149 14.1045C95.4349 14.1045 96.92 15.807 96.92 18.0795C96.92 20.3445 95.4199 22.0545 93.5149 22.0545L93.5224 22.0395Z" fill="#2A2829"/>
    <path d="M79.7599 11.6895C76.1449 11.6895 73.3099 14.3145 73.3099 18.1395C73.3099 21.9045 76.1449 24.5895 79.7599 24.5895C83.3749 24.5895 86.2099 21.762 86.2099 18.1395C86.3599 14.3145 83.3074 11.6895 79.7599 11.6895ZM79.7599 22.0395C77.8474 22.0395 76.1449 20.3445 76.1449 18.0645C76.1449 15.7845 77.8474 14.1045 79.7599 14.1045C81.6724 14.1045 83.3749 15.5895 83.3749 18.0795C83.2999 20.5545 81.6049 22.0545 79.7599 22.0545V22.0395Z" fill="#2A2829"/>
    <path d="M101.675 4.87988H104.51V24.5299H101.675V4.87988Z" fill="#2A2829"/>
    <path d="M112.25 22.0472C110.75 22.0472 109.76 21.2672 109.055 20.1272L117.778 16.5122L117.425 15.7322C116.855 14.2547 115.153 11.5547 111.95 11.5547C108.553 11.5547 105.935 14.1797 105.935 18.0047C105.935 21.6272 108.77 24.4547 112.385 24.4547C115.438 24.4547 117.14 22.5497 117.845 21.6272L115.58 20.1272C114.725 21.3422 113.803 22.0547 112.243 22.0547L112.25 22.0472ZM112.1 14.0972C113.24 14.0972 114.163 14.6672 114.575 15.5972L108.695 18.0722C108.695 15.2372 110.54 14.0972 112.1 14.0972Z" fill="#2A2829"/>
    <path d="M13.5287 29.3868H2.65311C1.31751 29.3868 0.244263 28.2898 0.244263 26.9542V21.731C0.244263 20.3954 1.31751 19.3222 2.65311 19.3222H9.5219V11.6901C9.5219 10.3545 10.5952 9.28125 11.9308 9.28125H19.5628V29.3153H13.5287V29.3868Z" fill="#2A2829"/>
    <path d="M27.2187 29.3871H19.5867V2.41281C19.5867 1.07721 20.6599 0.00390625 21.9955 0.00390625H27.2187C28.5543 0.00390625 29.6275 1.07721 29.6275 2.41281V26.9544C29.556 28.29 28.4827 29.3871 27.2187 29.3871Z" fill="#2A2829"/>
    <path d="M29.5559 19.3225V26.9545C29.5559 28.2901 28.4826 29.3634 27.147 29.3634H19.515V9.25781C19.515 9.28171 29.5559 19.3225 29.5559 19.3225Z" fill="#2A2829"/>
</svg>
