<svg width="132" height="30" viewBox="0 0 132 30" fill="none" xmlns="http://www.w3.org/2000/svg">
<path d="M1.89763 13.5652L21.8541 0.391304C22.6368 -0.130435 23.8759 -0.130435 24.6585 0.391304L44.615 13.6304C45.7889 14.413 45.7889 15.7174 44.615 16.5L41.9411 18.2609C38.0281 12.0652 31.115 7.95652 23.2237 7.95652C15.3324 7.95652 8.48458 12.0652 4.50632 18.2609L1.83241 16.5C0.658496 15.6522 0.658496 14.3478 1.89763 13.5652ZM23.2237 13.4348C17.2889 13.4348 12.0715 16.5652 9.13676 21.2609L13.702 24.3261C15.6585 21.1304 19.115 18.9783 23.1585 18.9783C27.1368 18.9783 30.6585 21.1304 32.615 24.3261L37.1802 21.2609C34.3759 16.5652 29.1585 13.4348 23.2237 13.4348ZM23.2237 24.4565C21.1368 24.4565 19.3107 25.6304 18.3324 27.3261L21.3976 29.3478C21.9194 29.7391 22.5063 30 23.1585 30C23.8759 30 24.4628 29.7391 24.9194 29.3478L27.9846 27.3261C27.202 25.6957 25.3107 24.4565 23.2237 24.4565Z" fill="#2A2829"/>
<path d="M57.8541 14.9346L62.8758 22.1085H59.3541L55.5715 16.565C55.5715 18.3911 55.5715 20.2824 55.5715 22.1085H52.7019V7.89109H55.5715C55.5715 9.78239 55.5715 11.6737 55.5715 13.565L59.1584 7.89109H62.4845L57.8541 14.9346ZM67.8323 7.89109H64.9628V22.1737H72.2671V19.3041H67.7671L67.8323 7.89109ZM80.7454 7.43457L86.7454 22.1737H83.5497L82.9628 20.6085H78.2671L77.6802 22.1737H74.4193L80.4193 7.43457C80.3541 7.43457 80.7454 7.43457 80.7454 7.43457ZM81.9193 17.9346L80.615 14.2824L79.3106 17.9346H81.9193ZM90.7236 15.8476L87.7889 7.95631H84.5932L90.5932 22.6954H90.8541L96.8541 7.95631H93.5932L90.7236 15.8476ZM99.0063 22.1737H101.876V7.89109H99.0063V22.1737ZM113.224 7.89109L110.354 12.7824L107.485 7.89109H104.028L108.985 15.7172V22.1737H111.789V15.7824L116.745 7.95631H113.224V7.89109ZM131.419 14.8041C131.419 18.8476 128.093 22.1737 124.05 22.1737C120.006 22.1737 116.68 18.8476 116.68 14.8041C116.68 10.7607 120.006 7.43457 124.05 7.43457C128.093 7.43457 131.419 10.6954 131.419 14.8041ZM128.68 14.8041C128.68 12.2607 126.658 10.2389 124.115 10.2389C121.571 10.2389 119.55 12.2607 119.55 14.8041C119.55 17.3476 121.571 19.3694 124.115 19.3694C126.593 19.3694 128.68 17.2824 128.68 14.8041Z" fill="#2A2829"/>
</svg>
