<svg width="157" height="120" viewBox="0 0 157 120" fill="none" xmlns="http://www.w3.org/2000/svg">
<g clip-path="url(#clip0)">
<path d="M32.8257 0.000244459C74.8257 0 141.96 0 141.96 0C150.256 0 156.974 6.73172 157.149 14.9268C157.149 23.239 150.431 29.9708 142.135 29.9708C141.609 29.9708 141.083 29.9708 140.558 29.9122H83.5974C91.8932 29.9122 98.6116 36.6439 98.6116 44.9561C98.6116 52.9756 92.3021 59.5317 84.4153 59.9415C92.3605 60.3513 98.6116 66.9073 98.6116 74.9269C98.6116 82.7122 92.7111 89.0927 85.1748 89.9122H120.286H120.344C128.64 89.9122 135.358 96.6439 135.358 104.956C135.358 113.268 128.64 120 120.344 120C119.702 120 119.059 119.941 118.416 119.883L118.416 119.883C118.416 119.883 23.8257 120 0 119.766C0 74.9269 32.8257 59.9415 32.8257 0.000244459Z" fill="white"/>
</g>
<defs>
<clipPath id="clip0">
<rect width="157" height="120" fill="white"/>
</clipPath>
</defs>
</svg>
