<svg width="221" height="219" viewBox="0 0 221 219" fill="none" xmlns="http://www.w3.org/2000/svg">
<path d="M133.976 2.52139L134.725 2.68193L135.367 6.80241L137.829 3.43111L138.578 3.59165L135.688 7.49807L136.651 13.0634L142.805 4.60839L143.608 4.82244L136.651 14.0801L135.956 13.9196L134.992 8.0332L131.407 12.7958L130.711 12.6353L128.892 1.23709L129.695 1.45114L131.354 11.8861L134.725 7.39105L133.976 2.52139Z" fill="white"/>
<path d="M149.173 17.612L148.906 18.2542L142.27 15.7391L146.016 5.78571L152.545 8.24729L152.277 8.88944L146.551 6.74893L145.053 10.6554L150.137 12.5818L149.923 13.224L144.839 11.2975L143.287 15.418L149.173 17.612Z" fill="white"/>
<path d="M162.873 25.5318L167.421 17.5049L160.25 21.6789L159.822 21.4648L159.715 13.1704L155.167 21.1973L154.525 20.8227L159.769 11.565L160.411 11.9396L160.518 20.7692L168.117 16.3276L168.759 16.7022L163.515 25.9599L162.873 25.5318Z" fill="white"/>
<path d="M174.538 20.6623L175.074 21.0368L172.451 32.2745L171.809 31.7929L172.666 28.1005L168.545 25.1038L165.281 27.0838L164.639 26.6022L174.538 20.6623ZM172.88 27.5119L174.271 21.6255L169.08 24.7292L172.88 27.5119Z" fill="white"/>
<path d="M173.468 33.2373L180.532 25.2639L181.12 25.7456L176.839 30.5617L185.776 29.866L186.418 30.4547L179.997 30.9898L179.515 38.5351L178.873 37.9464L179.355 30.9898L176.251 31.2039L174.057 33.6654L173.468 33.2373Z" fill="white"/>
<path d="M185.722 44.1542L185.241 44.6358L180.371 39.4451L188.13 32.2209L192.893 37.3046L192.411 37.7862L188.184 33.2911L185.134 36.1273L188.826 40.0872L188.344 40.5153L184.652 36.5554L181.441 39.6056L185.722 44.1542Z" fill="white"/>
<path d="M202.525 49.987L193.803 56.0874L193.375 55.4453L197.549 52.5021L193.696 46.9903L189.522 49.9335L189.094 49.2913L197.816 43.1909L198.244 43.833L194.284 46.6157L198.137 52.1275L202.097 49.3448L202.525 49.987Z" fill="white"/>
<path d="M195.087 58.335L204.184 52.8767L204.559 53.5189L195.462 58.9772L195.087 58.335Z" fill="white"/>
<path d="M207.556 62.6696C207.93 61.7064 207.823 60.6362 207.235 59.5659C206.753 58.6562 206.218 58.0676 205.683 57.8C205.094 57.5859 204.559 57.5859 203.917 57.907C203.596 58.0676 203.382 58.2281 203.275 58.4421C203.114 58.6562 203.061 58.9238 203.007 59.1913C203.007 59.5124 203.007 59.8335 203.114 60.2616C203.221 60.6897 203.328 61.1178 203.435 61.6529C203.596 62.188 203.703 62.7232 203.81 63.2048C203.917 63.6864 203.917 64.1145 203.863 64.4891C203.81 64.8637 203.703 65.2382 203.489 65.5058C203.275 65.8269 202.954 66.0409 202.579 66.3085C202.151 66.5226 201.776 66.6296 201.348 66.6296C200.974 66.6296 200.599 66.5226 200.224 66.362C199.85 66.148 199.529 65.8804 199.208 65.5593C198.887 65.1847 198.619 64.7566 198.351 64.275C197.602 62.7767 197.388 61.3318 197.816 59.78L198.566 59.8335C198.351 60.4221 198.298 61.1178 198.351 61.8134C198.405 62.5091 198.619 63.2048 198.994 63.9539C199.422 64.7566 199.903 65.3453 200.438 65.6664C200.974 65.9874 201.562 65.9874 202.151 65.6664C202.472 65.5058 202.686 65.2918 202.847 65.0777C203.007 64.8637 203.114 64.5426 203.114 64.2215C203.114 63.9004 203.114 63.5258 203.061 63.0977C203.007 62.6696 202.847 62.188 202.74 61.5994C202.579 61.0643 202.472 60.5291 202.365 60.101C202.258 59.6729 202.258 59.2448 202.311 58.8702C202.365 58.4957 202.472 58.2281 202.686 57.9605C202.9 57.693 203.168 57.4789 203.542 57.2649C203.97 57.0508 204.398 56.9438 204.826 56.9438C205.255 56.9438 205.629 56.9973 206.004 57.2113C206.378 57.3719 206.753 57.6395 207.074 58.014C207.395 58.3886 207.716 58.7632 207.93 59.2983C208.251 59.887 208.465 60.5291 208.519 61.0643C208.572 61.6529 208.519 62.2415 208.358 62.7767L207.556 62.6696Z" fill="white"/>
<path d="M212.8 72.1947L211.302 68.6094L202.097 72.4088L201.83 71.7131L211.034 67.9137L209.536 64.3284L210.178 64.0608L213.442 71.9807L212.8 72.1947Z" fill="white"/>
<path d="M205.094 80.9172C204.88 80.2216 204.826 79.5259 204.933 78.8303C205.04 78.1346 205.308 77.546 205.629 76.9573C206.004 76.3687 206.432 75.8871 206.967 75.459C207.502 75.0309 208.144 74.7098 208.786 74.5492C209.482 74.3352 210.178 74.2817 210.873 74.3352C211.569 74.3887 212.211 74.5492 212.8 74.8168C213.388 75.0844 213.924 75.5125 214.405 75.9941C214.887 76.4757 215.208 77.0643 215.422 77.76C215.636 78.4557 215.689 79.1513 215.582 79.847C215.475 80.5427 215.208 81.1313 214.833 81.7199C214.459 82.3086 214.031 82.7902 213.495 83.1648C212.96 83.5929 212.372 83.8604 211.73 84.0745C211.034 84.2885 210.338 84.3421 209.643 84.2885C208.947 84.235 208.305 84.0745 207.716 83.8069C207.127 83.5394 206.592 83.1113 206.111 82.6296C205.629 82.2015 205.255 81.6129 205.094 80.9172ZM209 75.2984C208.412 75.459 207.877 75.7265 207.395 76.1011C206.913 76.4757 206.539 76.9038 206.218 77.3854C205.897 77.867 205.683 78.4021 205.629 78.9908C205.522 79.5794 205.576 80.1681 205.736 80.7567C205.897 81.3453 206.218 81.8805 206.646 82.3086C207.074 82.7367 207.502 83.0577 208.037 83.2718C208.572 83.4858 209.107 83.5929 209.75 83.6464C210.338 83.6999 210.927 83.5929 211.462 83.4323C212.051 83.2718 212.586 83.0042 213.067 82.6296C213.549 82.2551 213.924 81.827 214.245 81.3453C214.566 80.8637 214.78 80.3286 214.833 79.7935C214.887 79.2583 214.887 78.6697 214.726 78.0811C214.566 77.4924 214.245 76.9573 213.817 76.5292C213.388 76.1011 212.96 75.78 212.425 75.566C211.89 75.3519 211.355 75.1914 210.713 75.1914C210.124 75.0844 209.589 75.1379 209 75.2984Z" fill="white"/>
<path d="M206.913 87.4457L217.348 85.4658L218.205 89.8003C218.312 90.2284 218.258 90.6565 218.151 91.0846C218.044 91.5127 217.83 91.8873 217.616 92.2084C217.348 92.5294 217.027 92.797 216.706 93.0646C216.332 93.2786 215.957 93.4391 215.583 93.4927C215.208 93.5462 214.833 93.5997 214.459 93.5462C214.084 93.4927 213.71 93.3856 213.388 93.2251C213.067 93.0646 212.8 92.8505 212.532 92.5829C212.265 92.3154 212.104 91.9943 211.997 91.6732L208.412 95.0445L208.251 94.1883L211.73 90.924L211.087 87.5527L207.128 88.3019L206.913 87.4457ZM211.73 87.2852L212.425 90.924C212.479 91.2451 212.639 91.5662 212.8 91.7803C213.014 92.0478 213.228 92.2084 213.496 92.3689C213.763 92.5294 214.084 92.6365 214.405 92.6365C214.726 92.6365 215.047 92.69 215.368 92.5829C215.69 92.5294 216.011 92.4224 216.278 92.2084C216.546 92.0478 216.813 91.8338 216.974 91.5662C217.188 91.2986 217.295 91.0311 217.402 90.71C217.509 90.3889 217.509 90.0678 217.455 89.7468L216.76 86.1614L211.73 87.2852Z" fill="white"/>
<path d="M219.114 95.1517L213.603 99.4327L219.81 102.59L219.917 103.446L212.907 99.9143L208.893 100.289L208.84 99.5397L212.853 99.1651L219.007 94.349L219.114 95.1517Z" fill="white"/>
<path d="M219.864 113.721L219.81 114.47L215.85 115.808L219.596 117.627L219.543 118.376L215.154 116.236L209.857 118.162L219.328 122.818L219.275 123.674L208.947 118.483L209.001 117.788L214.619 115.754L209.322 113.079L209.375 112.383L220.238 108.476L220.185 109.279L210.231 112.811L215.262 115.326L219.864 113.721Z" fill="white"/>
<path d="M208.251 124.316L218.74 125.921L218.633 126.671L208.144 125.065L208.251 124.316Z" fill="white"/>
<path d="M215.904 137.052L216.76 133.253L207.021 131.112L207.181 130.363L216.92 132.504L217.777 128.704L218.472 128.865L216.653 137.213L215.904 137.052Z" fill="white"/>
<path d="M213.335 147.433L203.221 144.169L203.435 143.42L208.305 144.972L210.392 138.604L205.522 137.052L205.736 136.303L215.85 139.567L215.636 140.316L211.034 138.818L208.947 145.186L213.549 146.684L213.335 147.433Z" fill="white"/>
<path d="M198.672 154.122C198.994 153.48 199.475 152.945 200.01 152.517C200.545 152.089 201.134 151.821 201.83 151.661C202.525 151.5 203.114 151.447 203.81 151.554C204.505 151.607 205.148 151.821 205.736 152.142C206.378 152.464 206.913 152.892 207.395 153.427C207.877 153.962 208.198 154.497 208.465 155.139C208.733 155.781 208.84 156.423 208.84 157.066C208.84 157.761 208.679 158.403 208.358 159.046C208.037 159.688 207.556 160.223 207.02 160.651C206.485 161.079 205.843 161.347 205.201 161.507C204.559 161.668 203.863 161.721 203.221 161.614C202.525 161.561 201.883 161.347 201.295 161.079C200.652 160.758 200.117 160.33 199.636 159.795C199.154 159.26 198.833 158.725 198.565 158.082C198.298 157.44 198.191 156.798 198.244 156.156C198.298 155.514 198.351 154.765 198.672 154.122ZM205.415 152.838C204.88 152.571 204.291 152.41 203.703 152.303C203.114 152.249 202.525 152.249 201.99 152.41C201.455 152.571 200.92 152.785 200.438 153.159C199.957 153.48 199.582 153.962 199.315 154.497C199.047 155.086 198.887 155.621 198.887 156.209C198.887 156.798 198.994 157.333 199.261 157.868C199.475 158.403 199.796 158.885 200.224 159.313C200.652 159.741 201.081 160.116 201.616 160.33C202.151 160.597 202.739 160.758 203.328 160.865C203.917 160.919 204.505 160.919 205.04 160.758C205.576 160.597 206.111 160.383 206.592 160.062C207.074 159.741 207.449 159.26 207.716 158.725C207.984 158.136 208.144 157.601 208.144 157.012C208.144 156.423 208.037 155.888 207.77 155.353C207.556 154.818 207.235 154.336 206.806 153.908C206.378 153.427 205.897 153.106 205.415 152.838Z" fill="white"/>
<path d="M193.749 164.076C193.375 164.665 193.161 165.253 193.107 165.788C193.054 166.323 193.161 166.859 193.375 167.287C193.589 167.768 193.91 168.196 194.285 168.571C194.713 168.999 195.141 169.32 195.622 169.641L200.117 172.584L199.689 173.227L195.194 170.283C194.606 169.909 194.071 169.481 193.642 168.999C193.161 168.517 192.84 167.982 192.626 167.447C192.412 166.859 192.305 166.27 192.412 165.681C192.465 165.039 192.733 164.397 193.161 163.701C193.642 163.006 194.124 162.471 194.713 162.149C195.301 161.828 195.89 161.668 196.479 161.668C197.067 161.668 197.709 161.775 198.298 161.989C198.887 162.203 199.529 162.524 200.064 162.899L204.559 165.842L204.131 166.484L199.636 163.541C199.154 163.22 198.619 162.952 198.084 162.738C197.549 162.524 197.014 162.417 196.532 162.417C196.051 162.417 195.515 162.524 195.034 162.792C194.606 163.059 194.178 163.487 193.749 164.076Z" fill="white"/>
<path d="M189.361 169.32L197.602 176.009L194.82 179.434C194.552 179.809 194.177 180.023 193.803 180.237C193.428 180.397 193 180.504 192.572 180.504C192.144 180.504 191.769 180.451 191.341 180.344C190.913 180.237 190.592 180.023 190.271 179.755C189.95 179.488 189.736 179.22 189.522 178.899C189.308 178.578 189.147 178.257 189.094 177.882C188.987 177.508 188.987 177.187 189.04 176.812C189.094 176.438 189.201 176.116 189.415 175.795L184.545 175.26L185.08 174.565L189.843 175.1L192.037 172.424L188.933 169.909L189.361 169.32ZM192.572 172.852L190.218 175.742C190.003 176.009 189.843 176.277 189.789 176.598C189.736 176.919 189.736 177.24 189.789 177.508C189.843 177.775 189.95 178.096 190.164 178.417C190.325 178.685 190.539 178.953 190.806 179.167C191.074 179.381 191.341 179.541 191.662 179.648C191.983 179.755 192.305 179.809 192.626 179.755C192.947 179.755 193.268 179.648 193.535 179.541C193.803 179.434 194.07 179.22 194.284 178.953L196.586 176.116L192.572 172.852Z" fill="white"/>
<path d="M180.318 179.648L187.595 187.408L184.385 190.404C184.064 190.725 183.689 190.939 183.261 191.046C182.833 191.153 182.458 191.207 182.03 191.153C181.602 191.1 181.227 190.993 180.853 190.832C180.478 190.672 180.157 190.404 179.89 190.137C179.622 189.816 179.354 189.495 179.194 189.066C179.033 188.692 178.926 188.264 178.926 187.889C178.926 187.515 178.98 187.087 179.14 186.712C179.301 186.337 179.515 185.963 179.836 185.695L182.565 183.18L179.836 180.237L180.318 179.648ZM182.993 183.662L180.318 186.177C180.05 186.391 179.89 186.658 179.783 186.979C179.676 187.301 179.622 187.568 179.676 187.889C179.676 188.21 179.783 188.531 179.943 188.799C180.104 189.066 180.264 189.388 180.478 189.602C180.692 189.869 181.013 190.083 181.281 190.19C181.602 190.351 181.923 190.404 182.244 190.458C182.565 190.511 182.886 190.458 183.154 190.351C183.475 190.244 183.743 190.083 183.957 189.869L186.579 187.408L182.993 183.662Z" fill="white"/>
<path d="M178.07 195.809L177.535 196.237L167.421 190.618L168.063 190.136L171.381 192.009L175.395 188.905L174.431 185.213L175.074 184.732L178.07 195.809ZM171.97 192.33L177.214 195.274L175.662 189.441L171.97 192.33Z" fill="white"/>
<path d="M166.297 191.314L172.023 200.304L168.277 202.659C167.903 202.926 167.475 203.033 167.1 203.087C166.672 203.14 166.244 203.087 165.869 202.98C165.495 202.873 165.12 202.659 164.746 202.445C164.371 202.23 164.103 201.909 163.889 201.588C163.675 201.267 163.515 200.893 163.461 200.518C163.354 200.143 163.354 199.769 163.354 199.394C163.408 199.02 163.461 198.699 163.622 198.378C163.782 198.057 163.996 197.789 164.264 197.521L159.822 195.434L160.572 194.953L164.906 196.986L167.796 195.113L165.655 191.742L166.297 191.314ZM168.17 195.702L165.013 197.682C164.746 197.842 164.532 198.11 164.371 198.378C164.21 198.645 164.103 198.966 164.103 199.287C164.05 199.608 164.103 199.929 164.157 200.251C164.21 200.572 164.371 200.893 164.532 201.16C164.692 201.428 164.96 201.695 165.227 201.909C165.495 202.123 165.816 202.23 166.083 202.338C166.405 202.445 166.726 202.445 167.047 202.445C167.368 202.391 167.689 202.338 167.956 202.123L171.007 200.197L168.17 195.702Z" fill="white"/>
<path d="M156.29 208.491L159.769 206.725L155.22 197.896L155.916 197.521L160.464 206.351L163.943 204.585L164.264 205.174L156.665 209.08L156.29 208.491Z" fill="white"/>
<path d="M153.133 209.027L149.762 200.465L150.458 200.197L154.311 210.097L153.775 210.311L143.394 204.318L146.819 213.04L146.123 213.308L142.27 203.408L142.912 203.14L153.133 209.027Z" fill="white"/>
<path d="M133.227 206.672L133.066 206.03L139.916 204.157L142.752 214.431L136.063 216.304L135.902 215.662L141.842 214.003L140.665 209.883L135.474 211.327L135.314 210.685L140.504 209.24L139.327 204.959L133.227 206.672Z" fill="white"/>
<path d="M131.247 206.404L133.119 216.893L128.785 217.642C128.357 217.696 127.929 217.696 127.501 217.589C127.073 217.482 126.751 217.268 126.377 217C126.056 216.732 125.788 216.411 125.574 216.09C125.36 215.716 125.2 215.341 125.146 214.967C125.093 214.592 125.093 214.217 125.146 213.843C125.2 213.468 125.307 213.094 125.467 212.772C125.628 212.451 125.842 212.184 126.109 211.916C126.377 211.649 126.698 211.488 127.073 211.381L123.755 207.796L124.611 207.635L127.875 211.114L131.247 210.525L130.551 206.565L131.247 206.404ZM131.3 211.221L127.608 211.863C127.287 211.916 126.966 212.023 126.751 212.237C126.484 212.451 126.323 212.665 126.163 212.933C126.002 213.201 125.895 213.522 125.842 213.843C125.788 214.164 125.788 214.485 125.842 214.806C125.895 215.127 126.002 215.448 126.216 215.716C126.377 215.983 126.591 216.251 126.858 216.465C127.126 216.679 127.394 216.786 127.715 216.893C128.036 217 128.357 217 128.678 216.946L132.263 216.304L131.3 211.221Z" fill="white"/>
<path d="M116.424 217.321C117.173 218.017 118.19 218.338 119.42 218.231C120.437 218.124 121.186 217.91 121.614 217.428C122.043 217 122.257 216.465 122.203 215.769C122.15 215.448 122.096 215.181 121.935 214.967C121.775 214.752 121.614 214.592 121.347 214.431C121.079 214.271 120.758 214.164 120.33 214.11C119.956 214.057 119.474 213.95 118.885 213.896C118.297 213.843 117.761 213.736 117.28 213.629C116.798 213.522 116.37 213.361 116.049 213.201C115.728 213.04 115.46 212.772 115.246 212.451C115.032 212.13 114.925 211.756 114.872 211.274C114.818 210.793 114.872 210.364 115.032 210.043C115.193 209.669 115.407 209.348 115.728 209.08C116.049 208.813 116.424 208.598 116.852 208.438C117.28 208.277 117.815 208.17 118.404 208.117C120.063 207.956 121.507 208.384 122.738 209.348L122.364 209.99C121.882 209.562 121.293 209.241 120.651 209.027C120.009 208.813 119.26 208.706 118.457 208.813C117.547 208.866 116.798 209.134 116.317 209.508C115.835 209.883 115.621 210.418 115.675 211.114C115.728 211.488 115.782 211.756 115.942 211.97C116.103 212.184 116.317 212.398 116.638 212.558C116.959 212.719 117.28 212.826 117.708 212.933C118.136 213.04 118.618 213.094 119.206 213.201C119.795 213.254 120.277 213.361 120.758 213.468C121.24 213.575 121.561 213.682 121.882 213.896C122.203 214.057 122.417 214.324 122.631 214.592C122.792 214.859 122.899 215.234 122.952 215.662C123.006 216.144 122.952 216.572 122.792 216.946C122.631 217.321 122.417 217.642 122.096 217.963C121.775 218.231 121.4 218.445 120.972 218.659C120.544 218.819 120.009 218.926 119.474 218.98C118.778 219.033 118.19 218.98 117.601 218.819C117.066 218.659 116.531 218.391 116.049 218.017L116.424 217.321Z" fill="white"/>
<path d="M108.932 212.451L108.878 213.147L97.5336 212.398L97.5871 211.702L108.932 212.451Z" fill="white"/>
<path d="M85.6004 216.358L84.8512 216.197L84.2626 212.077L81.7475 215.448L80.9983 215.288L83.9415 211.381L83.0318 205.816L76.7708 214.164L75.9681 213.95L82.9783 204.746L83.674 204.906L84.5837 210.793L88.2225 206.084L88.9182 206.244L90.6841 217.696L89.8814 217.482L88.3296 207.047L84.9048 211.542L85.6004 216.358Z" fill="white"/>
<path d="M70.5632 201.053L70.8308 200.411L77.4128 202.98L73.5599 212.88L67.0849 210.364L67.3525 209.722L73.1318 211.97L74.6302 208.063L69.6 206.083L69.814 205.495L74.8442 207.475L76.4496 203.354L70.5632 201.053Z" fill="white"/>
<path d="M56.9176 193.026L52.3155 201L59.5397 196.879L59.9678 197.093L60.0213 205.388L64.6234 197.414L65.2655 197.789L59.9143 206.993L59.2721 206.618V197.789L51.6198 202.123L50.9777 201.749L56.3289 192.545L56.9176 193.026Z" fill="white"/>
<path d="M45.1982 197.735L44.663 197.361L47.3922 186.123L48.0343 186.605L47.1246 190.297L51.1916 193.347L54.4558 191.421L55.098 191.903L45.1982 197.735ZM46.9641 190.939L45.5192 196.772L50.7635 193.722L46.9641 190.939Z" fill="white"/>
<path d="M46.4291 185.214L39.3119 193.08L38.7232 192.545L43.0578 187.782L34.1212 188.424L33.479 187.836L39.9005 187.354L40.4892 179.809L41.1313 180.397L40.5962 187.354L43.6999 187.14L45.8939 184.732L46.4291 185.214Z" fill="white"/>
<path d="M34.3353 174.136L34.8169 173.654L39.633 178.899L31.8202 186.123L27.1111 180.986L27.5927 180.504L31.7667 185.053L34.8704 182.217L31.2316 178.257L31.7132 177.828L35.352 181.788L38.6163 178.792L34.3353 174.136Z" fill="white"/>
<path d="M17.5858 168.09L26.3618 162.096L26.7899 162.738L22.6159 165.628L26.4153 171.14L30.5893 168.25L31.0174 168.892L22.2414 174.886L21.8133 174.244L25.8267 171.515L21.9738 166.003L17.9603 168.732L17.5858 168.09Z" fill="white"/>
<path d="M25.0775 159.849L15.8734 165.2L15.4988 164.558L24.703 159.206L25.0775 159.849Z" fill="white"/>
<path d="M12.609 155.407C12.2344 156.37 12.3414 157.387 12.8766 158.511C13.3582 159.42 13.8398 160.009 14.4284 160.276C15.0171 160.544 15.5522 160.491 16.1944 160.169C16.5154 160.009 16.7295 159.848 16.89 159.634C17.0506 159.42 17.1041 159.153 17.1576 158.885C17.2111 158.618 17.1576 158.243 17.1041 157.815C17.0506 157.44 16.9435 156.959 16.783 156.424C16.6225 155.835 16.5154 155.353 16.4619 154.872C16.4084 154.39 16.3549 153.962 16.4084 153.587C16.4619 153.213 16.5689 152.838 16.783 152.571C16.997 152.25 17.3181 152.036 17.7462 151.821C18.1743 151.607 18.5489 151.5 18.977 151.5C19.3516 151.5 19.7262 151.607 20.1008 151.821C20.4754 152.036 20.7964 152.303 21.1175 152.678C21.4386 153.052 21.7062 153.48 21.9737 153.962C22.7229 155.46 22.8834 156.959 22.4553 158.457L21.7062 158.35C21.9202 157.761 22.0272 157.066 21.9737 156.37C21.9202 155.674 21.7062 154.979 21.3316 154.23C20.9035 153.427 20.4219 152.838 19.8867 152.517C19.3516 152.196 18.763 152.196 18.1743 152.517C17.8533 152.678 17.6392 152.892 17.4787 153.106C17.3181 153.32 17.2111 153.641 17.2111 153.962C17.1576 154.283 17.2111 154.658 17.2646 155.086C17.3181 155.514 17.4252 155.995 17.5857 156.584C17.7462 157.173 17.8533 157.654 17.9068 158.082C17.9603 158.511 18.0138 158.939 17.9603 159.313C17.9068 159.688 17.7997 159.955 17.5857 160.223C17.3716 160.491 17.1041 160.705 16.7295 160.919C16.3014 161.133 15.8733 161.24 15.4452 161.24C15.0171 161.24 14.6425 161.133 14.2679 160.972C13.8933 160.812 13.5187 160.544 13.1977 160.169C12.8766 159.795 12.609 159.367 12.3414 158.885C12.0204 158.243 11.8598 157.654 11.8063 157.119C11.7528 156.531 11.8063 155.942 11.9669 155.407H12.609Z" fill="white"/>
<path d="M7.52521 145.828L8.97005 149.467L18.2277 145.775L18.4953 146.47L9.23761 150.163L10.6825 153.801L10.0403 154.069L6.88306 146.096L7.52521 145.828Z" fill="white"/>
<path d="M15.3381 137.159C15.5521 137.855 15.6057 138.551 15.4451 139.246C15.3381 139.942 15.0705 140.53 14.6959 141.119C14.3214 141.654 13.8933 142.189 13.3046 142.564C12.7695 142.992 12.1273 143.26 11.4852 143.474C10.7895 143.688 10.0939 143.741 9.39819 143.688C8.70253 143.634 8.06037 143.474 7.47174 143.153C6.8831 142.885 6.34797 142.457 5.86636 141.975C5.43825 141.494 5.06367 140.905 4.90313 140.209C4.68908 139.514 4.63556 138.818 4.7961 138.122C4.90313 137.427 5.17069 136.838 5.54528 136.249C5.91987 135.661 6.34797 135.179 6.93661 134.805C7.47174 134.377 8.06037 134.109 8.70253 133.895C9.39819 133.681 10.0939 133.627 10.7895 133.681C11.4852 133.734 12.1273 133.895 12.716 134.216C13.3046 134.484 13.8397 134.912 14.2678 135.393C14.803 135.928 15.124 136.517 15.3381 137.159ZM11.3246 142.724C11.9133 142.564 12.4484 142.296 12.93 141.922C13.4116 141.547 13.8397 141.173 14.1073 140.691C14.4284 140.209 14.6424 139.674 14.7495 139.139C14.8565 138.551 14.803 137.962 14.6424 137.373C14.4819 136.785 14.1608 136.249 13.7862 135.821C13.3581 135.393 12.93 135.072 12.3949 134.858C11.8598 134.644 11.3246 134.484 10.736 134.484C10.1474 134.43 9.55873 134.484 9.0236 134.698C8.43496 134.858 7.89984 135.126 7.41822 135.5C6.93661 135.875 6.56202 136.303 6.24094 136.785C5.91987 137.266 5.70582 137.801 5.59879 138.336C5.49177 138.872 5.54528 139.46 5.70582 140.049C5.86636 140.638 6.18743 141.173 6.56202 141.601C6.99012 142.029 7.41822 142.35 7.95335 142.564C8.48848 142.778 9.0236 142.939 9.61224 142.939C10.2009 142.939 10.7895 142.885 11.3246 142.724Z" fill="white"/>
<path d="M13.5722 130.631L3.08369 132.504L2.281 128.169C2.22749 127.741 2.22749 127.313 2.33451 126.885C2.44154 126.457 2.65559 126.136 2.92315 125.761C3.19071 125.44 3.51179 125.172 3.83287 124.958C4.20746 124.744 4.58204 124.584 4.95663 124.53C5.33122 124.477 5.70581 124.477 6.0804 124.53C6.45499 124.584 6.82958 124.691 7.15065 124.851C7.47173 125.012 7.73929 125.226 8.00685 125.494C8.27442 125.761 8.43496 126.082 8.54198 126.457L12.1273 123.139L12.2879 123.995L8.80954 127.259L9.39818 130.631L13.3581 129.935L13.5722 130.631ZM8.75603 130.738L8.11388 127.045C8.06037 126.724 7.89983 126.403 7.73929 126.189C7.52524 125.922 7.31119 125.761 7.04363 125.601C6.77606 125.44 6.45499 125.333 6.13391 125.279C5.81283 125.226 5.49176 125.226 5.17068 125.279C4.84961 125.333 4.52853 125.44 4.26097 125.654C3.9934 125.815 3.72584 126.029 3.51179 126.296C3.29774 126.564 3.19071 126.831 3.08369 127.152C2.97666 127.473 2.97666 127.795 3.03018 128.116L3.67233 131.701L8.75603 130.738Z" fill="white"/>
<path d="M1.47838 122.818L7.04369 118.59L0.836227 115.379L0.782715 114.523L7.73936 118.109L11.7528 117.788L11.8063 118.537L7.79287 118.911L1.53189 123.674L1.47838 122.818Z" fill="white"/>
<path d="M0.889771 104.249L0.943284 103.5L4.90322 102.162L1.15733 100.289L1.21085 99.5397L5.54537 101.734L10.8966 99.8608L1.47841 95.1517L1.53192 94.2955L11.8064 99.5932L11.7528 100.289L6.13401 102.269L11.4318 104.998L11.3783 105.694L0.46167 109.493L0.515183 108.69L10.522 105.266L5.49186 102.697L0.889771 104.249Z" fill="white"/>
<path d="M12.6089 93.7602L2.12042 92.0478L2.22745 91.2986L12.7159 93.011L12.6089 93.7602Z" fill="white"/>
<path d="M5.11731 80.9176L4.26111 84.717L13.9469 86.9645L13.7864 87.7137L4.10057 85.4662L3.24437 89.2656L2.54871 89.105L4.47516 80.7571L5.11731 80.9176Z" fill="white"/>
<path d="M7.73941 70.5897L17.7998 74.0145L17.5322 74.7636L12.7161 73.1583L10.5756 79.5263L15.3917 81.1317L15.1242 81.8808L5.06378 78.456L5.33135 77.7068L9.93343 79.2587L12.0739 72.8907L7.47185 71.3388L7.73941 70.5897Z" fill="white"/>
<path d="M22.509 64.0073C22.1879 64.6495 21.7063 65.1846 21.1712 65.6127C20.636 65.9873 19.9939 66.3084 19.3517 66.4689C18.7096 66.6295 18.0139 66.683 17.3718 66.576C16.6761 66.4689 16.0339 66.3084 15.4453 65.9873C14.8031 65.6662 14.268 65.2381 13.7864 64.703C13.3048 64.1679 12.9837 63.5792 12.7162 62.9906C12.5021 62.3485 12.3951 61.7063 12.3951 61.0642C12.3951 60.3685 12.6091 59.7263 12.9302 59.0842C13.2513 58.442 13.7329 57.9069 14.268 57.4788C14.8031 57.0507 15.4453 56.7831 16.0875 56.6761C16.7296 56.5691 17.4253 56.5156 18.0674 56.5691C18.7631 56.6761 19.4052 56.8367 19.9939 57.1577C20.636 57.4788 21.1712 57.9069 21.6528 58.442C22.1344 58.9772 22.4555 59.5658 22.6695 60.1544C22.8836 60.7966 22.9906 61.4387 22.9906 62.0809C22.9906 62.723 22.83 63.4187 22.509 64.0073ZM15.7664 65.2917C16.3015 65.5592 16.8901 65.7733 17.4788 65.8268C18.0674 65.8803 18.6561 65.8803 19.1912 65.7198C19.7263 65.6127 20.2614 65.3452 20.7431 65.0241C21.2247 64.703 21.5993 64.2214 21.8668 63.6863C22.1879 63.0976 22.2949 62.5625 22.2949 61.9739C22.2949 61.3852 22.1879 60.8501 21.9738 60.315C21.7598 59.7798 21.4387 59.2982 21.0106 58.8701C20.5825 58.442 20.1544 58.0674 19.6193 57.7999C19.0842 57.5323 18.4955 57.3183 17.9069 57.2648C17.3182 57.2112 16.7296 57.2112 16.1945 57.3718C15.6594 57.4788 15.1242 57.7464 14.6426 58.0674C14.161 58.3885 13.7864 58.8166 13.5188 59.3517C13.1978 59.9404 13.0907 60.4755 13.0907 61.0642C13.0907 61.6528 13.1978 62.1879 13.4118 62.723C13.6259 63.2582 13.9469 63.7398 14.375 64.1679C14.8031 64.6495 15.2848 65.0241 15.7664 65.2917Z" fill="white"/>
<path d="M27.539 54.1608C27.9136 53.5722 28.1812 52.9836 28.1812 52.4484C28.2347 51.9133 28.1276 51.3782 27.9136 50.8966C27.6995 50.415 27.3785 49.9869 27.0039 49.5588C26.6293 49.1307 26.1477 48.8096 25.7196 48.4885L21.278 45.4918L21.7061 44.8496L26.1477 47.8463C26.7363 48.2209 27.2714 48.7025 27.6995 49.1842C28.1276 49.6658 28.5022 50.2009 28.7163 50.7895C28.9303 51.3782 28.9838 51.9668 28.9303 52.5555C28.8768 53.1441 28.6093 53.8398 28.1276 54.5354C27.646 55.2311 27.1109 55.7662 26.5758 56.0338C25.9871 56.3549 25.3985 56.5154 24.8099 56.5154C24.2212 56.5154 23.5791 56.4084 22.9904 56.1943C22.4018 55.9803 21.8131 55.6592 21.2245 55.2846L16.783 52.2879L17.2111 51.6457L21.6526 54.6425C22.1342 54.9635 22.6694 55.2311 23.2045 55.4451C23.7396 55.6592 24.2747 55.7662 24.7563 55.7662C25.2915 55.7662 25.7731 55.6592 26.2547 55.3916C26.7363 55.1241 27.1644 54.7495 27.539 54.1608Z" fill="white"/>
<path d="M31.9806 48.9703L23.7932 42.1742L26.6293 38.7494C26.8969 38.4283 27.2715 38.1607 27.6461 38.0002C28.0207 37.8397 28.4488 37.7326 28.8769 37.7326C29.305 37.7326 29.6795 37.7861 30.1076 37.8932C30.5357 38.0002 30.8568 38.2142 31.1779 38.4818C31.499 38.7494 31.713 39.0169 31.9271 39.338C32.1411 39.6591 32.2482 39.9802 32.3552 40.3548C32.4622 40.7293 32.4622 41.0504 32.4087 41.425C32.3552 41.7996 32.2482 42.1207 32.0341 42.4417L36.9038 43.0304L36.3151 43.7261L31.606 43.1374L29.412 45.813L32.5157 48.3817L31.9806 48.9703ZM28.8233 45.3849L31.2314 42.4953C31.4455 42.2277 31.606 41.9601 31.6595 41.6391C31.713 41.318 31.713 40.9969 31.6595 40.7293C31.606 40.4083 31.499 40.1407 31.2849 39.8196C31.1244 39.5521 30.9103 39.2845 30.6428 39.0705C30.3752 38.8564 30.1076 38.6959 29.7866 38.5888C29.4655 38.4818 29.1444 38.4283 28.8233 38.4283C28.5023 38.4283 28.1812 38.5353 27.9136 38.6423C27.6461 38.7494 27.3785 38.9634 27.1645 39.231L24.8634 42.0136L28.8233 45.3849Z" fill="white"/>
<path d="M41.1313 38.6958L33.9606 30.8294L37.1713 27.8862C37.4924 27.5651 37.867 27.3511 38.2951 27.244C38.7232 27.137 39.0978 27.0835 39.5259 27.137C39.954 27.1905 40.3286 27.2976 40.7032 27.5116C41.0778 27.6721 41.3988 27.9397 41.6664 28.2073C41.934 28.5283 42.2015 28.9029 42.3621 29.2775C42.5226 29.6521 42.6296 30.0802 42.6296 30.4548C42.6296 30.8294 42.5761 31.2575 42.4156 31.6321C42.255 32.0067 42.041 32.3813 41.7199 32.6488L38.9908 35.2174L41.7199 38.1606L41.1313 38.6958ZM38.5091 34.6823L41.2383 32.2207C41.5059 32.0067 41.6664 31.7391 41.7734 31.418C41.8804 31.097 41.934 30.8294 41.8804 30.5083C41.8804 30.1872 41.7734 29.8662 41.6664 29.5986C41.5059 29.2775 41.3453 29.01 41.1313 28.7424C40.9172 28.4748 40.6497 28.2608 40.3286 28.1538C40.0075 27.9932 39.6864 27.9397 39.3653 27.8862C39.0443 27.8327 38.7232 27.8862 38.4021 27.9932C38.081 28.1002 37.8135 28.2608 37.5994 28.4748L34.9773 30.8829L38.5091 34.6823Z" fill="white"/>
<path d="M43.5929 22.5886L44.128 22.214L54.1349 27.9398L53.4927 28.4215L50.175 26.5485L46.1615 29.6522L47.1247 33.3446L46.4826 33.8262L43.5929 22.5886ZM49.6398 26.1739L44.3956 23.1237L45.8939 29.0101L49.6398 26.1739Z" fill="white"/>
<path d="M55.3121 27.1907L49.6932 18.147L53.4391 15.7925C53.8137 15.5784 54.2418 15.4179 54.6699 15.3644C55.098 15.3109 55.5261 15.3644 55.9007 15.4714C56.2753 15.5784 56.6499 15.7925 57.0245 16.06C57.3455 16.3276 57.6131 16.5952 57.8272 16.9698C58.0412 17.2908 58.2017 17.6654 58.2553 18.04C58.3623 18.4146 58.3623 18.7892 58.3623 19.1638C58.3088 19.5384 58.2553 19.8594 58.0412 20.1805C57.8807 20.5016 57.6666 20.7692 57.3991 21.0367L61.8406 23.1772L61.0914 23.6588L56.8104 21.6254L53.8672 23.4448L56.0077 26.8696L55.3121 27.1907ZM53.4926 22.7491L56.6499 20.7692C56.9174 20.6086 57.185 20.3411 57.3455 20.0735C57.5061 19.8059 57.6131 19.4849 57.6666 19.2173C57.7201 18.8962 57.6666 18.5751 57.6131 18.2541C57.5596 17.933 57.3991 17.6119 57.2385 17.3443C57.078 17.0768 56.8104 16.8092 56.5429 16.5952C56.2753 16.3811 55.9542 16.2741 55.6867 16.1671C55.3656 16.06 55.0445 16.06 54.7234 16.06C54.4024 16.1136 54.0813 16.1671 53.8137 16.3811L50.71 18.3076L53.4926 22.7491Z" fill="white"/>
<path d="M65.4795 10.1734L62.0012 11.8858L66.4427 20.7689L65.7471 21.09L61.3055 12.2069L57.8272 13.9728L57.5061 13.3307L65.1584 9.47775L65.4795 10.1734Z" fill="white"/>
<path d="M68.6902 9.63866L71.9545 18.2542L71.2588 18.5218L67.5129 8.56841L68.0481 8.35436L78.3225 14.4548L75.0047 5.67873L75.7004 5.41116L79.4463 15.3645L78.8041 15.6321L68.6902 9.63866Z" fill="white"/>
<path d="M88.5435 12.2071L88.7041 12.8492L81.8545 14.6686L79.1253 4.39421L85.8679 2.6283L86.0284 3.27045L80.035 4.87583L81.1053 8.94279L86.3495 7.55146L86.5101 8.19361L81.2658 9.58494L82.3896 13.866L88.5435 12.2071Z" fill="white"/>
<path d="M90.5235 12.4748L88.7576 1.98632L93.0922 1.23715C93.5203 1.18363 93.9484 1.18363 94.3765 1.29066C94.8046 1.39768 95.1256 1.61173 95.4467 1.8793C95.7678 2.14686 96.0353 2.46794 96.2494 2.84253C96.4635 3.21711 96.624 3.5917 96.6775 3.96629C96.731 4.34088 96.731 4.71547 96.6775 5.09006C96.624 5.46465 96.517 5.83923 96.3564 6.16031C96.1959 6.48139 95.9818 6.74895 95.7143 7.01651C95.4467 7.28408 95.1256 7.44461 94.751 7.55164L98.0688 11.1905L97.2126 11.351L94.0019 7.8192L90.5771 8.40784L91.2192 12.3678L90.5235 12.4748ZM90.5235 7.71218L94.2159 7.12354C94.537 7.07003 94.8581 6.963 95.0721 6.74895C95.3397 6.5349 95.5537 6.32085 95.6608 6.05328C95.8213 5.78572 95.9283 5.46464 95.9818 5.14357C96.0353 4.82249 96.0353 4.50142 95.9818 4.18034C95.9283 3.85927 95.8213 3.53819 95.6608 3.21711C95.5002 2.94955 95.2862 2.68199 95.0186 2.46794C94.751 2.25389 94.4835 2.09335 94.1624 2.03984C93.8413 1.93281 93.5203 1.93281 93.1992 1.98632L89.6138 2.57496L90.5235 7.71218Z" fill="white"/>
<path d="M105.454 1.77213C104.704 1.07647 103.688 0.755389 102.457 0.808902C101.44 0.862414 100.691 1.12998 100.263 1.55808C99.8348 1.98618 99.6208 2.52131 99.6743 3.21697C99.6743 3.53805 99.7813 3.85912 99.9418 4.07317C100.102 4.28722 100.263 4.44776 100.53 4.6083C100.798 4.76884 101.119 4.87586 101.547 4.92938C101.922 5.0364 102.403 5.08991 102.992 5.19694C103.581 5.25045 104.116 5.35748 104.544 5.4645C104.972 5.57153 105.4 5.73207 105.775 5.94612C106.096 6.16017 106.363 6.37422 106.577 6.69529C106.791 7.01637 106.898 7.39096 106.898 7.87257C106.952 8.35419 106.845 8.78229 106.738 9.10336C106.577 9.47795 106.363 9.79903 106.042 10.0131C105.721 10.2271 105.347 10.4947 104.865 10.6552C104.437 10.8158 103.902 10.9228 103.313 10.9228C101.654 11.0298 100.209 10.6017 98.9786 9.63849L99.3532 8.99634C99.8348 9.42444 100.423 9.74551 101.066 10.0131C101.708 10.2806 102.457 10.3342 103.26 10.2806C104.169 10.2271 104.919 10.0131 105.4 9.63849C105.882 9.2639 106.096 8.72877 106.096 8.03311C106.096 7.65852 105.989 7.39096 105.828 7.17691C105.668 6.96286 105.454 6.74881 105.186 6.58827C104.919 6.42773 104.544 6.3207 104.116 6.21368C103.688 6.10665 103.206 5.99963 102.617 5.94612C102.029 5.8926 101.547 5.78558 101.066 5.67855C100.638 5.57153 100.263 5.41099 99.9418 5.25045C99.6208 5.08991 99.4067 4.82235 99.2462 4.55479C99.0856 4.28722 98.9786 3.91264 98.9251 3.48453C98.8716 3.00292 98.9251 2.57482 99.0856 2.20023C99.2462 1.82564 99.4602 1.50457 99.7813 1.18349C100.102 0.915927 100.477 0.701876 100.905 0.541338C101.333 0.380801 101.868 0.273775 102.403 0.220263C103.099 0.16675 103.688 0.220263 104.276 0.380801C104.811 0.541338 105.347 0.808902 105.828 1.18349L105.454 1.77213Z" fill="white"/>
<path d="M112.892 6.69539L112.945 5.99973L124.29 6.90944L124.236 7.6051L112.892 6.69539Z" fill="white"/>
</svg>
