<svg width="108" height="108" viewBox="0 0 108 108" fill="none" xmlns="http://www.w3.org/2000/svg">
    <path d="M55.2205 18.9592C55.1179 19.2886 54.9721 19.5802 54.7723 19.834C54.5725 20.0932 54.3295 20.3038 54.0433 20.4712C53.7571 20.6386 53.4277 20.7304 53.0659 20.752L50.3389 20.9086L50.5171 24.0136L49.6855 24.0622L49.1995 15.6436L52.6879 15.4438C53.0497 15.4222 53.3899 15.4816 53.7031 15.6166C54.0163 15.7516 54.2917 15.9406 54.5293 16.1782C54.7669 16.4158 54.9559 16.6858 55.1017 16.9936C55.2475 17.3014 55.3285 17.62 55.3447 17.944C55.3609 18.295 55.3177 18.6352 55.2205 18.9592ZM54.5077 17.998C54.4915 17.7388 54.4321 17.4904 54.3295 17.2636C54.2269 17.0368 54.0919 16.837 53.9245 16.675C53.7625 16.5076 53.5681 16.3834 53.3575 16.297C53.1415 16.2106 52.9201 16.1728 52.6933 16.189L50.0743 16.3402L50.2957 20.185L52.9903 20.0284C53.2333 20.0122 53.4547 19.9474 53.6491 19.8286C53.8435 19.7098 54.0109 19.5586 54.1405 19.3696C54.2701 19.186 54.3727 18.97 54.4375 18.7324C54.4969 18.4948 54.5239 18.2518 54.5077 17.998ZM64.1305 19.3534C64.0711 19.6558 63.9685 19.9366 63.8281 20.1958C63.6877 20.455 63.5149 20.6818 63.3097 20.8708C63.1099 21.0598 62.8777 21.211 62.6239 21.319C62.3701 21.427 62.0947 21.481 61.8085 21.481L63.2179 25.072L62.2945 24.8938L60.9391 21.4594L58.4875 20.9842L57.8935 24.0406L57.0781 23.884L58.6819 15.6058L62.1811 16.2862C62.5375 16.3564 62.8507 16.4968 63.1207 16.702C63.3907 16.9126 63.6121 17.161 63.7795 17.4472C63.9523 17.7334 64.0657 18.0466 64.1251 18.3814C64.1953 18.7108 64.1953 19.0348 64.1305 19.3534ZM63.3205 18.457C63.2773 18.2086 63.1963 17.9872 63.0775 17.7874C62.9587 17.5876 62.8075 17.4148 62.6185 17.2744C62.4295 17.134 62.2243 17.0422 62.0029 16.999L59.3677 16.486L58.6333 20.266L61.3387 20.7898C61.5817 20.8384 61.8085 20.8276 62.0299 20.7628C62.2459 20.698 62.4457 20.5846 62.6185 20.4334C62.7913 20.2822 62.9425 20.0986 63.0613 19.888C63.1801 19.6774 63.2665 19.4506 63.3151 19.1968C63.3637 18.9484 63.3637 18.7 63.3205 18.457ZM72.9595 21.0706L68.6827 19.051L67.3813 21.7996L71.1073 23.56L70.8103 24.1918L67.0843 22.4314L65.7073 25.342L70.0759 27.4102L69.7627 28.0744L64.6381 25.6498L68.2453 18.025L73.2727 20.401L72.9595 21.0706ZM79.0615 26.611C79.0453 26.2546 78.9319 25.882 78.7267 25.5094C78.5215 25.1314 78.2191 24.7858 77.8249 24.4672C77.2417 24.0028 76.7341 23.7706 76.2913 23.7814C75.8485 23.7868 75.4759 23.9812 75.1735 24.3592C75.0169 24.559 74.9197 24.748 74.8927 24.9316C74.8603 25.1152 74.8819 25.315 74.9575 25.5256C75.0331 25.7362 75.1573 25.9684 75.3355 26.2222C75.5137 26.476 75.7297 26.7622 75.9943 27.0808C76.2859 27.4372 76.5397 27.772 76.7449 28.0906C76.9501 28.4092 77.0959 28.717 77.1877 29.014C77.2741 29.311 77.2903 29.6026 77.2363 29.8834C77.1823 30.1642 77.0365 30.4558 76.7989 30.7528C76.5559 31.0552 76.2859 31.2712 75.9889 31.4008C75.6919 31.5304 75.3787 31.5844 75.0493 31.5628C74.7199 31.5412 74.3797 31.4548 74.0341 31.2928C73.6885 31.1308 73.3375 30.9094 72.9919 30.634C71.9713 29.8186 71.3449 28.7926 71.1127 27.5614L71.8633 27.2914C71.8795 27.5074 71.9281 27.7396 72.0037 27.9826C72.0793 28.2256 72.1819 28.4686 72.3169 28.7116C72.4519 28.9546 72.6139 29.1922 72.8029 29.4244C72.9919 29.6566 73.2187 29.8726 73.4725 30.0724C73.9963 30.4936 74.4823 30.7258 74.9251 30.7744C75.3679 30.823 75.7459 30.6502 76.0537 30.2668C76.2157 30.0616 76.3129 29.8564 76.3399 29.6512C76.3669 29.446 76.3399 29.2246 76.2535 28.987C76.1671 28.7494 76.0321 28.4956 75.8431 28.2256C75.6541 27.9556 75.4273 27.6478 75.1573 27.313C74.8765 26.9566 74.6389 26.6272 74.4499 26.3356C74.2609 26.0386 74.1259 25.7578 74.0503 25.4824C73.9747 25.207 73.9639 24.9478 74.0233 24.6886C74.0773 24.4348 74.2123 24.1756 74.4283 23.911C74.6713 23.6086 74.9467 23.3818 75.2491 23.236C75.5515 23.0902 75.8755 23.02 76.2103 23.0308C76.5451 23.0416 76.8907 23.1172 77.2417 23.263C77.5927 23.4088 77.9437 23.6194 78.2893 23.8948C78.7267 24.2458 79.0669 24.6238 79.3045 25.0342C79.5421 25.4446 79.7041 25.8766 79.7851 26.341L79.0615 26.611ZM85.6171 33.2098L84.8449 33.2962C84.9151 32.9452 84.8935 32.5618 84.7801 32.146C84.6721 31.7302 84.4615 31.3252 84.1483 30.9202C83.6947 30.3316 83.2519 29.986 82.8199 29.8888C82.3879 29.7916 81.9829 29.8888 81.5995 30.1858C81.3997 30.3424 81.2647 30.5044 81.1891 30.6772C81.1189 30.85 81.0919 31.0444 81.1135 31.2712C81.1351 31.4926 81.2053 31.7518 81.3133 32.038C81.4267 32.3242 81.5725 32.659 81.7507 33.0316C81.9505 33.4474 82.1125 33.8308 82.2421 34.1926C82.3663 34.549 82.4365 34.8838 82.4527 35.1916C82.4689 35.4994 82.4149 35.7856 82.2961 36.0502C82.1773 36.3094 81.9667 36.5578 81.6697 36.79C81.3619 37.0276 81.0487 37.1734 80.7301 37.2274C80.4115 37.2814 80.0983 37.2598 79.7797 37.1626C79.4665 37.0654 79.1587 36.898 78.8563 36.6604C78.5593 36.4228 78.2731 36.1258 77.9977 35.7748C77.1985 34.7434 76.8313 33.5986 76.8961 32.3458L77.6845 32.2594C77.6521 32.4754 77.6413 32.7076 77.6575 32.9614C77.6737 33.2152 77.7169 33.4744 77.7925 33.7444C77.8627 34.0144 77.9653 34.2844 78.1003 34.549C78.2299 34.819 78.3973 35.0782 78.5971 35.3374C79.0075 35.872 79.4233 36.2122 79.8445 36.3634C80.2657 36.5146 80.6707 36.439 81.0595 36.1366C81.2647 35.9746 81.4051 35.8018 81.4807 35.6074C81.5563 35.413 81.5779 35.1916 81.5509 34.9432C81.5239 34.6948 81.4483 34.414 81.3349 34.1062C81.2161 33.7984 81.0649 33.4474 80.8867 33.0586C80.6977 32.6428 80.5465 32.2702 80.4277 31.9408C80.3143 31.6114 80.2495 31.3036 80.2387 31.0174C80.2279 30.7312 80.2819 30.4774 80.3953 30.2398C80.5087 30.0076 80.7031 29.7862 80.9731 29.5756C81.2809 29.338 81.5995 29.1868 81.9289 29.1166C82.2583 29.0464 82.5877 29.0572 82.9117 29.1436C83.2357 29.2354 83.5543 29.392 83.8567 29.6134C84.1645 29.8348 84.4507 30.121 84.7261 30.472C85.0717 30.9148 85.3093 31.363 85.4443 31.8166C85.5901 32.2756 85.6387 32.74 85.6171 33.2098Z" fill="white"/>
</svg>
