<svg width="30" height="22" viewBox="0 0 30 22" fill="none" xmlns="http://www.w3.org/2000/svg">
<path fill-rule="evenodd" clip-rule="evenodd" d="M22.8389 6.69975C22.1721 4.10155 20.4048 3.06894 18.3717 2.46936C18.3167 2.45212 18.2696 2.4158 18.2389 2.36694C18.2083 2.31809 18.1961 2.2599 18.2046 2.20287L18.5051 0.137645C18.5051 0.137645 18.538 -0.0289055 18.8047 0.00440465C25.9387 0.770538 30.7392 6.20009 29.9062 12.7955C29.0395 17.3923 25.4391 19.1577 22.1721 18.6914C18.8713 18.1584 16.6044 15.0939 17.1378 11.7962C17.3369 10.4126 18.0175 9.14328 19.0601 8.21124C20.1027 7.27921 21.4406 6.74404 22.8389 6.69975ZM0.0694728 14.4609C0.502851 11.5629 2.96977 9.49771 5.77006 9.36447C5.06999 6.76627 3.36981 5.73366 1.30293 5.13408C1.24789 5.11685 1.20083 5.08052 1.17026 5.03165C1.13969 4.98277 1.12763 4.92458 1.13625 4.8676L1.46962 2.80237C1.46962 2.80237 1.50295 2.63581 1.76965 2.66912C8.90407 3.46857 13.7375 8.89812 12.8375 15.4935C12.0036 20.057 8.437 21.8225 5.1363 21.3561C1.83596 20.8232 -0.430937 17.7586 0.0691147 14.4609H0.0694728Z" fill="#2A2829"/>
</svg>
