<svg width="115" height="30" viewBox="0 0 115 30" fill="none" xmlns="http://www.w3.org/2000/svg">
<path fill-rule="evenodd" clip-rule="evenodd" d="M43.3297 13.4267C43.6565 13.0998 43.8201 12.6618 43.8201 12.1127C43.8201 11.564 43.6565 11.1259 43.3297 10.7989C43.0025 10.4721 42.5179 10.3083 41.8757 10.3083H38.5122V13.9171H41.8757C42.5179 13.9171 43.0025 13.7538 43.3297 13.4267ZM46.3779 20.7845H43.8903L41.3676 15.8792H38.5122V20.7845H36.3923V8.34644H41.8582C43.1895 8.34644 44.2056 8.69091 44.9064 9.37987C45.607 10.0691 45.9574 10.9801 45.9574 12.1127C45.9574 12.9654 45.753 13.6983 45.3443 14.3114C44.9354 14.9244 44.3283 15.3597 43.5224 15.6164L46.3779 20.7845Z" fill="#2A2829"/>
<path fill-rule="evenodd" clip-rule="evenodd" d="M51.1441 13.1812C50.4899 13.1812 49.9468 13.374 49.5148 13.7594C49.0827 14.1448 48.814 14.6588 48.709 15.3011H53.544C53.4504 14.6588 53.1936 14.1448 52.7732 13.7594C52.3528 13.374 51.8096 13.1812 51.1441 13.1812ZM55.5937 16.8426H48.674C48.7555 17.5669 49.0183 18.1419 49.4624 18.5683C49.906 18.9948 50.4899 19.2076 51.2141 19.2076C51.6928 19.2076 52.1251 19.0911 52.5106 18.8572C52.8959 18.6237 53.1701 18.3085 53.3338 17.9114H55.4362C55.1558 18.8339 54.633 19.5786 53.8681 20.1448C53.1031 20.7115 52.2009 20.9945 51.1615 20.9945C49.8066 20.9945 48.7116 20.545 47.8769 19.6456C47.0417 18.7464 46.6243 17.6076 46.6243 16.2294C46.6243 14.8867 47.0447 13.7594 47.8857 12.8484C48.7265 11.9374 49.8126 11.4819 51.1441 11.4819C52.4755 11.4819 53.553 11.9286 54.3762 12.8222C55.1995 13.7156 55.6112 14.8398 55.6112 16.1945L55.5937 16.8426Z" fill="#2A2829"/>
<path fill-rule="evenodd" clip-rule="evenodd" d="M72.0365 7.64551V12.6734C72.5854 11.8793 73.467 11.4821 74.6818 11.4821C75.7563 11.4821 76.5884 11.8093 77.1781 12.4631C77.7678 13.1173 78.0629 13.9873 78.0629 15.0734V20.7845H75.9782V15.3362C75.9782 14.694 75.8294 14.1887 75.5316 13.8208C75.2337 13.453 74.7809 13.269 74.1739 13.269C73.5081 13.269 72.9852 13.4677 72.6058 13.8646C72.2262 14.2618 72.0365 14.8167 72.0365 15.5289V20.7845H69.9519V7.64551H72.0365Z" fill="#2A2829"/>
<path fill-rule="evenodd" clip-rule="evenodd" d="M85.658 16.5245L83.2432 16.8979C82.1083 17.0717 81.5412 17.5003 81.5412 18.1835C81.5412 18.9714 82.0783 19.3654 83.1529 19.3654C83.9588 19.3654 84.5777 19.1502 85.0099 18.7206C85.4418 18.2908 85.658 17.7505 85.658 17.0995V16.5245ZM82.7324 20.9945C81.6579 20.9945 80.858 20.7436 80.3324 20.2411C79.807 19.7393 79.5441 19.0734 79.5441 18.244C79.5455 16.6658 80.7098 15.7101 83.0363 15.3776L85.658 15.0032V14.863C85.658 13.7537 85.0099 13.1988 83.7135 13.1988C82.5806 13.1988 81.9381 13.6484 81.7865 14.5477H79.7543C79.8477 13.6603 80.2186 12.9273 80.8667 12.349C81.5149 11.771 82.4812 11.4819 83.7662 11.4819C85.0624 11.4819 86.0403 11.7798 86.7004 12.3755C87.3601 12.971 87.6901 13.8062 87.6901 14.8805V19.0674C87.6901 19.8033 87.7779 20.3756 87.953 20.7843H85.9735C85.9617 20.7843 85.9471 20.7404 85.9296 20.6529C85.9121 20.5653 85.8945 20.4223 85.8771 20.2237C85.8596 20.0252 85.8508 19.8149 85.8508 19.593C85.2316 20.5276 84.1923 20.9945 82.7324 20.9945Z" fill="#2A2829"/>
<path fill-rule="evenodd" clip-rule="evenodd" d="M94.6022 11.6225V13.567C94.4385 13.5438 94.2808 13.5319 94.1292 13.5319C92.564 13.5319 91.7817 14.3728 91.7817 16.0546V20.7846H89.6969V11.6925H91.624V12.9539C92.1378 12.0546 93.0312 11.605 94.3043 11.605L94.6022 11.6225Z" fill="#2A2829"/>
<path fill-rule="evenodd" clip-rule="evenodd" d="M102.534 16.072C102.534 15.2661 102.3 14.6064 101.833 14.0923C101.366 13.5785 100.753 13.3215 99.9936 13.3215C99.2462 13.3215 98.6388 13.5785 98.1718 14.0923C97.7046 14.6064 97.4711 15.2661 97.4711 16.072C97.4711 16.8663 97.7046 17.5234 98.1718 18.0427C98.6388 18.5626 99.2462 18.8225 99.9936 18.8225C100.753 18.8225 101.366 18.5626 101.833 18.0427C102.3 17.5234 102.534 16.8663 102.534 16.072ZM102.604 12.9889V11.6924H104.531V20.399C104.531 21.6369 104.148 22.6501 103.384 23.4384C102.619 24.2268 101.553 24.621 100.186 24.621C98.9365 24.621 97.9585 24.2996 97.2521 23.6574C96.5454 23.0151 96.1336 22.2792 96.017 21.4502H98.1017C98.3584 22.3726 99.0653 22.8342 100.221 22.8342C100.922 22.8342 101.468 22.6383 101.859 22.2472C102.251 21.8559 102.446 21.3333 102.446 20.6793V19.2604C101.839 20.1949 100.881 20.6618 99.5732 20.6618C98.312 20.6618 97.2986 20.221 96.5337 19.3392C95.7688 18.4575 95.3864 17.3683 95.3864 16.072C95.3864 14.7757 95.7688 13.6868 96.5337 12.8048C97.2986 11.9231 98.312 11.4822 99.5732 11.4822C100.963 11.4822 101.973 11.9845 102.604 12.9889Z" fill="#2A2829"/>
<path fill-rule="evenodd" clip-rule="evenodd" d="M110.445 13.1812C109.79 13.1812 109.247 13.374 108.815 13.7594C108.383 14.1448 108.115 14.6588 108.01 15.3011H112.845C112.751 14.6588 112.494 14.1448 112.074 13.7594C111.653 13.374 111.11 13.1812 110.445 13.1812ZM114.894 16.8426H107.974C108.056 17.5669 108.319 18.1419 108.763 18.5683C109.207 18.9948 109.79 19.2076 110.515 19.2076C110.993 19.2076 111.426 19.0911 111.811 18.8572C112.196 18.6237 112.471 18.3085 112.634 17.9114H114.737C114.456 18.8339 113.934 19.5786 113.169 20.1448C112.404 20.7115 111.501 20.9945 110.462 20.9945C109.107 20.9945 108.012 20.545 107.177 19.6456C106.342 18.7464 105.925 17.6076 105.925 16.2294C105.925 14.8867 106.345 13.7594 107.186 12.8484C108.027 11.9374 109.113 11.4819 110.445 11.4819C111.776 11.4819 112.853 11.9286 113.677 12.8222C114.5 13.7156 114.912 14.8398 114.912 16.1945L114.894 16.8426Z" fill="#2A2829"/>
<path fill-rule="evenodd" clip-rule="evenodd" d="M65.481 18.3472C64.8164 18.8411 64.008 19.0879 63.0555 19.0879C61.8088 19.0879 60.8298 18.6822 60.1183 17.8709C59.4067 17.0593 59.0511 15.9718 59.0511 14.6074C59.0511 13.2434 59.4067 12.1584 60.1183 11.3528C60.8298 10.5475 61.8088 10.1445 63.0555 10.1445C64.008 10.1445 64.8164 10.3914 65.481 10.8853C66.0329 11.2958 66.4288 11.8361 66.6684 12.5063L68.6289 11.4499C68.2708 10.6426 67.742 9.96058 67.0421 9.40358C65.9484 8.53343 64.6193 8.09814 63.0555 8.09814C61.2209 8.09814 59.7185 8.70409 58.5484 9.9151C57.3781 11.1265 56.7932 12.6907 56.7932 14.6074C56.7932 16.5363 57.3781 18.1062 58.5484 19.3173C59.7185 20.5287 61.2209 21.1343 63.0555 21.1343C64.6193 21.1343 65.9484 20.6993 67.0421 19.8289C67.6718 19.3279 68.1647 18.7224 68.5176 18.0186L66.5711 16.9697C66.3273 17.5284 65.9643 17.9878 65.481 18.3472Z" fill="#2A2829"/>
<path fill-rule="evenodd" clip-rule="evenodd" d="M15.4429 7.14185C13.3021 8.25916 11.1674 9.37359 9.01156 10.4987C9.68161 10.8784 10.3221 11.2412 10.9619 11.6037C12.9959 10.3985 15.0175 9.20048 17.06 7.99005C16.5104 7.70173 15.9823 7.42468 15.4429 7.14185ZM21.842 10.4935C20.8875 9.99368 19.9521 9.50382 19.0193 9.0154C16.9613 10.2352 14.9123 11.4494 12.8467 12.6736C13.7281 13.1732 14.5841 13.6585 15.4368 14.1417C17.5762 12.9232 19.7019 11.7125 21.842 10.4935ZM14.8452 15.1479C13.9887 14.6625 13.1346 14.1784 12.2539 13.6791V16.3306C11.6154 15.9689 10.9982 15.6191 10.3789 15.2684V12.6155C9.71727 12.2401 9.05748 11.8661 8.39552 11.4906V19.1668C10.5509 20.3781 12.6908 21.5806 14.8452 22.7912V15.1479ZM22.4843 19.1397V11.4708C20.3106 12.7086 18.1626 13.9319 16.0254 15.1492V22.8421C18.1954 21.5982 20.3483 20.3641 22.4843 19.1397ZM7.22839 10.1131C9.95693 8.68897 12.6964 7.25922 15.4435 5.82544C18.1733 7.25518 20.9025 8.68449 23.6491 10.1229V19.8166C20.9483 21.3651 18.2241 22.9268 15.492 24.4931C12.7421 22.9477 9.99288 21.4027 7.22839 19.8493V10.1131Z" fill="#2A2829"/>
<path fill-rule="evenodd" clip-rule="evenodd" d="M23.5881 2.4136C23.3282 1.78773 23.0786 1.18699 22.822 0.569068C23.2225 0.402027 23.6181 0.237007 24.0312 0.0647677C24.683 1.63195 25.3305 3.1886 25.9831 4.75723C24.3355 4.8954 22.7077 5.03198 21.0585 5.17029C21.0227 4.73861 20.9872 4.31155 20.9502 3.86543C21.6634 3.80479 22.3619 3.7456 23.0602 3.68626C21.2964 2.4624 19.352 1.70255 17.2298 1.44297C13.3653 0.970285 9.87177 1.91363 6.83442 4.36034C0.848357 9.18246 0.0812952 17.8393 4.82155 23.6583C9.73028 29.6844 18.9717 30.5441 24.9067 24.8748C25.2058 25.1859 25.5049 25.4972 25.8042 25.8085C20.9436 30.5889 12.7398 31.6404 6.53498 27.0758C0.220472 22.4304 -1.46063 13.7148 2.69895 7.0844C4.91322 3.55445 8.08109 1.28935 12.1527 0.380804C16.2192 -0.526591 20.0287 0.201924 23.5881 2.4136Z" fill="#2A2829"/>
</svg>
