<svg width="107" height="30" viewBox="0 0 107 30" fill="none" xmlns="http://www.w3.org/2000/svg">
<path d="M31.7882 20.9855C32.4407 21.325 33.6151 21.7944 34.7376 21.7684C35.7556 21.7684 36.3035 21.2197 36.3035 20.5421C36.3035 19.8896 35.9121 19.4463 34.8155 18.8198C33.4587 18.0368 32.4407 16.9402 32.4407 15.5048C32.4407 12.9728 34.6072 11.1719 37.7649 11.1719C39.1484 11.1719 40.2183 11.4329 40.7922 11.7724L39.9573 14.3304C39.4613 14.0953 38.6524 13.8344 37.713 13.8344C36.695 13.8344 36.0426 14.3044 36.0426 15.0347C36.0426 15.6086 36.5126 16.0268 37.4261 16.5228C38.8355 17.3317 40.01 18.4283 40.01 19.9682C40.01 22.8391 37.6871 24.4576 34.4507 24.4317C32.9627 24.4057 31.5791 24.0135 30.9015 23.5442L31.7882 20.9855Z" fill="#2A2829"/>
<path d="M40.7405 24.3604L44.2378 6.08472H47.8397L46.4562 13.1694L46.5081 13.1229C47.4734 11.9744 48.7265 11.1815 50.3183 11.1815C52.1979 11.1815 53.2677 12.3903 53.2677 14.4263C53.2677 15.0528 53.1632 16.0654 53.0068 16.8491L51.5973 24.3612H47.9954L49.3522 17.0743C49.456 16.5782 49.5094 15.9365 49.5094 15.4412C49.5094 14.6583 49.1965 14.0897 48.3869 14.0897C47.2384 14.0897 46.0113 15.6236 45.542 17.9992L44.3408 24.3612H40.7405V24.3604Z" fill="#2A2829"/>
<path d="M66.2929 16.1833C66.2929 20.6467 63.4213 24.4577 59.1669 24.4577C55.9306 24.4577 54.2083 22.2127 54.2083 19.4197C54.2083 15.0608 57.0798 11.1453 61.412 11.1453C64.7796 11.146 66.2929 13.5994 66.2929 16.1833ZM57.8887 19.3418C57.8887 20.6467 58.4107 21.6907 59.6378 21.6907C61.5425 21.6907 62.6131 18.2971 62.6131 16.0788C62.6131 15.0089 62.195 13.9131 60.9168 13.9131C58.9586 13.9123 57.8887 17.2791 57.8887 19.3418Z" fill="#2A2829"/>
<path d="M65.4326 29.437L67.9379 16.2657C68.2256 14.7777 68.5118 12.8531 68.669 11.4986L71.8534 11.4986L71.6443 13.5292H71.6962C72.6615 12.1755 74.0718 11.2666 75.5064 11.2666C78.1422 11.2666 79.2128 13.372 79.2128 15.7995C79.2128 20.1851 76.4466 24.5043 72.2182 24.5043C71.3307 24.5043 70.5218 24.36 70.1036 24.022H70.025L69.033 29.437H65.4326ZM70.5752 21.2199C70.9667 21.5327 71.41 21.7418 72.0633 21.7418C74.0733 21.7418 75.4568 18.4269 75.4568 16.104C75.4568 15.1386 75.1172 14.1206 74.0214 14.1206C72.7684 14.1206 71.5939 15.6087 71.1765 17.853L70.5752 21.2199Z" fill="#2A2829"/>
<path d="M79.3197 24.3605L81.7472 11.4998H85.375L82.9216 24.3605H79.3197ZM83.9922 10.146C82.9742 10.146 82.2958 9.27532 82.2958 8.20544C82.2958 7.03101 83.2093 6.04736 84.3578 6.04736C85.4536 6.04736 86.1587 6.90969 86.1587 7.95362C86.1328 9.28448 85.1667 10.1468 84.0449 10.1468L83.9922 10.146Z" fill="#2A2829"/>
<path d="M86.0525 24.3609L87.958 14.2078H86.2875L86.8095 11.5002H88.4799L88.5845 10.8531C88.8722 9.33911 89.4453 7.80144 90.6724 6.75751C91.6377 5.92266 92.9167 5.54492 94.1964 5.54492C95.0839 5.54492 95.7363 5.67007 96.1538 5.85246L95.4494 8.66834C95.1365 8.56455 94.771 8.48442 94.3009 8.48442C93.0998 8.48442 92.3687 9.6268 92.1604 10.8539L92.0299 11.5002L94.5352 11.5002L94.0392 14.2078L91.5599 14.2078L89.6544 24.3609H86.0525Z" fill="#2A2829"/>
<path d="M98.9999 11.5L99.5737 17.2569C99.7309 18.5359 99.8347 19.6225 99.8866 20.2994H99.9385C100.226 19.6225 100.487 18.6137 101.009 17.231L103.202 11.5008H106.96L102.549 20.916C100.983 24.1524 99.4692 26.5111 97.8247 28.0511C96.5457 29.2515 95.0317 29.8436 94.3006 30.0001L93.3086 26.9415C93.9092 26.7324 94.6654 26.4173 95.3446 25.922C96.1794 25.3482 96.8845 24.5637 97.302 23.7548C97.4057 23.5724 97.4325 23.4488 97.3806 23.1878L95.2141 11.5015L98.9999 11.5Z" fill="#2A2829"/>
<path d="M18.5757 3.42534C18.5734 3.4261 18.2475 3.52683 17.6965 3.69777C17.605 3.39939 17.4691 3.03234 17.2761 2.66375C16.6534 1.47559 15.7407 0.846027 14.6388 0.844501C14.6372 0.844501 14.6365 0.844501 14.6349 0.844501C14.5586 0.844501 14.4823 0.851364 14.406 0.858232C14.374 0.819313 14.3412 0.780395 14.306 0.743766C13.8261 0.230192 13.2095 -0.0201061 12.4723 0.00126094C11.0483 0.0424689 9.63047 1.07038 8.48123 2.89651C7.67157 4.18158 7.05726 5.79632 6.88251 7.04553C5.24793 7.55148 4.10402 7.90632 4.0796 7.91395C3.25468 8.17265 3.22874 8.19859 3.12037 8.9762C3.03872 9.56456 0.879883 26.2606 0.879883 26.2606L18.7931 29.3589L18.7931 3.38871C18.7046 3.39481 18.6253 3.41084 18.5757 3.42534ZM14.4396 4.7066C13.4918 5.0004 12.457 5.3209 11.4184 5.64217C11.7107 4.52422 12.264 3.41084 12.9439 2.6813C13.1965 2.40964 13.5506 2.10745 13.9695 1.93422C14.364 2.75533 14.4488 3.91983 14.4396 4.7066ZM12.4998 0.949047C12.834 0.942179 13.1156 1.01543 13.356 1.1734C12.9714 1.37333 12.599 1.66026 12.2502 2.03419C11.3459 3.0041 10.653 4.51048 10.3768 5.96344C9.51448 6.23053 8.67124 6.49152 7.89592 6.7319C8.38508 4.44486 10.302 1.01239 12.4998 0.949047ZM9.72967 13.9784C9.82582 15.5023 13.8352 15.835 14.0603 19.4049C14.2374 22.2131 12.5707 24.1339 10.1692 24.2857C7.28696 24.4673 5.70045 22.7671 5.70045 22.7671L6.31094 20.1687C6.31094 20.1687 7.90813 21.3737 9.18634 21.2928C10.0212 21.2401 10.3196 20.561 10.2898 20.0802C10.1646 18.0923 6.90006 18.2091 6.69326 14.943C6.52003 12.1942 8.32479 9.40888 12.3082 9.15705C13.8428 9.06014 14.6288 9.45162 14.6288 9.45162L13.7177 12.8589C13.7177 12.8589 12.702 12.3965 11.497 12.472C9.73044 12.5857 9.71136 13.6999 9.72967 13.9784ZM15.3858 4.41357C15.3752 3.69243 15.2889 2.6897 14.9532 1.8228C16.0337 2.02732 16.5656 3.24982 16.79 3.97859C16.3741 4.10756 15.9002 4.25408 15.3858 4.41357Z" fill="#2A2829"/>
<path d="M19.3864 29.2885L26.8175 27.441C26.8175 27.441 23.6178 5.80833 23.598 5.65953C23.5774 5.51148 23.4476 5.42907 23.3408 5.41991C23.234 5.41075 21.1415 5.37946 21.1415 5.37946C21.1415 5.37946 19.8656 4.14094 19.3864 3.67163L19.3864 29.2885Z" fill="#2A2829"/>
</svg>
