<svg width="127" height="26" viewBox="0 0 127 26" fill="none" xmlns="http://www.w3.org/2000/svg">
<path d="M98.531 9.82904C96.9206 9.82904 95.5992 10.3899 94.6601 11.4613L94.842 10.5169C94.8995 10.2179 94.6958 9.96528 94.3969 9.96528C94.0979 9.96528 93.7964 10.2179 93.7395 10.5169L90.9571 24.9617C90.8996 25.2606 91.1033 25.5132 91.4022 25.5132C91.7012 25.5132 92.0027 25.2606 92.0603 24.9617L93.0933 19.5967C93.4736 20.2825 94.3559 21.223 96.3366 21.223C97.8862 21.223 99.1858 20.7468 100.2 19.8063C101.247 18.8361 101.962 17.3924 102.323 15.5141C102.685 13.6372 102.526 12.1967 101.851 11.2331C101.199 10.3019 100.081 9.82904 98.531 9.82904ZM96.5317 20.2124C94.1753 20.2124 93.2428 18.5881 93.8347 15.5154C94.4326 12.4136 95.924 10.8409 98.2685 10.8409C100.831 10.8409 101.781 12.37 101.175 15.5154C100.557 18.7197 99.082 20.2124 96.5317 20.2124Z" fill="white"/>
<path d="M122.539 14.9048C121.141 14.3863 119.82 13.8969 120.072 12.594C120.198 11.9392 120.729 10.84 122.87 10.84C124.073 10.84 124.832 11.1727 125.49 11.9888C125.614 12.1409 125.754 12.1409 125.814 12.1409C126.088 12.1409 126.365 11.9095 126.417 11.635C126.447 11.4862 126.418 11.3982 126.353 11.2812C126.35 11.2765 126.347 11.2719 126.344 11.2673C125.676 10.3123 124.573 9.82816 123.065 9.82816C120.867 9.82816 119.298 10.8877 118.969 12.5933C118.576 14.6349 120.383 15.3188 121.978 15.9219C123.357 16.4431 124.66 16.9351 124.418 18.1838C124.078 19.9477 122.229 20.2109 121.156 20.2109C119.677 20.2109 118.765 19.8088 118.103 18.8657C118.101 18.863 118.098 18.8597 118.096 18.8571C118.014 18.7559 117.905 18.705 117.773 18.705C117.529 18.705 117.228 18.9087 117.17 19.2109C117.14 19.359 117.169 19.4463 117.234 19.5641C117.675 20.3888 118.999 21.2228 120.962 21.2228C123.451 21.2228 125.155 20.0865 125.521 18.1838C125.913 16.1554 124.12 15.4907 122.539 14.9048Z" fill="white"/>
<path d="M119.204 6.97626L118.04 6.97626L118.264 5.81225C118.322 5.51332 118.118 5.26068 117.819 5.26068C117.52 5.26068 117.219 5.51332 117.161 5.81225L116.937 6.97626H115.773C115.474 6.97626 115.173 7.2289 115.116 7.52783C115.058 7.82677 115.262 8.07941 115.561 8.07941H116.725L116.5 9.2434C116.443 9.54234 116.647 9.79498 116.946 9.79498C117.244 9.79498 117.546 9.54234 117.603 9.2434L117.827 8.07941H118.991C119.289 8.07941 119.591 7.82677 119.649 7.52783C119.707 7.22956 119.503 6.97626 119.204 6.97626Z" fill="white"/>
<path d="M26.7873 18.1873C27.3528 18.4816 28.3706 18.8883 29.3435 18.8658C30.2257 18.8658 30.7006 18.3903 30.7006 17.803C30.7006 17.2376 30.3613 16.8533 29.4109 16.3103C28.235 15.6318 27.3528 14.6814 27.3528 13.4374C27.3528 11.243 29.2304 9.68216 31.9671 9.68216C33.1661 9.68216 34.0934 9.90834 34.5907 10.2027L33.8672 12.4195C33.4373 12.2158 32.7363 11.9897 31.9221 11.9897C31.0399 11.9897 30.4744 12.397 30.4744 13.03C30.4744 13.5273 30.8818 13.8897 31.6734 14.3196C32.895 15.0207 33.9128 15.9711 33.9128 17.3057C33.9128 19.7937 31.8996 21.1965 29.0948 21.174C27.8051 21.1515 26.6061 20.8116 26.0188 20.4048L26.7873 18.1873Z" fill="white"/>
<path d="M34.5458 21.1123L37.5768 5.27338H40.6984L39.4994 11.4135L39.5443 11.3731C40.381 10.3778 41.4669 9.69061 42.8465 9.69061C44.4755 9.69061 45.4027 10.7382 45.4027 12.5027C45.4027 13.0457 45.3121 13.9233 45.1765 14.6025L43.955 21.113H40.8334L42.0092 14.7976C42.0992 14.3678 42.1455 13.8116 42.1455 13.3823C42.1455 12.7038 41.8743 12.2111 41.1726 12.2111C40.1773 12.2111 39.1138 13.5404 38.7071 15.5992L37.6661 21.113H34.5458V21.1123Z" fill="white"/>
<path d="M56.6916 14.0254C56.6916 17.8937 54.2029 21.1966 50.5158 21.1966C47.711 21.1966 46.2183 19.2509 46.2183 16.8303C46.2183 13.0526 48.707 9.65912 52.4615 9.65912C55.3801 9.65978 56.6916 11.7861 56.6916 14.0254ZM49.408 16.7628C49.408 17.8937 49.8604 18.7985 50.9239 18.7985C52.5746 18.7985 53.5025 15.8574 53.5025 13.9348C53.5025 13.0076 53.1401 12.0579 52.0323 12.0579C50.3352 12.0572 49.408 14.9751 49.408 16.7628Z" fill="white"/>
<path d="M55.9459 25.5123L58.1172 14.0972C58.3665 12.8075 58.6145 11.1396 58.7508 9.96564H61.5106L61.3294 11.7255H61.3744C62.211 10.5523 63.4332 9.76459 64.6766 9.76459C66.9609 9.76459 67.8888 11.5893 67.8888 13.6931C67.8888 17.4939 65.4914 21.2372 61.8267 21.2372C61.0576 21.2372 60.3565 21.1122 59.9941 20.8193H59.926L59.0662 25.5123H55.9459ZM60.4028 18.3907C60.7421 18.6619 61.1264 18.8431 61.6925 18.8431C63.4345 18.8431 64.6336 15.9701 64.6336 13.957C64.6336 13.1203 64.3393 12.2381 63.3895 12.2381C62.3036 12.2381 61.2858 13.5277 60.924 15.4728L60.4028 18.3907Z" fill="white"/>
<path d="M67.9808 21.1126L70.0846 9.96665H73.2287L71.1025 21.1126H67.9808ZM72.0304 8.79339C71.1481 8.79339 70.5601 8.03877 70.5601 7.11154C70.5601 6.09371 71.3518 5.24121 72.3471 5.24121C73.2969 5.24121 73.908 5.98856 73.908 6.8933C73.8855 8.04672 73.0482 8.79405 72.076 8.79405L72.0304 8.79339Z" fill="white"/>
<path d="M73.8167 21.1125L75.4681 12.3131H74.0203L74.4727 9.96657H75.9204L76.011 9.40574C76.2604 8.09359 76.7571 6.76095 77.8205 5.8562C78.6572 5.13267 79.7656 4.8053 80.8747 4.8053C81.6439 4.8053 82.2093 4.91376 82.5711 5.07183L81.9607 7.51226C81.6895 7.42231 81.3727 7.35287 80.9653 7.35287C79.9243 7.35287 79.2907 8.34293 79.1102 9.4064L78.9971 9.96657H81.1684L80.7385 12.3131H78.5897L76.9383 21.1125H73.8167Z" fill="white"/>
<path d="M85.0375 9.96652L85.5349 14.9558C85.6711 16.0643 85.7611 17.0061 85.806 17.5927H85.851C86.1004 17.0061 86.3265 16.1317 86.7789 14.9333L88.679 9.96718H91.9362L88.1135 18.1271C86.7564 20.9319 85.4443 22.9762 84.019 24.3108C82.9106 25.3511 81.5985 25.8643 80.9649 25.9999L80.1051 23.3492C80.6256 23.168 81.281 22.8948 81.8696 22.4656C82.5932 21.9683 83.2043 21.2884 83.566 20.5873C83.656 20.4293 83.6791 20.3221 83.6341 20.0959L81.7565 9.96785L85.0375 9.96652Z" fill="white"/>
<path d="M116.651 11.0148C116.352 11.0148 116.05 11.2674 115.993 11.5664L114.939 17.0418C114.367 19.8308 112.654 20.2117 111.048 20.2117C108.156 20.2117 108.083 18.5643 108.393 16.9525L109.633 10.5175C109.69 10.2185 109.486 9.96588 109.188 9.96588C108.889 9.96588 108.587 10.2185 108.529 10.5175L107.29 16.9525C107.041 18.2494 107.129 19.2177 107.563 19.9114C108.107 20.7818 109.214 21.2229 110.853 21.2229C112.492 21.2229 113.768 20.7811 114.648 19.9114C115.349 19.2177 115.811 18.2494 116.06 16.9525L117.097 11.5664C117.154 11.2674 116.95 11.0148 116.651 11.0148Z" fill="white"/>
<path d="M106.685 5.29205C106.386 5.29205 106.085 5.5447 106.027 5.84364L103.198 20.5358C103.14 20.8347 103.344 21.0874 103.643 21.0874C103.942 21.0874 104.243 20.8347 104.301 20.5358L107.13 5.84364C107.188 5.54404 106.984 5.29205 106.685 5.29205Z" fill="white"/>
<path d="M15.3363 2.96862C15.3343 2.96928 15.0519 3.05659 14.5744 3.20473C14.4951 2.94614 14.3773 2.62802 14.21 2.30859C13.6704 1.27885 12.8794 0.733224 11.9244 0.731901C11.923 0.731901 11.9224 0.731901 11.9211 0.731901C11.8549 0.731901 11.7888 0.737849 11.7226 0.743801C11.6949 0.710071 11.6664 0.676342 11.636 0.644597C11.22 0.1995 10.6856 -0.0174253 10.0467 0.00109281C8.81265 0.0368064 7.58384 0.927665 6.58783 2.5103C5.88612 3.62404 5.35372 5.02348 5.20227 6.10613C3.78563 6.54461 2.79425 6.85214 2.77309 6.85876C2.05816 7.08296 2.03567 7.10544 1.94176 7.77937C1.87099 8.28928 0 22.7592 0 22.7592L15.5248 25.4444L15.5248 2.93688C15.4481 2.94217 15.3793 2.95606 15.3363 2.96862ZM11.7517 4.07905C10.9303 4.33368 10.0335 4.61145 9.13341 4.88988C9.38671 3.92099 9.8662 2.95606 10.4555 2.3238C10.6744 2.08835 10.9813 1.82646 11.3443 1.67633C11.6863 2.38795 11.7597 3.39719 11.7517 4.07905ZM10.0706 0.822507C10.3602 0.816555 10.6043 0.880042 10.8126 1.01694C10.4793 1.19022 10.1565 1.43889 9.85429 1.76296C9.07058 2.60355 8.47006 3.90908 8.23065 5.16831C7.48331 5.39979 6.75251 5.62598 6.08056 5.83431C6.5045 3.85221 8.16584 0.8774 10.0706 0.822507ZM7.66981 12.1146C7.75315 13.4353 11.2279 13.7237 11.423 16.8175C11.5765 19.2514 10.1321 20.916 8.05076 21.0476C5.55279 21.205 4.17782 19.7315 4.17782 19.7315L4.70691 17.4796C4.70691 17.4796 6.09114 18.5239 7.19892 18.4538C7.92245 18.4081 8.18105 17.8195 8.15526 17.4028C8.04679 15.68 5.21748 15.7812 5.03826 12.9506C4.88813 10.5683 6.45225 8.15436 9.90456 7.93611C11.2346 7.85212 11.9158 8.1914 11.9158 8.1914L11.1261 11.1444C11.1261 11.1444 10.2458 10.7436 9.20153 10.8091C7.67048 10.9076 7.65394 11.8732 7.66981 12.1146ZM12.5718 3.82509C12.5626 3.2001 12.4878 2.33107 12.1968 1.57976C13.1333 1.75701 13.5943 2.81651 13.7887 3.44811C13.4283 3.55988 13.0176 3.68687 12.5718 3.82509Z" fill="white"/>
<path d="M16.0387 25.3833L22.479 23.7822C22.479 23.7822 19.7059 5.03388 19.6888 4.90491C19.6709 4.77661 19.5585 4.70518 19.4659 4.69724C19.3733 4.68931 17.5598 4.66219 17.5598 4.66219C17.5598 4.66219 16.454 3.58881 16.0387 3.18207L16.0387 25.3833Z" fill="white"/>
</svg>
