<svg width="146" height="30" viewBox="0 0 146 30" fill="none" xmlns="http://www.w3.org/2000/svg">
<path d="M113.69 11.3413C111.831 11.3413 110.307 11.9884 109.223 13.2247L109.433 12.1349C109.499 11.79 109.264 11.4985 108.919 11.4985C108.574 11.4985 108.226 11.79 108.161 12.1349L104.95 28.802C104.884 29.147 105.119 29.4385 105.464 29.4385C105.809 29.4385 106.157 29.147 106.223 28.802L107.415 22.6117C107.854 23.403 108.872 24.4882 111.158 24.4882C112.946 24.4882 114.445 23.9387 115.616 22.8536C116.824 21.7341 117.648 20.0682 118.065 17.901C118.483 15.7353 118.299 14.0732 117.52 12.9614C116.768 11.8869 115.478 11.3413 113.69 11.3413ZM111.383 23.3221C108.664 23.3221 107.588 21.4479 108.271 17.9025C108.961 14.3235 110.681 12.5089 113.387 12.5089C116.343 12.5089 117.44 14.2732 116.741 17.9025C116.028 21.5998 114.325 23.3221 111.383 23.3221Z" fill="#2A2829"/>
<path d="M141.391 17.198C139.778 16.5997 138.255 16.035 138.544 14.5317C138.69 13.7762 139.303 12.5079 141.773 12.5079C143.161 12.5079 144.037 12.8917 144.797 13.8334C144.939 14.0089 145.101 14.0089 145.171 14.0089C145.487 14.0089 145.805 13.7418 145.867 13.4251C145.9 13.2534 145.867 13.152 145.792 13.0169C145.789 13.0115 145.786 13.0062 145.782 13.0009C145.011 11.8989 143.738 11.3403 141.998 11.3403C139.463 11.3403 137.652 12.5628 137.272 14.5309C136.818 16.8866 138.904 17.6757 140.745 18.3716C142.335 18.973 143.838 19.5407 143.56 20.9815C143.167 23.0167 141.034 23.3204 139.796 23.3204C138.09 23.3204 137.037 22.8564 136.273 21.7682C136.27 21.7652 136.267 21.7614 136.265 21.7583C136.17 21.6415 136.045 21.5828 135.892 21.5828C135.61 21.5828 135.263 21.8178 135.196 22.1666C135.162 22.3375 135.195 22.4382 135.271 22.5741C135.779 23.5257 137.307 24.488 139.572 24.488C142.443 24.488 144.41 23.1769 144.833 20.9815C145.284 18.641 143.215 17.8741 141.391 17.198Z" fill="#2A2829"/>
<path d="M137.543 8.04958H136.2L136.458 6.7065C136.525 6.36157 136.29 6.07007 135.945 6.07007C135.6 6.07007 135.252 6.36157 135.186 6.7065L134.927 8.04958H133.584C133.239 8.04958 132.892 8.34109 132.825 8.68601C132.759 9.03094 132.994 9.32244 133.339 9.32244H134.682L134.423 10.6655C134.357 11.0104 134.592 11.302 134.937 11.302C135.282 11.302 135.63 11.0104 135.695 10.6655L135.954 9.32244H137.297C137.641 9.32244 137.989 9.03094 138.056 8.68601C138.124 8.34185 137.888 8.04958 137.543 8.04958Z" fill="#2A2829"/>
<path d="M30.9083 20.9855C31.5608 21.325 32.7352 21.7944 33.8578 21.7684C34.8757 21.7684 35.4237 21.2197 35.4237 20.5421C35.4237 19.8896 35.0322 19.4463 33.9356 18.8198C32.5788 18.0368 31.5608 16.9402 31.5608 15.5048C31.5608 12.9728 33.7273 11.1719 36.885 11.1719C38.2685 11.1719 39.3384 11.4329 39.9123 11.7724L39.0774 14.3304C38.5814 14.0953 37.7725 13.8344 36.8331 13.8344C35.8151 13.8344 35.1627 14.3044 35.1627 15.0347C35.1627 15.6086 35.6328 16.0268 36.5462 16.5228C37.9557 17.3317 39.1301 18.4283 39.1301 19.9682C39.1301 22.8391 36.8072 24.4576 33.5708 24.4317C32.0828 24.4057 30.6992 24.0135 30.0216 23.5442L30.9083 20.9855Z" fill="#2A2829"/>
<path d="M39.8606 24.3604L43.3579 6.08472H46.9598L45.5763 13.1694L45.6282 13.1229C46.5935 11.9744 47.8466 11.1815 49.4384 11.1815C51.318 11.1815 52.3879 12.3903 52.3879 14.4263C52.3879 15.0528 52.2833 16.0654 52.1269 16.8491L50.7174 24.3612H47.1155L48.4723 17.0743C48.5761 16.5782 48.6295 15.9365 48.6295 15.4412C48.6295 14.6583 48.3167 14.0897 47.507 14.0897C46.3585 14.0897 45.1314 15.6236 44.6621 17.9992L43.461 24.3612H39.8606V24.3604Z" fill="#2A2829"/>
<path d="M65.413 16.1833C65.413 20.6467 62.5414 24.4577 58.2871 24.4577C55.0507 24.4577 53.3284 22.2127 53.3284 19.4197C53.3284 15.0608 56.2 11.1453 60.5321 11.1453C63.8997 11.146 65.413 13.5994 65.413 16.1833ZM57.0088 19.3418C57.0088 20.6467 57.5308 21.6907 58.7579 21.6907C60.6626 21.6907 61.7333 18.2971 61.7333 16.0788C61.7333 15.0089 61.3151 13.9131 60.0369 13.9131C58.0787 13.9123 57.0088 17.2791 57.0088 19.3418Z" fill="#2A2829"/>
<path d="M64.5527 29.437L67.058 16.2657C67.3457 14.7777 67.6319 12.8531 67.7891 11.4986L70.9735 11.4986L70.7644 13.5292H70.8163C71.7817 12.1755 73.1919 11.2666 74.6265 11.2666C77.2623 11.2666 78.3329 13.372 78.3329 15.7995C78.3329 20.1851 75.5667 24.5043 71.3383 24.5043C70.4508 24.5043 69.6419 24.36 69.2237 24.022H69.1451L68.1531 29.437H64.5527ZM69.6953 21.2199C70.0868 21.5327 70.5302 21.7418 71.1834 21.7418C73.1934 21.7418 74.5769 18.4269 74.5769 16.104C74.5769 15.1386 74.2373 14.1206 73.1415 14.1206C71.8885 14.1206 70.7141 15.6087 70.2966 17.853L69.6953 21.2199Z" fill="#2A2829"/>
<path d="M78.4398 24.3605L80.8673 11.4998H84.4951L82.0417 24.3605H78.4398ZM83.1124 10.146C82.0944 10.146 81.416 9.27532 81.416 8.20544C81.416 7.03101 82.3294 6.04736 83.4779 6.04736C84.5737 6.04736 85.2788 6.90969 85.2788 7.95362C85.2529 9.28448 84.2868 10.1468 83.165 10.1468L83.1124 10.146Z" fill="#2A2829"/>
<path d="M85.1726 24.3609L87.0781 14.2078H85.4076L85.9296 11.5002H87.6001L87.7046 10.8531C87.9923 9.33911 88.5654 7.80144 89.7925 6.75751C90.7578 5.92266 92.0368 5.54492 93.3165 5.54492C94.204 5.54492 94.8565 5.67007 95.2739 5.85246L94.5695 8.66834C94.2567 8.56455 93.8911 8.48442 93.421 8.48442C92.2199 8.48442 91.4889 9.6268 91.2805 10.8539L91.15 11.5002L93.6553 11.5002L93.1593 14.2078L90.68 14.2078L88.7745 24.3609H85.1726Z" fill="#2A2829"/>
<path d="M98.12 11.5L98.6939 17.2569C98.8511 18.5359 98.9549 19.6225 99.0067 20.2994H99.0586C99.3463 19.6225 99.6073 18.6137 100.129 17.231L102.322 11.5008H106.08L101.669 20.916C100.103 24.1524 98.5893 26.5111 96.9448 28.0511C95.6658 29.2515 94.1518 29.8436 93.4208 30.0001L92.4287 26.9415C93.0293 26.7324 93.7855 26.4173 94.4647 25.922C95.2995 25.3482 96.0047 24.5637 96.4221 23.7548C96.5259 23.5724 96.5526 23.4488 96.5007 23.1878L94.3342 11.5015L98.12 11.5Z" fill="#2A2829"/>
<path d="M134.597 12.7093C134.253 12.7093 133.905 13.0008 133.838 13.3457L132.622 19.6635C131.962 22.8816 129.985 23.3211 128.132 23.3211C124.795 23.3211 124.711 21.4202 125.069 19.5605L126.499 12.1355C126.566 11.7905 126.331 11.499 125.986 11.499C125.641 11.499 125.293 11.7905 125.226 12.1355L123.796 19.5605C123.509 21.057 123.611 22.1742 124.112 22.9747C124.739 23.9789 126.016 24.4879 127.907 24.4879C129.798 24.4879 131.271 23.9782 132.286 22.9747C133.095 22.1742 133.628 21.057 133.916 19.5605L135.113 13.3457C135.177 13.0008 134.942 12.7093 134.597 12.7093Z" fill="#2A2829"/>
<path d="M123.098 6.1062C122.753 6.1062 122.405 6.39772 122.339 6.74264L119.074 23.6951C119.008 24.0401 119.243 24.3316 119.588 24.3316C119.933 24.3316 120.281 24.0401 120.347 23.6951L123.612 6.74264C123.678 6.39695 123.443 6.1062 123.098 6.1062Z" fill="#2A2829"/>
<path d="M17.6958 3.42534C17.6935 3.4261 17.3676 3.52683 16.8167 3.69777C16.7251 3.39939 16.5893 3.03234 16.3962 2.66375C15.7735 1.47559 14.8608 0.846027 13.7589 0.844501C13.7574 0.844501 13.7566 0.844501 13.7551 0.844501C13.6788 0.844501 13.6024 0.851364 13.5261 0.858232C13.4941 0.819313 13.4613 0.780395 13.4262 0.743766C12.9462 0.230192 12.3296 -0.0201061 11.5924 0.00126094C10.1684 0.0424689 8.75059 1.07038 7.60134 2.89651C6.79168 4.18158 6.17738 5.79632 6.00263 7.04553C4.36804 7.55148 3.22414 7.90632 3.19972 7.91395C2.3748 8.17265 2.34885 8.19859 2.24049 8.9762C2.15884 9.56456 0 26.2606 0 26.2606L17.9133 29.3589L17.9133 3.38871C17.8247 3.39481 17.7454 3.41084 17.6958 3.42534ZM13.5597 4.7066C12.6119 5.0004 11.5771 5.3209 10.5386 5.64217C10.8308 4.52422 11.3841 3.41084 12.064 2.6813C12.3166 2.40964 12.6707 2.10745 13.0896 1.93422C13.4842 2.75533 13.5689 3.91983 13.5597 4.7066ZM11.6199 0.949047C11.9541 0.942179 12.2357 1.01543 12.4761 1.1734C12.0915 1.37333 11.7191 1.66026 11.3703 2.03419C10.4661 3.0041 9.77316 4.51048 9.49691 5.96344C8.6346 6.23053 7.79136 6.49152 7.01604 6.7319C7.50519 4.44486 9.42213 1.01239 11.6199 0.949047ZM8.84979 13.9784C8.94594 15.5023 12.9553 15.835 13.1804 19.4049C13.3575 22.2131 11.6909 24.1339 9.28934 24.2857C6.40707 24.4673 4.82057 22.7671 4.82057 22.7671L5.43106 20.1687C5.43106 20.1687 7.02825 21.3737 8.30646 21.2928C9.1413 21.2401 9.43968 20.561 9.40992 20.0802C9.28477 18.0923 6.02018 18.2091 5.81338 14.943C5.64015 12.1942 7.44491 9.40888 11.4283 9.15705C12.963 9.06014 13.749 9.45162 13.749 9.45162L12.8378 12.8589C12.8378 12.8589 11.8221 12.3965 10.6172 12.472C8.85056 12.5857 8.83148 13.6999 8.84979 13.9784ZM14.506 4.41357C14.4953 3.69243 14.4091 2.6897 14.0733 1.8228C15.1538 2.02732 15.6857 3.24982 15.9101 3.97859C15.4942 4.10756 15.0203 4.25408 14.506 4.41357Z" fill="#2A2829"/>
<path d="M18.5065 29.2885L25.9376 27.441C25.9376 27.441 22.7379 5.80833 22.7181 5.65953C22.6975 5.51148 22.5677 5.42907 22.4609 5.41991C22.3541 5.41075 20.2616 5.37946 20.2616 5.37946C20.2616 5.37946 18.9857 4.14094 18.5065 3.67163L18.5065 29.2885Z" fill="#2A2829"/>
</svg>
