<svg width="91" height="50" viewBox="0 0 91 50" fill="none" xmlns="http://www.w3.org/2000/svg">
<path fill-rule="evenodd" clip-rule="evenodd" d="M82.2928 32.4744C82.2928 32.4744 82.4174 29.8441 84.0367 26.6176C85.6561 23.3901 88.5177 21.8166 88.5177 21.8166C88.5177 21.8166 88.2653 24.6968 86.5421 28.134C84.8199 31.5713 82.2928 32.4744 82.2928 32.4744ZM83.399 24.6248C83.399 24.6248 83.1757 22.0008 84.3536 18.5838C85.5314 15.1624 88.1593 13.2108 88.1593 13.2108C88.1593 13.2108 88.2912 16.1006 87.0354 19.7412C85.7828 23.3849 83.399 24.6248 83.399 24.6248ZM80.9674 13.4936C80.7856 9.87322 82.4923 7.05019 82.4923 7.05019C82.4923 7.05019 83.6888 9.67309 83.883 13.5275C84.0772 17.383 82.3322 19.4521 82.3322 19.4521C82.3322 19.4521 81.1512 17.1119 80.9674 13.4936ZM77.1253 7.57434C76.369 4.03337 77.601 0.964661 77.601 0.964661C77.601 0.964661 79.1996 3.35567 80.0067 7.12642C80.8136 10.8983 79.4208 13.23 79.4208 13.23C79.4208 13.23 77.8815 11.1153 77.1253 7.57434ZM71.7884 6.07917C69.5054 3.3006 69.199 0 69.199 0C69.199 0 71.7044 1.35857 74.1359 4.31715C76.5686 7.27467 76.3981 9.99923 76.3981 9.99923C76.3981 9.99923 74.0715 8.85456 71.7884 6.07917ZM57.3568 36.7069C54.8504 36.7069 52.664 35.9191 50.7631 34.6813L48.5923 45.0935H43.5899L46.5834 30.7379C45.1656 28.9282 44.0002 26.8824 43.0519 24.8652V27.037C43.0519 32.3464 38.813 36.7069 33.6029 36.7069C28.3938 36.7069 24.1549 32.3464 24.1549 27.037V14.0654H29.0481V27.037C29.0481 29.5964 31.0924 31.6782 33.6029 31.6782C36.1145 31.6782 38.1586 29.5964 38.1586 27.037V14.0654H43.0519C44.0158 17.4475 45.6756 21.4661 47.859 24.8112C49.2882 19.8545 52.8135 16.8482 57.3568 16.8482C62.7206 16.8482 67.0842 21.2967 67.0842 26.7649C67.0842 32.232 62.7206 36.7069 57.3568 36.7069ZM57.3568 21.8356C53.7951 21.8356 52.6453 25.3321 52.2776 27.415L52.262 27.4923L51.8527 29.4534C53.5344 30.8406 55.3823 31.6919 57.3568 31.6919C60.0231 31.6919 62.1909 29.482 62.1909 26.7649C62.1909 24.0467 60.0231 21.8356 57.3568 21.8356ZM13.8074 9.99923C13.8074 9.99923 13.6391 7.27467 16.0697 4.31715C18.5023 1.35857 21.0066 0 21.0066 0C21.0066 0 20.7012 3.3006 18.4171 6.07917C16.1341 8.85456 13.8074 9.99923 13.8074 9.99923ZM10.7859 13.23C10.7859 13.23 9.39397 10.8983 10.2 7.12642C11.0061 3.35567 12.6046 0.964661 12.6046 0.964661C12.6046 0.964661 13.8386 4.03337 13.0814 7.57434C12.3242 11.1153 10.7859 13.23 10.7859 13.23ZM7.87435 19.4521C7.87435 19.4521 6.1283 17.383 6.32359 13.5275C6.51886 9.67309 7.7144 7.05019 7.7144 7.05019C7.7144 7.05019 9.42098 9.87322 9.23817 13.4936C9.05535 17.1119 7.87435 19.4521 7.87435 19.4521ZM6.80761 24.6248C6.80761 24.6248 4.42276 23.3849 3.1701 19.7412C1.91639 16.1006 2.04623 13.2108 2.04623 13.2108C2.04623 13.2108 4.67414 15.1624 5.85202 18.5838C7.02989 22.0008 6.80761 24.6248 6.80761 24.6248ZM7.91279 32.4744C7.91279 32.4744 5.38668 31.5713 3.66348 28.134C1.94028 24.6968 1.68788 21.8166 1.68788 21.8166C1.68788 21.8166 4.55053 23.3901 6.16881 26.6176C7.78607 29.8441 7.91279 32.4744 7.91279 32.4744ZM5.84787 32.9721C8.47368 35.4151 9.4968 37.8325 9.4968 37.8325C9.4968 37.8325 6.81904 37.8907 4.02391 35.289C1.2267 32.6873 0 30.0792 0 30.0792C0 30.0792 3.22204 30.5282 5.84787 32.9721ZM11.0154 40.7297C14.334 43.2118 15.8037 45.8654 15.8037 45.8654C15.8037 45.8654 12.7293 46.2688 9.19662 43.6248C5.66505 40.9806 3.93562 38.1343 3.93562 38.1343C3.93562 38.1343 7.69778 38.2476 11.0154 40.7297ZM18.656 8.35687C18.656 8.35687 17.9072 11.5834 15.2709 14.0135C12.6336 16.4437 10.174 17.2506 10.174 17.2506C10.174 17.2506 10.3735 14.5292 13.1832 11.9413C15.9907 9.3533 18.656 8.35687 18.656 8.35687ZM12.2878 40.4067C12.2878 40.4067 10.1169 38.3715 9.83957 34.1327C9.56327 29.8918 10.5386 26.8623 10.5386 26.8623C10.5386 26.8623 12.7635 29.7255 13.0232 33.707C13.2839 37.6896 12.2878 40.4067 12.2878 40.4067ZM8.6752 22.9993C10.2062 19.4701 12.242 17.455 12.242 17.455C12.242 17.455 12.8476 20.7132 11.409 24.0275C9.97148 27.3431 8.04782 29.0987 8.04782 29.0987C8.04782 29.0987 7.14311 26.5298 8.6752 22.9993ZM12.9827 46.254C16.9838 47.2367 19.3457 49.1056 19.3457 49.1056C19.3457 49.1056 16.6627 50.6887 12.4041 49.6425C8.14234 48.5973 5.46874 46.65 5.46874 46.65C5.46874 46.65 8.98265 45.2714 12.9827 46.254ZM77.2239 46.254C81.2239 45.2714 84.7379 46.65 84.7379 46.65C84.7379 46.65 82.0642 48.5973 77.8036 49.6425C73.5439 50.6887 70.8619 49.1056 70.8619 49.1056C70.8619 49.1056 73.2219 47.2367 77.2239 46.254ZM74.4018 45.8654C74.4018 45.8654 75.8726 43.2118 79.1902 40.7297C82.5088 38.2476 86.271 38.1343 86.271 38.1343C86.271 38.1343 84.5426 40.9806 81.01 43.6248C77.4773 46.2688 74.4018 45.8654 74.4018 45.8654ZM90.2077 30.0792C90.2077 30.0792 88.9789 32.6873 86.1838 35.289C83.3875 37.8907 80.7108 37.8325 80.7108 37.8325C80.7108 37.8325 81.734 35.4151 84.3588 32.9721C86.9846 30.5282 90.2077 30.0792 90.2077 30.0792ZM82.1599 29.0987C82.1599 29.0987 80.2341 27.3431 78.7965 24.0275C77.359 20.7132 77.9635 17.455 77.9635 17.455C77.9635 17.455 80.0004 19.4701 81.5314 22.9993C83.0625 26.5298 82.1599 29.0987 82.1599 29.0987ZM80.366 34.1327C80.0898 38.3715 77.9188 40.4067 77.9188 40.4067C77.9188 40.4067 76.9238 37.6896 77.1835 33.707C77.4432 29.7255 79.668 26.8623 79.668 26.8623C79.668 26.8623 80.6433 29.8918 80.366 34.1327ZM71.5516 8.35687C71.5516 8.35687 74.2149 9.3533 77.0245 11.9413C79.8321 14.5292 80.0325 17.2506 80.0325 17.2506C80.0325 17.2506 77.574 16.4437 74.9368 14.0135C72.2985 11.5834 71.5516 8.35687 71.5516 8.35687Z" fill="#2A2829"/>
</svg>
