<svg width="64" height="63" viewBox="0 0 64 63" fill="none" xmlns="http://www.w3.org/2000/svg">
    <g clip-path="url(#clip0)">
        <path d="M0 27.6333V55.2669H3.92418H7.84835V58.6456V62.0244H35.9242H64V34.3475V6.67059H60.1501H56.3002V3.33512V-0.000336618H28.1501H0V27.6333ZM54.6538 4.09937V6.67059H31.2511H7.84835V15.6002V24.5299H7.81431H7.78027V24.4958V24.4618H7.70599H7.63172V24.4247V24.3875H7.59149H7.55126V24.3504V24.3133H7.47698H7.40271V24.2761V24.239H7.36557H7.32843V24.2019V24.1647H7.25416H7.17988V24.1276V24.0905H7.14275H7.10561V24.0534V24.0162H7.03133H6.95706V23.9791V23.942H6.91992H6.88278V23.9079V23.8739H6.80851H6.73423V23.8368V23.7996H6.694H6.65377V23.7625V23.7254H6.61663H6.5795V23.6883V23.6511H6.50522H6.43095V23.614V23.5769H6.39381H6.35667V23.5434V23.51L6.2824 23.5057L6.20812 23.5014V23.4649V23.4283H6.17099H6.13385V23.3912V23.3541H6.05957H5.9853V23.3201V23.286H5.94816H5.91102V23.2489V23.2118H5.83675H5.76247V23.1746V23.1375H5.72224H5.68201V23.1004V23.0632H5.60774H5.53346V23.0261V22.989H5.49632H5.45919V22.9519V22.9147H5.38491H5.31064V22.8776V22.8405H5.2735H5.23636V22.8033V22.7662H5.16209H5.08781V22.7322V22.6981H5.05068H5.01354V22.661V22.6239H4.97331H4.93307V22.5867V22.5496H4.8588H4.78453V22.5125V22.4754H4.74739H4.71025V22.4382V22.4011H4.63598H4.5617V22.364V22.3268H4.52456H4.48743V22.2897V22.2526H4.41315H4.33888V22.2155V22.1783H4.30174H4.2646V22.1443V22.1103H4.19033H4.11605V22.0731V22.036H4.07892H4.04178V21.9989V21.9617H3.9675H3.89323V21.9246V21.8875H3.853H3.81277V21.8503V21.8132H3.73849H3.66422V21.7761V21.739H3.62708H3.58994V21.7018V21.6647H3.51567H3.44139V21.6276V21.5904H3.40425H3.36712V21.5533V21.5162H3.32998H3.29284V21.4821V21.4481H3.21857H3.14429V21.411V21.3738H3.10406H3.06383V21.3367V21.2996H2.99265H2.92147V21.2625V21.2253H2.88124H2.84101V21.1882V21.1511H2.76673H2.69246V21.1139V21.0768H2.65532H2.61818V21.0397V21.0026H2.54391H2.46963V20.9654V20.9283H2.43249H2.39536V20.8943V20.8602H2.32108H2.24681V20.8231V20.786H2.20967H2.17253V20.7488V20.7117H2.09826H2.02398V20.6746V20.6375H1.98375H1.94352V20.6003V20.5632H1.86925H1.79497V20.5261V20.4889H1.75783H1.7207V20.4518V20.4147H1.68356H1.64642V20.3775V20.3404H1.60928H1.57215V10.9343V1.52815H28.113H54.6538V4.09937ZM54.6538 16.5965V24.9011H32.0743H9.49478V24.864V24.8269H9.45764H9.4205V16.5594V8.29191H32.0371H54.6538V16.5965ZM62.5021 16.5965V24.9011H59.4011H56.3002V16.5965V8.29191H59.4011H62.5021V16.5965ZM46.5776 30.8214L46.5795 30.8573L46.7299 30.8592L46.8797 30.8604V30.8945V30.9285H46.9911H47.1025V30.9656V31.0028H47.1768H47.2511V31.0399V31.077H47.2882H47.3253V31.1141V31.1513H47.3996H47.4733L47.4751 31.1865L47.477 31.2224L47.5129 31.2243L47.5482 31.2262V31.2998V31.3741H47.511H47.4739V31.4081V31.4421H47.4367H47.3996V31.5164V31.5906H47.3625H47.3253V31.6278V31.6649H47.2882H47.2511V31.702V31.7392H47.1396H47.0282V31.702V31.6649H46.9911H46.954V31.6278V31.5906H46.8797H46.8054V31.5535V31.5164H46.728H46.6507V31.483V31.4502L46.5999 31.4465C46.5714 31.444 46.4043 31.4421 46.2285 31.4421H45.9079V31.4793V31.5164H45.8677H45.8275V31.5535V31.5906H45.7903H45.7532V31.6278V31.6649H45.716H45.6789L45.6801 31.8116L45.682 31.9588L45.7167 31.9607L45.7519 31.9626L45.7563 32.0331L45.7606 32.1036L45.8324 32.1055L45.9048 32.1074L45.9067 32.1463L45.9085 32.1859L45.981 32.1835L46.0534 32.1816L46.0552 32.2169L46.0571 32.2528H46.205H46.3536V32.2899V32.327H46.5021H46.65L46.6519 32.3623L46.6538 32.3982L46.767 32.4001L46.8797 32.4013V32.4384V32.4756H46.9911H47.1025V32.5127V32.5498H47.1396H47.1768V32.5832V32.6166L47.2511 32.621L47.3253 32.6253V32.6618V32.6983H47.3625H47.399L47.4008 32.7336L47.4027 32.7695L47.4386 32.7714L47.4739 32.7732V32.8066V32.8407H47.5104H47.5469L47.5512 32.9149L47.5556 32.9892H47.589H47.6224V33.1006V33.212H47.6596H47.6967V33.3945V33.5771H47.6596H47.6224V33.6885V33.7998H47.589H47.5556L47.5512 33.871L47.5469 33.9422H47.5135H47.4801V33.9793V34.0164H47.4398H47.3996V34.0536V34.0907H47.3625H47.3253V34.1278V34.1649H47.2882H47.2511V34.2021V34.2392H47.2139H47.1768V34.2763V34.3135H47.1025H47.0289L47.027 34.3487L47.0251 34.3846L46.9156 34.3865L46.8054 34.3877V34.4218V34.4558H46.3195H45.8336V34.4218V34.3877L45.721 34.3865L45.6077 34.3846L45.6059 34.3494L45.604 34.3141L45.5316 34.3122L45.4592 34.3104L45.4573 34.2745L45.4555 34.2392H45.3818H45.3075V34.2021V34.1649H45.2333H45.159V34.1278V34.0907H45.0847H45.0104V34.0536V34.0164H44.9733H44.9362V33.9793V33.9422H44.899H44.8619V33.871V33.7998H44.899H44.9362V33.7627V33.7256H44.9733H45.0104V33.6854V33.6451H45.0476H45.0847V33.6111V33.5771H45.1218H45.159V33.5399V33.5028H45.1961H45.2333V33.4688V33.4347H45.3075H45.3818V33.4688V33.5028H45.4189H45.4561V33.5399V33.5771H45.4963H45.5365V33.6105V33.6439L45.6077 33.6482L45.6783 33.6526L45.6801 33.6878L45.682 33.7225L45.7544 33.7243L45.8268 33.7262L45.8287 33.7615L45.8306 33.7967L45.9438 33.7986L46.0565 33.7998V33.8333V33.8661L46.1134 33.8704C46.1858 33.8753 46.5331 33.8753 46.5999 33.8698L46.6507 33.8661V33.8333V33.8005L46.7268 33.7986L46.8023 33.7967L46.8042 33.7609L46.806 33.7256H46.8425H46.8797V33.6885V33.6513H46.9168H46.954V33.4657V33.28H46.9168H46.8797V33.246V33.212H46.8425H46.8054V33.1748V33.1383L46.767 33.1365L46.728 33.1346L46.7262 33.0993L46.7243 33.0634L46.6148 33.0622L46.5052 33.0603L46.5034 33.0245L46.5015 32.9892H46.3536H46.205V32.9521V32.9149H46.0565H45.9079V32.8778V32.8407H45.7965H45.6851V32.8035V32.7664H45.6077H45.5304V32.733V32.6996L45.4561 32.6952L45.3818 32.6909V32.6544V32.6179H45.3447H45.3075V32.5839V32.5498H45.2704H45.2333V32.5127V32.4756H45.1961H45.159V32.4384V32.4013H45.1218H45.0847V32.327V32.2528H45.0476H45.0104V31.8846V31.5164H45.0476H45.0847V31.4421V31.3679H45.1218H45.159V31.2967V31.2255H45.1961H45.2333V31.1884V31.1513H45.2704H45.3075V31.1141V31.077H45.3447H45.3818V31.0399V31.0028H45.4561H45.5297L45.5316 30.9669L45.5335 30.9316L45.6096 30.9297L45.6851 30.9279V30.8945V30.8604H45.7798C45.8312 30.8604 45.8968 30.8586 45.9253 30.8561L45.976 30.8524V30.8196V30.7862H46.2762H46.5758L46.5776 30.8214ZM14.8735 31.1513V31.4421H14.3505H13.8275V31.4793V31.5164H13.7903H13.7532V32.949V34.3815H13.419H13.0847V32.9118V31.4421H12.5246H11.9644V31.1884V30.9347H12.0015H12.0387V30.8976V30.8604H13.4561H14.8735V31.1513ZM16.2228 31.5937V32.327H17.046H17.8692V31.5937V30.8604H18.1663H18.4628L18.4647 30.8957L18.4665 30.9316L18.5024 30.9334L18.5377 30.9353V32.6581V34.3815H18.2035H17.8692V33.6482V32.9149H17.046H16.2228V33.6482V34.3815H15.8886H15.5543V32.621V30.8604H15.8886H16.2228V31.5937ZM22.0534 31.1513V31.4421H21.0445H20.0356V31.8846V32.327H20.9331H21.8306V32.621V32.9149H20.9331H20.0356V33.3574V33.7998H21.0445H22.0534V34.0907V34.3815H20.7102H19.3671V32.6581V30.9347H19.4043H19.4414V30.8976V30.8604H20.7474H22.0534V31.1513ZM25.0442 30.8957L25.046 30.9316L25.0813 30.9334L25.116 30.9353L25.1203 31.0058L25.1246 31.0764L25.1599 31.0783L25.1946 31.0801L25.1964 31.1154L25.1983 31.1513H25.2348H25.2719V31.2224V31.293L25.3078 31.2948L25.3431 31.2967L25.345 31.3351L25.3468 31.3741H25.3834H25.4205V31.4452V31.5164H25.4576H25.4948V31.5535V31.5906H25.5319H25.569V31.6649V31.7392H25.6062H25.6433V31.8103V31.8815H25.6805H25.7176V31.9217V31.9619H25.7541H25.7906L25.795 32.0331L25.7993 32.1043H25.8327H25.8661V32.1414V32.1785H25.9027H25.9392L25.9435 32.2528L25.9478 32.327H25.9813H26.0141L26.0159 32.3623L26.0178 32.3982L26.0939 32.4001L26.1694 32.4019V32.327V32.2528H26.2066H26.2437V32.2187V32.1847H26.2808H26.318V32.1105V32.0362H26.3551H26.3923V31.996V31.9557H26.4294H26.4665V31.8846V31.8134H26.5037H26.5408V31.7763V31.7392H26.5779H26.6145L26.6163 31.6661L26.6182 31.5937L26.6572 31.5919L26.6955 31.59V31.5535V31.5164H26.729H26.7624L26.7667 31.4452L26.7711 31.3747L26.8063 31.3728L26.841 31.371L26.8429 31.2986L26.8447 31.2262L26.88 31.2243L26.9153 31.2224L26.9171 31.1865L26.919 31.1513H26.9555H26.9926V31.077V31.0028H27.0298H27.0669V30.9656V30.9285H27.101H27.135V30.8945V30.8604H27.5095H27.8839V32.6222V34.3846H27.5126H27.1412V33.2441V32.1043H27.1041H27.0669V32.1414V32.1785H27.0304H26.9939L26.9896 32.2528L26.9852 32.327H26.9487H26.9122V32.3642V32.4013H26.8788H26.8453L26.841 32.4756L26.8361 32.5498H26.8001H26.7636V32.5869V32.6241H26.7302H26.6968L26.6925 32.6952L26.6881 32.7664H26.6516H26.6151V32.8035V32.8407H26.5779H26.5408V32.9149V32.9892H26.5037H26.4665V33.0263V33.0634H26.4294H26.3923V33.1377V33.212H26.3551H26.318V33.2491V33.2862H26.2808H26.2437V33.3574V33.4285H26.2066H26.1694V33.4657V33.5028H26.1323H26.0952V33.5399V33.5771H26.0586H26.0221L26.0178 33.5028L26.0135 33.4285H25.98H25.9466V33.3914V33.3543H25.9101H25.8736L25.8692 33.2831L25.8649 33.212H25.8315H25.7981V33.1748V33.1383L25.7597 33.1365L25.7207 33.1346L25.7188 33.0616L25.717 32.9892H25.6805H25.6433V32.9521V32.9149H25.6062H25.569V32.8407V32.7664H25.5319H25.4948V32.7293V32.6921H25.4576H25.4205V32.621V32.5498H25.3834H25.3462V32.5127V32.4756H25.3091H25.2719V32.4013V32.327H25.2348H25.1977V32.2899V32.2528H25.1612H25.1246L25.1203 32.1785L25.116 32.1043H25.0825H25.0497L25.0479 32.0684L25.046 32.0331H25.0089H24.9718L24.9699 33.207L24.9687 34.3815H24.7471C24.6245 34.3815 24.4741 34.3834 24.4128 34.3859L24.3002 34.3896V32.6253V30.8604H24.6716H25.0423L25.0442 30.8957ZM30.6507 30.9316V31.0028H30.6878H30.7249V31.077V31.1513H30.7652H30.8054V31.2596V31.3672L30.8413 31.3691L30.8766 31.371L30.8784 31.4434L30.8803 31.5158L30.9156 31.5176L30.9509 31.5195L30.9527 31.5919L30.9546 31.6649H30.9911H31.0282V31.7392V31.8134H31.0654H31.1025V31.9217V32.03H31.1396H31.1768V32.1043V32.1785H31.2139H31.2511V32.2528V32.327H31.2882H31.3253V32.4353V32.5436H31.3619H31.3978L31.4027 32.6179L31.407 32.6921H31.4405H31.4739V32.7664V32.8407H31.511H31.5482V32.9149V32.9892H31.5853H31.6224V33.0461C31.6224 33.0777 31.6243 33.1266 31.6268 33.1544L31.6305 33.2058H31.6627H31.6948L31.6998 33.28L31.7041 33.3537L31.7388 33.3555L31.7741 33.3574L31.7759 33.4329L31.7778 33.509H31.8143H31.8514V33.6142V33.7188L31.8873 33.7206L31.9226 33.7225L31.9245 33.7949L31.9263 33.8679H31.9629H32V33.9422V34.0164H32.0371H32.0743V34.0907V34.1649H32.1114H32.1485V34.2732V34.3815H31.8112H31.4739V34.3475V34.3135H31.4405H31.4077L31.4027 34.2392L31.3984 34.1649H31.3619H31.3253V34.0907V34.0164H31.2919H31.2591L31.2548 33.9595C31.2529 33.9286 31.2511 33.8803 31.2511 33.8518V33.8005L31.2158 33.7986L31.1799 33.7967L31.178 33.7237L31.1762 33.6513H31.1396H31.1025V33.6142V33.5771H30.2793H29.4561V33.6513V33.7256H29.419H29.3818V33.7967V33.8679H29.3447H29.3075V33.9422V34.0164H29.2704H29.2333V34.1278V34.2392H29.1961H29.159V34.3116V34.3846L28.7864 34.384H28.4131L28.4113 34.3456L28.4094 34.3073H28.4466H28.4843L28.4856 34.2002L28.4874 34.0938L28.5227 34.0919L28.558 34.0901L28.5598 34.0177L28.5617 33.9453L28.6007 33.9434L28.6391 33.9416V33.8679V33.7937H28.6725H28.7053L28.709 33.7423C28.7115 33.7144 28.7133 33.6656 28.7133 33.634V33.5771H28.7505H28.7876V33.5028V33.4285H28.8248H28.8619V33.3543V33.28H28.8953H28.9287L28.9331 33.2058L28.938 33.1315H28.9702H29.0024L29.0061 33.0801C29.0086 33.0523 29.0104 33.0034 29.0104 32.9719V32.9149H29.0476H29.0847V32.8438V32.7726H29.1219H29.159V32.6952V32.6179H29.1961H29.2333V32.5096V32.4013H29.2704H29.3075V32.327V32.2528H29.3447H29.3812L29.3831 32.1798L29.3849 32.1074L29.4202 32.1055L29.4555 32.1036L29.4573 32.0312L29.4592 31.9588L29.4938 31.957L29.5285 31.9551L29.5322 31.9044C29.5347 31.8765 29.5366 31.8276 29.5366 31.7961V31.7392H29.5737H29.6108V31.6649V31.5906H29.6443H29.6777L29.682 31.5164L29.6863 31.4421H29.7191H29.7513L29.755 31.3908C29.7575 31.3629 29.7594 31.314 29.7594 31.2825V31.2255H29.7965H29.8337V31.1544V31.0832H29.8708H29.9079V31.0058V30.9285H29.9451H29.9822V30.8945V30.8604H30.3164H30.6507V30.9316ZM33.4205 30.9316L33.4248 31.0028H33.4583H33.4917V31.0399V31.077H33.5288H33.566V31.1141V31.1513H33.6062H33.6464V31.1884V31.2255H33.6836H33.7207V31.2967V31.3672L33.7566 31.3691L33.7919 31.371L33.7937 31.4093L33.7956 31.4483H33.8321H33.8692V31.4854V31.5226H33.9064H33.9435V31.5937V31.6649H33.9807H34.0178V31.702V31.7392H34.0549H34.0921V31.7763V31.8134H34.1292H34.1663V31.8846V31.9551L34.2053 31.957L34.2437 31.9588L34.2456 31.9941L34.2474 32.03H34.2808H34.3149V32.0671V32.1043H34.352H34.3892V32.1414V32.1785H34.4257H34.4622L34.4665 32.2528L34.4709 32.327H34.5043H34.5371L34.539 32.3623L34.5408 32.3982L34.5798 32.4001L34.6182 32.4019V32.4384V32.4756H34.6553H34.6925V32.5467V32.6179H34.7296H34.7667V32.6581V32.6983H34.8039H34.841V32.7324V32.7664H34.8781H34.9153V32.8035V32.8407H34.9524H34.9895V32.9149V32.9892H35.0267H35.0638V33.0263V33.0634H35.101H35.1381V33.1006V33.1383L35.1771 33.1365L35.2155 33.1346L35.2173 31.9972L35.2186 30.8604H35.5528H35.887V32.6228V34.3846H35.5887H35.2897L35.2879 34.3487L35.286 34.3135H35.2526H35.2186V34.2763V34.2392H35.1814H35.1443V34.2021V34.1649H35.1041H35.0638V34.0907V34.0164H35.0267H34.9895V33.9793V33.9422H34.9524H34.9153V33.905V33.8679H34.8781H34.841V33.8339V33.7998H34.8039H34.7667V33.7256V33.6513H34.7296H34.6925V33.6142V33.5771H34.6553H34.6182V33.5399V33.5028H34.5817H34.5451L34.5408 33.4285L34.5365 33.3543H34.503H34.4702L34.4684 33.3184L34.4665 33.2831L34.4313 33.2813L34.3954 33.2794V33.246V33.212H34.3588H34.3229L34.318 33.1377L34.3137 33.0634H34.2802H34.2468V33.0263V32.9892H34.2097H34.1731L34.1713 32.9533L34.1694 32.918L34.1311 32.9162L34.0921 32.9143V32.8778V32.8407H34.0586H34.0252L34.0209 32.7695L34.0166 32.6983H33.98H33.9435V32.6581V32.6179H33.9064H33.8692V32.5839V32.5498H33.8321H33.795V32.4756V32.4013H33.7578H33.7207V32.3642V32.327H33.6836H33.6464V32.2899V32.2528H33.6093H33.5721V32.2157V32.1785H33.5356H33.4991L33.4948 32.1074L33.4904 32.0362H33.4576H33.4254L33.4217 32.0869C33.4193 32.1154 33.4174 32.6451 33.4174 33.2639V34.3896L33.3109 34.3859C33.2521 34.3834 33.1017 34.3815 32.9767 34.3815H32.7489V32.621V30.8604H33.0825H33.4162L33.4205 30.9316ZM37.4592 32.6222V34.3846H37.1219H36.7845V32.6222V30.8604H37.1219H37.4592V32.6222ZM41.0429 31.1513V31.4421L40.0359 31.4434L39.0282 31.4452V31.9217V32.3982L39.9245 32.4001L40.8201 32.4013V32.6952V32.9892H39.9226H39.0251V33.6866V34.3846H38.6909H38.3567V32.6222V30.8604H39.6998H41.0429V31.1513ZM44.4101 31.1513V31.4421H43.4012H42.3923V31.8846V32.327H43.2866H44.181V32.621V32.9149H43.2866H42.3923V33.3574V33.7998H43.4012H44.4101V34.0919V34.3846H43.0298H41.6495V32.6222V30.8604H43.0298H44.4101V31.1513ZM50.9895 31.1544V31.4483H50.9524H50.9153V31.4823V31.5164H50.3892H49.863V32.9502V34.3846H49.4948H49.1265V33.0071C49.1265 32.2497 49.1246 31.6043 49.1228 31.5733L49.1184 31.5164H48.5967H48.0743V31.4823V31.4483H48.0371H48V31.1544V30.8604H49.4948H50.9895V31.1544ZM1.71451 35.8234V35.8605H1.79188H1.86925V35.8977V35.9348H1.90638H1.94352V35.9688V36.0029H1.98066H2.01779V36.04V36.0771H2.09207H2.16634V36.1142V36.1514H2.20348H2.24L2.24186 36.1866L2.24371 36.2225L2.31675 36.2244L2.38917 36.2263V36.2628V36.2999H2.42631H2.46344V36.337V36.3741H2.53772H2.61199V36.4113V36.4484H2.64913H2.68565L2.6875 36.4837L2.68936 36.5196L2.76549 36.5214L2.84101 36.5233V36.5567V36.5907H2.87814H2.91528V36.6279V36.665H2.98955H3.06383V36.7021V36.7393H3.10097H3.1381V36.7764V36.8135H3.21238H3.28665V36.8506V36.8878H3.32379H3.36093V36.9249V36.962H3.4352H3.50948V36.9992V37.0363H3.54661H3.58313L3.58499 37.0716L3.58685 37.1075L3.62584 37.1093L3.66422 37.1112V37.1446V37.1786H3.73849H3.81277V37.2158V37.2529H3.8499H3.88704V37.29V37.3271H3.96131H4.03559V37.3643V37.4014H4.07273H4.10986V37.4385V37.4757H4.18414H4.25841V37.5128V37.5499H4.29555H4.33269V37.587V37.6242H4.40696H4.48062L4.48247 37.6594L4.48433 37.6953L4.52023 37.6972L4.55551 37.6991V37.7325V37.7665H4.63288H4.71025V37.8036V37.8408H4.74739H4.78453V37.8779V37.915H4.8588H4.93307V37.9522V37.9893H4.97021H5.00735V38.0264V38.0635H5.08162H5.1559V38.1007V38.1378H5.19304H5.23017V38.1749V38.2121H5.26731H5.30445V38.2455V38.2789L5.37872 38.2832L5.45238 38.2876L5.45424 38.3228L5.45609 38.3575L5.49509 38.3593L5.53346 38.3612V38.3946V38.4286H5.60774H5.68201V38.4658V38.5029H5.71915H5.75629V38.54V38.5772H5.83056H5.90483V38.6143V38.6514H5.94197H5.97911V38.6886V38.7257H6.05338H6.12766V38.7628V38.7999H6.1648H6.20193V38.8371V38.8742H6.27621H6.34986L6.35172 38.9095L6.35358 38.9454L6.38948 38.9472L6.42476 38.9491V38.9825V39.0165H6.50213H6.5795V39.0537V39.0908H6.61663H6.65377V39.1279V39.165H6.72804H6.80232V39.2022V39.2393H6.83946H6.87659V39.2764V39.3136H6.91373H6.95087V39.347V39.3804L7.02514 39.3847L7.09942 39.3891V39.4256V39.4621H7.13656H7.17369V39.4955V39.5289L7.24797 39.5332L7.32224 39.5376V39.571V39.6044H7.35938H7.39652V39.6415V39.6787H7.47389H7.55126V39.7158V39.7529H7.58839H7.62553V39.7901V39.8272H7.69981H7.77408V39.8643V39.9014H7.81122H7.84835V46.7704V53.6393H4.71025H1.57215V44.7128V35.7863H1.64333H1.71451V35.8234ZM54.6538 46.9158V53.6393H32.0371H9.4205V46.9158V40.1923H32.0371H54.6538V46.9158ZM62.5021 50.3348V60.4774H35.9984H9.49478V60.4402V60.4031H9.45764H9.4205V57.835V55.2669H32.8034C45.6647 55.2669 56.2123 55.265 56.2432 55.2631L56.3002 55.2588V47.7259V40.1923H59.4011H62.5021V50.3348Z" fill="#2A2829"/>
        <path d="M28.8566 9.13355V9.17068H28.8194H28.7823V9.31919V9.46771H29.0082H29.2341V10.7177V11.9677H29.2713H29.3084V12.0049V12.042H29.4972H29.686V12.0049V11.9677H29.7231H29.7602V10.7177V9.46771H29.9831H30.2059V9.31919V9.17068H30.1687H30.1316V9.13355V9.09642H29.4941H28.8566V9.13355Z" fill="#2A2829"/>
        <path d="M31.6226 9.13351V9.17064H31.5484H31.4741V9.20777V9.24489H31.3998H31.3255V9.28202V9.31915H31.2884H31.2513V9.39032V9.46148H31.2141H31.177V9.57287V9.68426H31.1399H31.1027V10.6063V11.5283H31.1399H31.177V11.6397V11.7511H31.2141H31.2513V11.7851V11.8192H31.2884H31.3255V11.8563V11.8934H31.3627H31.3998V11.9306V11.9677H31.4741H31.5484V12.0048V12.042H31.7H31.8517V12.0791V12.1162H31.9259H32.0002V12.0791V12.042H32.1519H32.3035V12.0048V11.9677H32.3778H32.452V11.9306V11.8934H32.4892H32.5263V11.8563V11.8192H32.5635H32.6006V11.748V11.6769H32.6377H32.6749V11.5283V11.3798H32.712H32.7491V10.5692V9.75851H32.712H32.6749L32.6736 9.61124L32.6718 9.46457L32.6365 9.46272L32.6006 9.46086V9.42745V9.39341H32.5635H32.5263V9.35628V9.31915H32.4892H32.452V9.28202V9.24489H32.4149H32.3778V9.20777V9.17064H32.3035H32.2292V9.13351V9.09638H31.9259H31.6226V9.13351ZM32.1488 9.5048V9.54193H32.1859H32.223V9.65331V9.7647H32.2602H32.2973V10.6063V11.4479H32.2602H32.223V11.5221V11.5964H32.1859H32.1488V11.6335V11.6707H32.1116H32.0745V11.7078V11.7449H31.9259H31.7774V11.7078V11.6707H31.7031H31.6288V11.5964V11.5221H31.5917H31.5546V10.5692V9.61619H31.5917H31.6288V9.57906V9.54193H31.666H31.7031V9.5048V9.46767H31.9259H32.1488V9.5048Z" fill="#2A2829"/>
        <path d="M33.8685 9.13355V9.17068H33.8283H33.788V10.6063V12.042H34.017H34.2461V11.3799V10.7177H34.5432H34.8403V10.6806V10.6435H34.9176H34.995V10.6063V10.5692H35.0321H35.0693V10.5352V10.5011H35.1064H35.1435V10.464V10.4275L35.1794 10.4256L35.2147 10.4238L35.2166 10.3136L35.2178 10.2041H35.255H35.2921L35.2909 9.90831L35.289 9.61313L35.2537 9.61127L35.2178 9.60942V9.53578V9.46152H35.1807H35.1435V9.39036V9.31919H35.1064H35.0693V9.28206V9.24493H34.9919H34.9145V9.20781V9.17068H34.8031H34.6917V9.13355V9.09642H34.2801H33.8685V9.13355ZM34.6855 9.50484V9.54197H34.7227H34.7592L34.761 9.57724L34.7629 9.61313L34.8019 9.61499L34.8403 9.61684V9.9442V10.2722H34.8H34.7598V10.3093V10.3464H34.5029H34.2461V9.90707V9.46771H34.4658H34.6855V9.50484Z" fill="#2A2829"/>
        <path d="M24.8192 15.0124V15.0495H24.7078H24.5964V15.0866V15.1238H24.5592H24.5221V15.1609V15.198H24.485H24.4478V15.2352V15.2717L24.4095 15.2735L24.3705 15.2754L24.3686 15.3818L24.3674 15.4883L24.3315 15.4901L24.2962 15.492L24.2943 15.6789L24.2931 15.8664H24.3302H24.3674V15.9747V16.0829H24.4076H24.4478V16.1572V16.2315H24.485H24.5221V16.2686V16.3057H24.5592H24.5964V16.3429V16.38H24.6335H24.6707V16.4171V16.4542H24.7078H24.7449V16.492C24.7449 16.5161 24.7474 16.5279 24.7511 16.5254C24.7548 16.5229 24.7883 16.5236 24.8254 16.5254L24.8935 16.5304V16.5632V16.5966H24.9306H24.9678V16.6337V16.6708H25.0049H25.042V16.708V16.7451H25.0792H25.1163V16.7822V16.8194H25.1534H25.1906V16.8565V16.8936H25.2277H25.2649V16.9307V16.9679H25.302H25.3391L25.3404 17.0774L25.3422 17.1876L25.3812 17.1894L25.4196 17.1913V17.2958V17.4004L25.3812 17.4023L25.3422 17.4041L25.3404 17.4765L25.3385 17.5496H25.302H25.2649V17.5867V17.6238H25.1194H24.9739V17.5867V17.5496H24.8997H24.8254V17.4753V17.401H24.7883H24.7511V17.2185V17.0359H24.5995H24.4478V17.0731V17.1102H24.3705H24.2931V17.2216V17.333H24.3302H24.3674V17.4444V17.5558H24.4076H24.4478V17.63V17.7043H24.485H24.5221V17.7414V17.7785H24.5592H24.5964V17.8126V17.8466H24.6335H24.6707V17.8837V17.9209H24.7821H24.8935V17.958V17.9951H25.0823H25.271V17.958V17.9209H25.3825H25.4939V17.8837V17.8466H25.5341H25.5743V17.8126V17.7785H25.6115H25.6486V17.7414V17.7043H25.6857H25.7229V17.63V17.5558H25.76H25.7972V17.2587V16.9617H25.76H25.7229V16.8874V16.8132H25.6857H25.6492L25.6474 16.7401L25.6455 16.6677L25.6102 16.6659L25.5743 16.664V16.6306V16.5966H25.5341H25.4939V16.5594V16.5223H25.4567H25.4196V16.4852V16.4481H25.3825H25.3453V16.4109V16.3738H25.3082H25.271V16.3367V16.2995H25.2339H25.1968V16.2624V16.2253H25.1596H25.1225V16.1881V16.151H25.0482H24.9739V16.1139V16.0768H24.9368H24.8997V16.0427V16.0087H24.8625H24.8254V15.9716V15.9344H24.7883H24.7511V15.6776V15.4208H24.7883H24.8254V15.3868V15.3527H25.008H25.1906V15.3868V15.4208H25.2277H25.2649V15.4579V15.4951H25.302H25.3391V15.6436V15.7921H25.3794H25.4196V15.8292V15.867L25.4957 15.8651L25.5712 15.8633L25.5731 15.8274L25.5749 15.7921H25.6486H25.7229V15.6065V15.4208H25.6857H25.6486V15.3465V15.2723H25.6115H25.5743V15.2352V15.198H25.5341H25.4939V15.1609V15.1238H25.4567H25.4196V15.0866V15.0495H25.3082H25.1968V15.0124V14.9753H25.008H24.8192V15.0124Z" fill="#2A2829"/>
        <path d="M30.096 14.9796L30.0571 14.9821V15.0155V15.0495L29.9444 15.0508L29.8311 15.0526L29.8293 15.0879L29.8274 15.1238H29.7909H29.7538V15.1609V15.198H29.7166H29.6795V15.2352V15.2723H29.6424H29.6052V15.3465V15.4208H29.5681H29.5309V15.6034V15.7853L29.4957 15.7872L29.4598 15.789L29.4579 16.4864L29.4567 17.1845H29.4938H29.5309V17.3701V17.5558H29.5681H29.6052V17.63V17.7043H29.6424H29.6795V17.7414V17.7785H29.7166H29.7538V17.8126V17.8466H29.828H29.9023V17.8837V17.9209H30.0168H30.1313V17.958V17.9951H30.3201H30.5089V17.958V17.9209H30.6203H30.7317V17.8837V17.8466H30.7689H30.806V17.8126V17.7785H30.8431H30.8803V17.7414V17.7043H30.9174H30.9545V17.6671V17.63H30.9917H31.0288V17.5558V17.4815H31.0659H31.1031V16.4852V15.4889H31.0659H31.0288V15.4177V15.3465H30.9917H30.9545V15.2723V15.198H30.9174H30.8803V15.1609V15.1238H30.806H30.7317V15.0866V15.0495H30.6203H30.5089V15.0124V14.9753L30.322 14.9765C30.2186 14.9771 30.1171 14.9783 30.096 14.9796ZM30.5027 15.3868V15.4208H30.5398H30.577V15.4579V15.4951H30.6141H30.6512V16.4852V17.4753H30.6141H30.577V17.5124V17.5496H30.5398H30.5027V17.5867V17.6238H30.317H30.1313V17.5867V17.5496H30.0942H30.0571V17.5124V17.4753H30.0199H29.9828V16.4852V15.4951H30.0199H30.0571V15.4579V15.4208H30.0942H30.1313V15.3868V15.3527H30.317H30.5027V15.3868Z" fill="#2A2829"/>
        <path d="M26.8387 16.4852V17.9209H27.0646H27.2905V17.2588V16.5966H27.6248H27.959V17.2588V17.9209H28.188H28.417V16.4852V15.0496H28.188H27.959V15.6375V16.2253L27.8866 16.226C27.7826 16.2266 27.3753 16.2266 27.3295 16.226L27.2905 16.2253V15.6375V15.0496H27.0646H26.8387V16.4852Z" fill="#2A2829"/>
        <path d="M32.2235 16.4852V17.9209H32.4494H32.6753V17.2588V16.5966H32.9755H33.2757V16.5632V16.5304L33.3438 16.5255C33.381 16.5236 33.4144 16.523 33.4181 16.5255C33.4218 16.5279 33.4243 16.5162 33.4243 16.492V16.4543H33.4614H33.4986V16.4172V16.38H33.5357H33.5728V16.3058V16.2315H33.61H33.6471V16.0861V15.9407H33.6842H33.7214V15.8633V15.786H33.6842H33.6471V15.6034V15.4209H33.61H33.5728V15.3466V15.2724H33.5357H33.4986V15.2352V15.1981H33.4614H33.4243V15.161V15.1238H33.35H33.2757V15.0867V15.0496H32.7496H32.2235V16.4852ZM33.0467 15.3868V15.4209H33.121H33.1953V15.4951V15.5694H33.2324H33.2695V15.8231V16.0768H33.2324H33.1953V16.1511V16.2253H33.0839H32.9724V16.2625V16.2996H32.8239H32.6753V15.8262V15.3528H32.861H33.0467V15.3868Z" fill="#2A2829"/>
        <path d="M34.6854 16.4852V17.9209H34.9107H35.136L35.1397 17.8448C35.1422 17.8033 35.1428 17.1579 35.1422 16.411L35.1404 15.0527L34.9132 15.0508L34.6854 15.0496V16.4852Z" fill="#2A2829"/>
        <path d="M36.2584 16.4852V17.9209H36.4843H36.7102V17.2588V16.5966H36.9733H37.2363V16.5626V16.5286H37.2734H37.3106V16.4141V16.2996H37.0104H36.7102V15.8262V15.3528H37.0847H37.4591V15.2012V15.0496H36.8587H36.2584V16.4852Z" fill="#2A2829"/>
        <path d="M38.2018 15.1269V15.2043H38.239H38.2761V15.3126V15.4209H38.3133H38.3504V15.5323V15.6436H38.3875H38.4247V15.755V15.8664H38.4618H38.4989V15.9747V16.083H38.5392H38.5794V16.1944V16.3058H38.6165H38.6537V16.4172V16.5286H38.6908H38.728V16.6369V16.7451H38.7651H38.8022V17.333V17.9209H39.0281H39.2541V17.3702V16.8194H39.2912H39.3283V16.708V16.5966H39.3655H39.4026V16.4883V16.38H39.4398H39.4769V16.2687V16.1573H39.514H39.5512V16.0459V15.9345H39.5883H39.6254V15.8262V15.7179H39.6657H39.7059V15.6065V15.4951H39.743H39.7802V15.3868V15.2785H39.8173H39.8545V15.1641V15.0496H39.6626H39.4707V15.0867V15.1238H39.4336H39.3964V15.2352V15.3466H39.3593H39.3222V15.4549V15.5632H39.285H39.2479V15.6746V15.786H39.2107H39.1736V15.9314V16.0768H39.1365H39.0993V16.1882V16.2996H39.0653H39.0312V16.2625V16.2253H38.9941H38.957V16.117V16.0087H38.9198H38.8827V15.8974V15.786H38.8456H38.8084V15.6746V15.5632H38.7713H38.7341V15.4178V15.2724H38.6939H38.6537V15.161V15.0496H38.4278H38.2018V15.1269Z" fill="#2A2829"/>
        <path d="M32.8177 20.8944V20.9284H32.7063H32.5949V20.9655V21.0027H32.5577H32.5206V21.0398V21.0769H32.4835H32.4463V21.1141V21.1512H32.4092H32.3721V21.1883V21.2255H32.3349H32.2978V21.3368V21.4482H32.2606H32.2235V22.3672V23.2861H32.2606H32.2978V23.3975V23.5089H32.3349H32.3721V23.546V23.5832H32.4092H32.4463V23.6203V23.6574H32.4835H32.5206V23.6946V23.7317H32.5577H32.5943L32.5961 23.767L32.598 23.8029L32.7082 23.8047L32.8177 23.806V23.84V23.874H33.0436H33.2695V23.84V23.806H33.384H33.4986V23.7688V23.7317H33.5357H33.5728V23.6946V23.6574H33.61H33.6471V23.6203V23.5832H33.6842H33.7214V23.5089V23.4347H33.7585H33.7957V23.3264V23.2181H33.8328H33.8699V22.3703V21.5225H33.8328H33.7957V21.4111V21.2997H33.7585H33.7214V21.2255V21.1512H33.6842H33.6471V21.1141V21.0769H33.61H33.5728V21.0398V21.0027H33.5357H33.4986V20.9655V20.9284H33.384H33.2695V20.8944V20.8603H33.0436H32.8177V20.8944ZM33.1953 21.2688V21.3059H33.2695H33.3438V21.4142V21.5225H33.381H33.4181V22.3672V23.2119H33.381H33.3438V23.3202V23.4285H33.2695H33.1953V23.4656V23.5027H33.0096H32.8239V23.4656V23.4285H32.7868H32.7496V23.3573V23.2861H32.7125H32.6753V22.3672V21.4482H32.7125H32.7496V21.3771V21.3059H32.7868H32.8239V21.2688V21.2316H33.0096H33.1953V21.2688Z" fill="#2A2829"/>
        <path d="M42.5409 20.8944V20.9284H42.4667H42.3924V20.9655V21.0021L42.354 21.0039L42.315 21.0058L42.3132 21.041L42.3113 21.0769H42.2748H42.2377V21.1141V21.1512H42.2005H42.1634V21.1883V21.2255H42.1262H42.0891V21.5596V21.8938H42.1262H42.1628L42.1646 21.9662L42.1665 22.0392L42.2024 22.0411L42.2377 22.0429V22.0763V22.1104H42.2748H42.3119V22.1475V22.1846H42.3522H42.3924V22.2218V22.2589H42.4295H42.4667V22.296V22.3332H42.5038H42.5409V22.3703V22.4074H42.5781H42.6152V22.4445V22.4817H42.6524H42.6895V22.5188V22.5559H42.7266H42.7632L42.765 22.5912L42.7669 22.6271L42.8028 22.6289L42.838 22.6308V22.6642V22.6983H42.9123H42.9866V22.7725V22.8468H43.0237H43.0609V22.8839V22.921H43.098H43.1351V23.1748V23.4279L43.0627 23.4297L42.9897 23.4316L42.9878 23.4668L42.986 23.5027H42.8411H42.6957V23.4656V23.4285H42.6585H42.622L42.6202 23.3926L42.6183 23.3573L42.583 23.3554L42.5471 23.3536V23.2459V23.1376H42.51H42.4729V23.0262V22.9148H42.3181H42.1634V22.952V22.9891H42.1262H42.0891V23.1748V23.3604H42.1262H42.1634V23.4347V23.5089H42.2005H42.2377V23.546V23.5832H42.2748H42.3119V23.6203V23.6574H42.3522H42.3924V23.6946V23.7317H42.4295H42.4667V23.7688V23.806H42.5781H42.6895V23.84V23.874H42.8783H43.0671V23.84V23.806H43.1413H43.2156V23.7688V23.7317H43.2899H43.3642V23.6946V23.6574H43.4044H43.4446V23.5832V23.5089H43.4818H43.5189V23.4347V23.3604H43.556H43.5932V23.1748V22.9891H43.556H43.5189L43.5177 22.879L43.5158 22.7694L43.4805 22.7676L43.4446 22.7657V22.6952V22.624H43.4044H43.3642V22.5869V22.5497H43.327H43.2899V22.4755V22.4012H43.2527H43.2156V22.3641V22.327H43.1785H43.1413V22.2935V22.2601L43.0671 22.2558L42.9928 22.2515V22.215V22.1784H42.9556H42.9185V22.1444V22.1104H42.8814H42.8442V22.0732V22.0361H42.8071H42.77V21.999V21.9619H42.7328H42.6957V21.9247V21.8876H42.6585H42.6214V21.8505V21.8133H42.5843H42.5471V21.7762V21.7391H42.51H42.4729V21.5596V21.3808L42.5088 21.3789L42.544 21.3771L42.5459 21.3412L42.5478 21.3059H42.5843H42.6214V21.2688V21.2316H42.7669H42.9123V21.2688V21.3059H42.9866H43.0609V21.4142V21.5225H43.098H43.1351V21.6339V21.7453H43.2497H43.3642V21.7081V21.671H43.4415H43.5189V21.5225V21.374H43.4818H43.4446V21.2997V21.2255H43.4044H43.3642V21.1512V21.0769H43.327H43.2899V21.0398V21.0027H43.2527H43.2156V20.9655V20.9284H43.1042H42.9928V20.8944V20.8603H42.7669H42.5409V20.8944Z" fill="#2A2829"/>
        <path d="M20.632 20.9356C20.6302 20.9399 20.6296 21.5866 20.6302 22.3731L20.632 23.8026L21.1569 23.8044L21.6812 23.8057V23.7685V23.732L21.7573 23.7302L21.8328 23.7283L21.8347 23.6924L21.8365 23.6571H21.9102H21.9844V23.5829V23.5086H22.0216H22.0587V23.4715V23.4344H22.0959H22.133V23.2889V23.1435H22.1701H22.2073L22.206 22.331L22.2042 21.5191L22.1689 21.5173L22.133 21.5154V21.4077V21.2994H22.0959H22.0587V21.2252V21.1509H22.0216H21.9844V21.1138V21.0766H21.9473H21.9108L21.9089 21.0408L21.9071 21.0055L21.7944 21.0036L21.6812 21.0024V20.9653V20.9281H21.1581C20.7453 20.9281 20.6339 20.93 20.632 20.9356ZM21.4521 21.2685V21.3056H21.5264H21.6001L21.6019 21.3409L21.6038 21.3768L21.6428 21.3786L21.6812 21.3805V21.4882V21.5965H21.7183H21.7554V22.3669V23.1373H21.7183H21.6812V23.2456V23.3533L21.6428 23.3552L21.6038 23.357L21.6019 23.3923L21.6001 23.4276L21.5648 23.4294L21.5295 23.4313L21.5277 23.4665L21.5258 23.5024H21.3067H21.087V22.3669V21.2314H21.2696H21.4521V21.2685Z" fill="#2A2829"/>
        <path d="M23.2487 22.3669V23.8057H23.8491H24.4495V23.6541V23.5024H24.0781H23.7067V22.9919V22.4814H24.0038H24.3009V22.3298V22.1782H24.0038H23.7067V21.7048V21.2314H24.0781H24.4495V21.0797V20.9281H23.8491H23.2487V22.3669Z" fill="#2A2829"/>
        <path d="M25.3449 20.9325C25.3393 20.9374 25.3393 21.1064 25.3449 21.1738L25.3486 21.2252H25.3845H25.421V21.3737V21.5222H25.4581H25.4953V21.7078V21.8935H25.5324H25.5696V22.0389V22.1843H25.6067H25.6438V22.3329V22.4814H25.681H25.7181V22.6639V22.8465H25.7552H25.7924V22.995V23.1435H25.8295H25.8667V23.3261V23.5086H25.9038H25.9409V23.6571V23.8057H26.1669H26.3928V23.6571V23.5086H26.433H26.4732V23.3632V23.2184L26.5091 23.2165L26.5444 23.2147L26.5463 23.0303L26.5475 22.8465H26.5847H26.6218V22.7011V22.5556H26.6589H26.6961V22.37V22.1843H26.7332H26.7703V22.0389V21.8935H26.8075H26.8446V21.7078V21.5222H26.8818H26.9189V21.3768V21.2314H26.956H26.9932V21.0797V20.9281H26.8044H26.6156V20.9653V21.0024H26.5785H26.5413V21.188V21.3737H26.5042H26.467V21.5562V21.7388H26.4299H26.3928V21.9244V22.1101H26.3563H26.3204L26.316 22.167C26.3142 22.198 26.3123 22.2803 26.3123 22.3496V22.4752H26.2752H26.238V22.6577V22.8403H26.204H26.1699V22.7691V22.698H26.1328H26.0957V22.5123V22.3267H26.0585H26.0214V22.1812V22.0358H25.9843H25.9471V21.8502V21.6645H25.91H25.8728V21.482V21.2994H25.8357H25.7986V21.1509V21.0024H25.7614H25.7249L25.7231 20.9665L25.7212 20.9312L25.5349 20.9294C25.4328 20.9287 25.3474 20.93 25.3449 20.9325Z" fill="#2A2829"/>
        <path d="M27.9575 22.3669V23.8057H28.5578H29.1582V23.6541V23.5024H28.7869H28.4155V22.9919V22.4814H28.7126H29.0097V22.3298V22.1782H28.7126H28.4155V21.7048V21.2314H28.7869H29.1582V21.0797V20.9281H28.5578H27.9575V22.3669Z" fill="#2A2829"/>
        <path d="M30.1304 22.3669V23.8057H30.7679H31.4054L31.4042 23.6553L31.4023 23.5055L31.0297 23.5037L30.6565 23.5024L30.6552 22.2165L30.6534 20.9312L30.3922 20.9294L30.1304 20.9281V22.3669Z" fill="#2A2829"/>
        <path d="M34.9147 22.3669V23.8057H35.1407H35.3666V23.1435V22.4814H35.6668H35.967V22.4442V22.4071H36.0412H36.1155V22.37V22.3329H36.1526H36.1898V22.2957V22.2586H36.2269H36.264V22.2215V22.1843H36.3012H36.3383V22.1132V22.042H36.3755H36.4126V21.7078V21.3737H36.3755H36.3383V21.2994V21.2252H36.3012H36.264V21.188V21.1509H36.2269H36.1898V21.1138V21.0766H36.1526H36.1155V21.0395V21.0024H36.0784H36.0418L36.04 20.9665L36.0381 20.9312L35.4767 20.9294L34.9147 20.9281V22.3669ZM35.8122 21.2685V21.3056H35.8494H35.8865V21.3427V21.3799H35.9236H35.9608V21.7078V22.0358H35.9236H35.8865V22.073V22.1101H35.8091H35.7318V22.1441V22.1782H35.5492H35.3666V21.7048V21.2314H35.5894H35.8122V21.2685Z" fill="#2A2829"/>
        <path d="M37.3787 22.3669V23.8057H37.979H38.5794V23.6541V23.5024H38.2081H37.8367V22.9919V22.4814H38.1338H38.4309V22.3298V22.1782H38.1338H37.8367V21.7048V21.2314H38.2081H38.5794V21.0797V20.9281H37.979H37.3787V22.3669Z" fill="#2A2829"/>
        <path d="M39.5515 22.3666V23.8054H39.7774H40.0033V23.1433V22.4811H40.1487H40.2942V22.5523V22.6234H40.3313H40.3685V22.7348V22.8462H40.4056H40.4428V22.9947V23.1433H40.483H40.5232V23.2887V23.4341H40.5604H40.5975V23.5455V23.6569H40.6346H40.6718V23.7318V23.8066L40.8977 23.8048L41.1236 23.8023V23.7633V23.725H41.0865H41.0493V23.6136V23.5022H41.0122H40.9751V23.3568V23.2113H40.9379H40.9008V23.0999V22.9886H40.8636H40.8265V22.8431V22.6977H40.7894H40.7522V22.5492V22.4007H40.7151H40.678V22.3666V22.3326H40.7522H40.8265V22.2955V22.2583H40.8636H40.9008V22.2212V22.1841H40.9379H40.9751V22.1129V22.0418H41.0122H41.0493V21.7076V21.3734H41.0122H40.9751V21.2992V21.2249H40.9379H40.9008V21.1878V21.1506H40.8636H40.8265V21.1135V21.0764H40.7894H40.7522V21.0393V21.0021H40.678H40.6043L40.6024 20.9662L40.6006 20.931L40.0763 20.9291L39.5515 20.9279V22.3666ZM40.3685 21.2682V21.3054H40.4458H40.5232V21.3425V21.3796H40.5604H40.5975V21.6705V21.9613H40.5604H40.5232V21.9984V22.0356H40.483H40.4428V22.0727V22.1098H40.223H40.0033V21.6705V21.2311H40.1859H40.3685V21.2682Z" fill="#2A2829"/>
        <path d="M30.2051 31.8506V31.962H30.168H30.1309V32.0332V32.1043H30.0937H30.0566V32.1786V32.2529H30.0194H29.9823V32.3642V32.4756H29.9452H29.9087L29.9068 32.548L29.9049 32.6211L29.8703 32.6229L29.8356 32.6248L29.8319 32.6755C29.8294 32.7034 29.8276 32.7522 29.8276 32.7832V32.8407H29.7904H29.7533V32.915V32.9893H30.3135H30.8736V32.9521V32.915H30.8402H30.8068L30.8024 32.8407L30.7981 32.7665H30.7647H30.7319L30.73 32.6935L30.7282 32.6211L30.6929 32.6192L30.657 32.6173V32.5604C30.657 32.5289 30.6551 32.4806 30.6526 32.4521L30.6489 32.4014H30.6167H30.5839L30.5796 32.3271L30.5753 32.2529H30.5418H30.5084V32.1786V32.1043H30.4682H30.428V32.0332V31.962H30.3945H30.3611L30.3568 31.8878L30.3524 31.8135H30.3159H30.2794V31.7764V31.7392H30.2423H30.2051V31.8506Z" fill="#2A2829"/>
        <path d="M27.5872 45.149V45.1862H27.4758H27.3644V45.2233V45.2604H27.3273H27.2901V45.2976V45.3347H27.2499H27.2097V45.409V45.4832H27.1725H27.1354V45.5915V45.6992L27.1001 45.701L27.0642 45.7029L27.0623 45.8898L27.0605 46.0773H27.2901H27.5191V45.8917V45.706H27.5563H27.5934V45.6348V45.5637H27.6305H27.6677V45.5265V45.4894H27.8503H28.0329V45.5606V45.6317H28.07H28.1071V45.8886V46.1454H28.07H28.0329V46.2196V46.2939H27.9957H27.9586V46.3651V46.4362H27.9215H27.8843V46.4765V46.5167H27.8472H27.81V46.5879V46.659H27.7729H27.7358V46.7333V46.8075H27.6986H27.6615V46.8447V46.8818H27.6244H27.5872V46.953V47.0241H27.5501H27.5129V47.0613V47.0984H27.4758H27.4387V47.1727V47.2469H27.4015H27.3644V47.2841V47.3212H27.3273H27.2901V47.3955V47.4697H27.2499H27.2097V47.5037V47.5372L27.1744 47.539L27.1385 47.5409L27.1366 47.6133L27.1348 47.6863H27.0982H27.0611V47.872V48.0576H27.776H28.4909L28.4897 47.8732L28.4878 47.6894L28.0409 47.6875L27.5934 47.6863V47.6523V47.6182H27.6305H27.6677V47.544V47.4697H27.7048H27.742V47.4357V47.4016H27.7791H27.8162V47.3274V47.2531H27.8534H27.8905V47.216V47.1789H27.9276H27.9648V47.1046V47.0303H28.0019H28.0391V46.9932V46.9561H28.0762H28.1133V46.8849V46.8137H28.1505H28.1876V46.7766V46.7395H28.2247H28.2619V46.6652V46.5909H28.3021H28.3423V46.5167V46.4424H28.3795H28.4166V46.3682V46.2939H28.4538H28.4909V46.1856V46.0773H28.528H28.5652L28.5639 45.8898L28.5621 45.7029L28.5268 45.701L28.4909 45.6992V45.5544V45.409H28.4538H28.4166V45.3718V45.3347H28.3795H28.3423V45.2976V45.2604H28.3021H28.2619V45.2233V45.1862H28.1876H28.1133V45.149V45.1119H27.8503H27.5872V45.149Z" fill="#2A2829"/>
        <path d="M30.1299 45.149V45.1855L30.0544 45.1874L29.9783 45.1892L29.9764 45.2245L29.9746 45.2604H29.9009H29.8266V45.2975V45.3346H29.7895H29.7524V45.4089V45.4832H29.7152H29.6781V45.6286V45.7734L29.6428 45.7753L29.6069 45.7771L29.6051 46.6231L29.6038 47.4697H29.641H29.6781V47.5811V47.6925H29.7152H29.7524V47.7667V47.841H29.7895H29.8266V47.8781V47.9152H29.8638H29.9003L29.9021 47.9505L29.904 47.9864L29.9399 47.9883L29.9752 47.9901V48.0235V48.0576H30.1268H30.2785V48.0947V48.1318H30.3558H30.4332V48.0947V48.0576H30.5817H30.7303V48.0235V47.9895H30.7674H30.8045V47.9524V47.9152H30.8417H30.8788V47.8781V47.841H30.916H30.9531V47.8038V47.7667H30.9902H31.0274V47.6553V47.5439H31.0645H31.1016V46.5878V45.6317H31.0645H31.0274V45.5574V45.4832H30.9902H30.9531V45.4089V45.3346H30.916H30.8788V45.2975V45.2604H30.8417H30.8045V45.2233V45.1861H30.7303H30.6566L30.6548 45.1502L30.6529 45.115L30.3917 45.1131L30.1299 45.1119V45.149ZM30.5755 45.5605V45.6317H30.6127H30.6498V46.5847V47.5371L30.6145 47.539L30.5786 47.5408L30.5768 47.6132L30.5749 47.6863H30.5013H30.427V47.7234V47.7605H30.3558H30.2846V47.7234V47.6863H30.2073H30.1299V47.612V47.5377H30.0928H30.0556V46.5847V45.6317H30.0928H30.1299V45.5977V45.5636H30.167H30.2042V45.5265V45.4894H30.3899H30.5755V45.5605Z" fill="#2A2829"/>
        <path d="M32.6726 45.1162C32.6701 45.1181 32.6682 45.1348 32.6682 45.1534V45.1862H32.6311H32.594V45.2233V45.2604H32.5568H32.5197V45.2976V45.3347H32.4454H32.3711V45.3718V45.409H32.2597H32.1483V45.4461V45.4832H32.1112H32.074V45.6317V45.7803H32.2257H32.3773V45.7431V45.706H32.4485H32.5197V46.8478V47.9895H32.5568H32.594V48.0236V48.0576H32.7827H32.9715V46.5848V45.1119H32.8242C32.7431 45.1119 32.6744 45.1138 32.6726 45.1162Z" fill="#2A2829"/>
        <path d="M34.8406 45.149V45.1855L34.7651 45.1874L34.689 45.1892L34.6871 45.2245L34.6853 45.2604H34.6116H34.5373V45.3346V45.4089H34.5002H34.4631V45.446V45.4832H34.4259H34.3888V45.5915V45.6991L34.3535 45.701L34.3176 45.7029L34.3158 46.0723L34.3145 46.4424H34.3517H34.3888V46.5538V46.6652H34.4259H34.4631V46.7023V46.7394H34.5002H34.5373V46.7766V46.8137H34.5745H34.6116V46.8477V46.8818H34.6859H34.7602V46.9189V46.956H34.952H35.1439V46.9189V46.8818H35.2182H35.2925V46.8477V46.8137H35.3265H35.3605V47.1417V47.4697H35.3234H35.2863V47.578V47.6863H35.212H35.1377V47.7234V47.7605H35.0263H34.9149V47.7234V47.6863H34.8778H34.8406V47.6491V47.612H34.8035H34.7663V47.4666V47.3211H34.5404H34.3145V47.4697V47.6182H34.3517H34.3888V47.6925V47.7667H34.4259H34.4631V47.841V47.9152H34.5373H34.611L34.6128 47.9505L34.6147 47.9864L34.6506 47.9883L34.6859 47.9901V48.0235V48.0576H34.8375H34.9892V48.0947V48.1318H35.0665H35.1439V48.0947V48.0576H35.2553H35.3667V48.0235V47.9895H35.441H35.5153V47.9524V47.9152H35.5524H35.5896V47.841V47.7667H35.6267H35.6638V47.6925V47.6182H35.701H35.7381V47.5099V47.4016H35.7752H35.8124V46.6249V45.8483H35.7752H35.7381V45.7029V45.5574H35.701H35.6638V45.4832V45.4089H35.6267H35.5896V45.3718V45.3346H35.5524H35.5153V45.2975V45.2604H35.4781H35.441V45.2233V45.1861H35.3667H35.2925V45.149V45.1119H35.0665H34.8406V45.149ZM35.212 45.5265V45.5636H35.2491H35.2863V45.6348V45.706H35.3234H35.3605V46.1082V46.5105H35.2863H35.212V46.5476V46.5847H35.0263H34.8406V46.5105V46.4362H34.8035H34.7663V46.0339V45.6317H34.8035H34.8406V45.5977V45.5636H34.8778H34.9149V45.5265V45.4894H35.0634H35.212V45.5265Z" fill="#2A2829"/>
        <path d="M24.6714 45.8111V45.8482H24.5972H24.5229V45.8853V45.9225H24.4455H24.3681V45.9596V45.9967H24.331H24.2939V46.0338V46.071H24.2567H24.2196V46.1452V46.2195H24.1825H24.1453V46.5506V46.8816H24.1825H24.2196V46.9188V46.9559H24.2567H24.2939V46.993V47.0302H24.331H24.3681V47.0673V47.1044H24.4084H24.4486V47.1415V47.1787H24.4858H24.5229V47.2158V47.2529H24.8602H25.1976V47.2158V47.1787H25.2718H25.3461V47.1415V47.1044H25.3832H25.4204V47.0673V47.0302H25.4575H25.4947V46.9559V46.8816H25.5349H25.5751V46.8105V46.7393H25.6123H25.6494L25.6482 46.5518L25.6463 46.3649L25.611 46.3631L25.5751 46.3612V46.2535V46.1452H25.5349H25.4947V46.1081V46.071H25.4575H25.4204V46.0338V45.9967H25.3832H25.3461V45.9596V45.9225H25.309H25.2718V45.8853V45.8482H25.1604H25.049V45.8111V45.7739H24.8602H24.6714V45.8111Z" fill="#2A2829"/>
        <path d="M37.7569 45.8853V45.9224H37.6795H37.6022V45.9596V45.9967H37.565H37.5279V46.0338V46.0709H37.4907H37.4536V46.1081V46.1452H37.4165H37.3793V46.2195V46.2937H37.3422H37.3051L37.3063 46.5518L37.3081 46.8104L37.344 46.8123L37.3793 46.8141V46.8847V46.9559H37.4165H37.4536V46.993V47.0301H37.4907H37.5279V47.0672V47.1044H37.565H37.6022V47.1415V47.1786H37.6424H37.6826V47.2158V47.2529H37.794H37.9054V47.29V47.3271H38.0571H38.2087V47.29V47.2529H38.3201H38.4315V47.2158V47.1786H38.4687H38.5058V47.1415V47.1044H38.543H38.5801V47.0672V47.0301H38.6172H38.6544V46.993V46.9559H38.6946H38.7348V46.8847V46.8141L38.7707 46.8123L38.806 46.8104L38.8079 46.5518L38.8091 46.2937H38.772H38.7348V46.2195V46.1452H38.6946H38.6544V46.1081V46.0709H38.6172H38.5801V46.0338V45.9967H38.543H38.5058V45.9596V45.9224H38.4315H38.3573V45.8853V45.8482H38.0571H37.7569V45.8853Z" fill="#2A2829"/>
    </g>
    <defs>
        <clipPath id="clip0">
            <rect width="64" height="62.922" fill="white"/>
        </clipPath>
    </defs>
</svg>
