<svg width="117" height="46" viewBox="0 0 117 46" fill="none" xmlns="http://www.w3.org/2000/svg">
<path d="M22.4661 22.3082C20.8696 23.007 19.5126 23.6264 18.1358 24.1978C15.6609 25.2247 13.3289 24.947 11.3118 23.1637C9.31945 21.4023 8.79071 19.1263 9.54399 16.6178C10.4897 13.4682 11.5459 10.3518 12.5484 7.21925C12.6976 6.75243 12.814 6.27508 13.0396 5.46503C11.0852 6.2774 9.44379 6.9464 7.8134 7.64162C6.5558 8.1778 5.32003 8.76511 4.06089 9.29719C2.4549 9.9757 0.914174 9.43155 0.263662 7.98948C-0.413056 6.48909 0.248762 4.91651 1.87453 4.21127C4.65744 3.00402 7.43831 1.79138 10.2343 0.614704C12.6994 -0.422724 15.0438 -0.188937 17.0459 1.63697C19.0098 3.42793 19.4712 5.69522 18.6781 8.20837C17.6877 11.3469 16.6647 14.4751 15.6637 17.6102C15.5271 18.0385 15.4364 18.4817 15.2524 19.1993C15.8934 19.0266 16.2896 18.966 16.648 18.8157C18.9728 17.8399 21.2781 16.8176 23.6148 15.8717C24.3573 15.5711 24.7547 15.1292 24.9867 14.3636C25.879 11.4188 26.8342 8.49329 27.7663 5.56059C28.4147 3.52042 29.9318 2.59579 31.738 3.13839C33.4182 3.64349 34.2185 5.33734 33.6201 7.30866C32.2549 11.806 30.8475 16.2902 29.4601 20.7808C29.3255 21.2163 29.2114 21.6582 29.0139 22.3606C30.4269 21.7445 31.6419 21.2667 32.7985 20.6745C33.0927 20.5239 33.3434 20.0227 33.374 19.662C34.0376 11.8376 43.1142 6.7144 50.9635 11.8792C54.5986 14.2711 59.0145 13.8546 62.032 10.685C63.0114 9.65636 64.0963 9.00096 65.5587 9.4277C67.3242 9.94307 68.0695 11.6354 67.4419 13.6897C66.3058 17.4083 65.151 21.1212 64.0102 24.8386C63.9144 25.151 63.8646 25.4773 63.7382 26.044C64.2641 25.9371 64.6199 25.9153 64.9367 25.793C69.6688 23.9666 69.6637 23.9622 71.1618 19.1122C71.9055 16.7038 72.6432 14.2929 73.4283 11.8982C74.0439 10.0207 75.6021 9.12633 77.2766 9.61242C79.0005 10.1129 79.8006 11.7531 79.2423 13.7318C78.7202 15.5824 78.1627 17.4232 77.6055 19.2635C77.0485 21.103 76.4725 22.9371 75.878 24.8609C76.3196 24.9842 76.761 25.0757 77.1795 25.2301C79.0822 25.9315 79.752 28.4855 78.1512 29.6969C76.8376 30.6911 75.1869 31.4241 73.5758 31.7892C71.9939 32.1476 70.6225 31.1829 69.5702 29.7873C68.6252 30.2145 67.7075 30.64 66.7813 31.0462C64.2754 32.1453 61.8948 31.913 59.8348 30.1018C57.8067 28.3185 57.3268 26.0096 58.0529 23.4381C58.4775 21.9344 58.922 20.436 59.3829 18.8483C58.0765 18.9683 56.898 19.0762 55.6281 19.1928C56.0255 22.217 55.3853 24.9732 53.5525 27.4054C52.1428 29.2763 50.2878 30.5267 48.066 31.2389C43.097 32.8317 38.722 31.1423 34.5527 25.9633C32.1578 26.9933 29.7186 28.0056 27.3221 29.1108C26.9439 29.2853 26.6487 29.8438 26.5033 30.2865C25.4772 33.4126 24.57 36.5791 23.4899 39.6858C22.1054 43.6682 18.1825 45.7993 13.9588 44.9993C10.1942 44.2861 7.30959 40.632 7.50742 36.703C7.67544 33.3679 9.35927 30.9645 12.3629 29.5607C14.8018 28.421 17.2725 27.3361 19.7865 26.377C21.0302 25.9025 21.821 25.2558 21.9944 23.9075C22.0517 23.4561 22.2498 23.0219 22.4661 22.3082ZM49.6658 20.6161C49.6905 17.8707 47.4772 15.5025 44.8525 15.466C41.8718 15.4244 39.4105 17.879 39.393 20.9106C39.3763 23.8101 41.5856 26.1681 44.3605 26.2118C47.2596 26.2575 49.6376 23.7492 49.6658 20.6161ZM19.3315 32.507C17.4426 33.369 15.858 33.9935 14.3753 34.8041C13.425 35.3236 12.9384 36.2623 13.2685 37.4126C13.5835 38.5098 14.3288 39.1665 15.4811 39.2028C16.6382 39.2392 17.4177 38.6278 17.772 37.5351C18.2779 35.9741 18.7462 34.4007 19.3315 32.507Z" fill="black"/>
<path d="M116.972 14.1753C116.203 14.1753 115.527 14.1753 114.683 14.1753C114.683 12.3386 114.683 10.5343 114.683 8.73019C114.592 8.70758 114.501 8.68472 114.41 8.66211C113.896 9.42207 113.386 10.1846 112.868 10.9415C112.224 11.8823 111.601 11.8941 110.903 10.9682C110.322 10.1974 109.759 9.41282 108.943 8.29986C108.943 10.4939 108.943 12.2959 108.943 14.1588C108.068 14.1588 107.354 14.1588 106.544 14.1588C106.544 10.8716 106.544 7.60413 106.544 4.28785C107.846 3.94513 108.872 4.08129 109.617 5.45091C110.243 6.60138 111.129 7.61055 111.919 8.70835C112.628 7.62186 113.401 6.6335 113.956 5.53467C114.612 4.2339 115.564 3.90788 116.972 4.2691C116.972 7.50239 116.972 10.7696 116.972 14.1753Z" fill="black"/>
<path d="M105.585 14.1222C103.244 14.3403 103.267 14.3285 102.32 12.5054C102.168 12.2125 101.732 11.9549 101.391 11.8968C100.809 11.7976 100.185 11.7956 99.6045 11.8978C99.2677 11.9572 98.8405 12.2303 98.694 12.526C97.8115 14.3087 97.8349 14.3203 95.6452 14.1404C95.776 13.7371 95.8798 13.3538 96.0229 12.9856C97.0433 10.3591 98.0877 7.74194 99.0871 5.10752C99.3399 4.44108 99.6187 4.05287 100.443 4.08704C101.18 4.11762 101.573 4.30439 101.858 5.02607C103.048 8.03713 104.307 11.0207 105.585 14.1222ZM99.6146 9.94036C100.302 9.88282 100.776 9.84299 101.348 9.79521C101.047 8.98643 100.826 8.39244 100.49 7.49195C100.147 8.45025 99.9175 9.09357 99.6146 9.94036Z" fill="black"/>
<path d="M88.9764 4.21777C90.9937 4.21777 92.9018 4.21777 95.2734 4.21777C94.6792 5.04813 94.3786 5.89903 93.8149 6.14413C93.1402 6.43753 92.2405 6.2135 91.3654 6.2135C91.3654 6.86478 91.3654 7.39608 91.3654 8.06303C92.3507 8.10877 93.3095 8.15322 94.3613 8.20203C94.3613 8.82505 94.3613 9.40029 94.3613 10.1823C93.3943 10.1823 92.4062 10.1823 91.3572 10.1823C91.3572 10.9256 91.3572 11.4641 91.3572 12.1686C92.4956 12.1686 93.6201 12.1686 94.8585 12.1686C94.8585 12.8985 94.8585 13.4652 94.8585 14.2239C93.9115 14.2239 92.9475 14.2239 91.9836 14.2239C91.0091 14.2239 90.0346 14.2239 88.9766 14.2239C88.9764 10.8526 88.9764 7.58749 88.9764 4.21777Z" fill="black"/>
<path d="M84.9076 14.1734C84.0063 14.1734 83.335 14.1734 82.535 14.1734C82.535 11.5375 82.535 8.94748 82.535 6.25705C81.5276 6.25705 80.6448 6.25705 79.6593 6.25705C79.6593 5.54385 79.6593 4.93188 79.6593 4.23975C82.3898 4.23975 85.1085 4.23975 87.9757 4.23975C87.7917 4.90953 87.6186 5.53923 87.4328 6.21492C86.5786 6.21492 85.814 6.21492 84.9076 6.21492C84.9076 8.8722 84.9076 11.4619 84.9076 14.1734Z" fill="black"/>
</svg>
